<svg version="1.1" fill="#29524A" xmlns="http://www.w3.org/2000/svg" xmlns:xlink="http://www.w3.org/1999/xlink" x="0px" y="0px" width="100%" height="auto" viewBox="0 0 1417.3 954.1" style="enable-background:new 0 0 1417.3 954.1;" xml:space="preserve"><g><rect style="fill:rgb(255 255 255 / 0%)" class="svg-fill--white-transparent" width="1417.3" height="954.1"></rect><path class="svg-fill--primary--opacity" d="M331.5,349c-17.6,24.8-46.2,29.7-78.7,29.7l-142,0.6c84.8-59.4,209.7-140.4,209.7-222.4 c0-58.3-45.1-106.8-130.4-106.8S48.6,113.9,45.9,192.6h2.8c7.7-52.3,34.1-75.4,86.4-75.4c51.7,0,68.8,34.7,68.8,76 c0,64.9-64.4,144.8-165.1,255.9v5h265.9L334.3,349H331.5z M421.9,462.9c31.4,0,57.2-25.9,57.2-57.8c0-31.4-25.9-57.2-57.2-57.2 c-31.9,0-57.8,25.9-57.8,57.2C364.1,435.4,390,462.9,421.9,462.9z"></path><path class="svg-fill--black" d="M1326.2,138.8c2,0,3.6-5.7,3.6-12.8c0-7.1-1.6-12.8-3.6-12.8c-2,0-3.6,5.7-3.6,12.8 C1322.5,133.1,1324.2,138.8,1326.2,138.8z"></path><path class="svg-fill--black" d="M1234.4,63.1l-17-9.9l2.3,8.6l17,9.9L1234.4,63.1z"></path><path class="svg-fill--black" d="M1226.8,76.2l-17-9.9l8.6-2.3l17,9.9L1226.8,76.2z"></path><path class="svg-fill--black" d="M1216.6,64l104.7,61.4l4.4,0.6l0.4-0.6l-2.7-3.6l-104.7-61.4L1216.6,64z"></path><path class="svg-fill--black" d="M1119.2,157.3c-3.2-0.8-6.5-1-9.7-0.6l-1.1,9.5c-1,0.2-2.1,0.6-3.1,1.1l-6.3-6.9c-2.9,1.7-5.3,4-7.4,6.7 l4.6,8.4c-0.6,1-1.1,2.1-1.7,3.1l-8.4-1c-1.1,3.4-1.7,7.1-1.7,10.9l8.2,3.2c0.2,1.3,0.4,2.5,0.6,3.6l-6.7,5.5 c1.1,3.6,2.9,6.9,4.8,9.9l7.8-3.2c0.8,1,1.5,1.7,2.5,2.5l-1.9,9.3c2.9,1.9,5.9,3.4,9.2,4.2l3.8-8.4c1.1,0.2,2.1,0.2,3.2,0.2 l3.8,8.8c3.2-0.6,6.3-1.7,9.2-3.2l-1.9-9.5c1-0.8,1.7-1.5,2.5-2.3l7.8,4.2c2.1-2.7,3.6-5.9,4.8-9.3l-6.7-6.3 c0.2-1.1,0.4-2.5,0.6-3.6l8.2-2.5c0-3.6-0.6-7.4-1.7-11.1h-8.4c-0.4-1.1-1-2.3-1.7-3.2l4.6-7.8c-2.1-2.9-4.6-5.5-7.4-7.4l-6.3,6.3 c-1-0.6-2.1-1-3.1-1.5L1119.2,157.3z M1115.1,160.9l0.9,9.2l2.5,1c0.8,0.4,1.7,0.8,2.5,1.1l2.9,1.7l5.7-5.7 c0.8,0.6,1.3,1.3,1.9,2.1l-4.4,7.4l1.3,2.1c0.6,1,1,1.9,1.3,2.9l1.1,2.7h8c0.2,1.1,0.4,2.3,0.6,3.4l-7.6,2.3l-0.2,2.9 c0,1-0.2,2.1-0.4,3.1l-0.6,2.5l6.5,5.9c-0.4,0.8-0.8,1.7-1.1,2.5l-7.3-3.8l-2.3,2.5c-0.6,0.6-1.3,1.3-1.9,1.7l-2.1,1.7l1.7,9 c-0.6,0.2-1.1,0.4-1.7,0.6l-3.6-8.2h-2.9c-0.8,0-1.7,0-2.5-0.2l-3.2-0.4l-3.6,7.8c-0.8-0.4-1.3-0.6-1.9-1l1.7-8.8l-1.9-1.7 c-0.8-0.6-1.3-1.3-2.1-2.1l-2.1-2.5l-7.2,3.1c-0.6-1-1-1.9-1.5-3.1l6.5-5.2l-0.6-2.7c-0.2-1-0.4-2.1-0.6-3.1l-0.2-2.7l-7.6-3.1 c0.2-1.1,0.2-2.1,0.4-3.2l7.8,1l1.3-2.9c0.4-1,0.8-1.7,1.3-2.7l1.3-2.1l-4.4-8c0.6-0.6,1-1,1.5-1.5l5.7,6.3l2.9-1.3 c0.8-0.4,1.5-0.6,2.3-0.8l2.9-0.8l1-8.8C1113.8,160.9,1114.6,160.9,1115.1,160.9z M1114.4,182.3c-4.2-0.2-8,3.2-8,8 c0,4.6,3.4,8.2,7.4,8.4c4.2,0.2,8-3.2,8-8C1122,186.1,1118.4,182.5,1114.4,182.3z M1114.2,186.7c1.9,0.2,3.4,1.9,3.4,4 s-1.5,3.8-3.4,3.6c-1.9-0.2-3.4-1.9-3.4-4S1112.3,186.5,1114.2,186.7z"></path><path class="svg-fill--black" d="M1153.3,118.6c-3.2,0.6-6.3,1.7-9.2,3.4l1.9,9.5c-1,0.8-1.7,1.5-2.5,2.3l-7.8-4.2c-2.1,2.9-3.6,5.9-4.8,9.3 l6.9,6.1c-0.2,1.1-0.4,2.5-0.6,3.6l-8,2.5c0,3.6,0.6,7.4,1.7,10.9h8.4c0.6,1.1,1,2.3,1.7,3.2l-4.6,7.8c2.1,2.9,4.6,5.3,7.4,7.4 l6.1-6.3c1,0.6,2.1,1,3.1,1.3l1.1,9.7c3.2,0.8,6.5,1,9.7,0.4l1-9.5c1-0.4,2.1-0.6,3.1-1.1l6.3,6.9c2.9-1.7,5.3-4,7.4-6.7l-4.6-8.4 c0.6-1,1.1-2.1,1.5-3.1l8.4,1c1.1-3.4,1.5-7.1,1.7-10.9l-8.2-3.2c-0.2-1.3-0.4-2.5-0.6-3.6l6.7-5.5c-1.1-3.4-2.9-6.9-5-9.7 l-7.8,3.4c-0.8-1-1.7-1.7-2.5-2.5l1.9-9.3c-2.9-1.9-5.9-3.4-9.2-4.2l-3.8,8.4c-1.1-0.2-2.1-0.2-3.2-0.2L1153.3,118.6z M1150.6,123.7l3.6,8.2l2.9-0.2c0.8,0,1.7,0,2.5,0.2l3.2,0.4l3.6-7.8c0.8,0.4,1.3,0.6,1.9,1l-1.7,8.8l1.9,1.7 c0.8,0.6,1.3,1.3,2.1,2.1l2.1,2.5l7.2-3.2c0.6,1,1,1.9,1.5,3.1l-6.5,5.3l0.6,2.7c0.2,1,0.4,2.1,0.6,3.1l0.2,2.7l7.6,3.1 c-0.2,1.1-0.2,2.1-0.4,3.2l-8-0.8l-1.3,2.9c-0.4,1-0.8,1.7-1.3,2.7l-1.3,2.1l4.4,7.8c-0.6,0.6-1,1-1.5,1.5l-5.7-6.3l-2.9,1.3 c-0.8,0.4-1.5,0.6-2.3,1l-2.9,0.8l-1,8.8c-0.6,0-1.1,0-1.9-0.2l-1-9.2l-2.5-1c-0.8-0.4-1.7-0.8-2.5-1.1l-2.9-1.5l-5.7,5.7 c-0.8-0.6-1.3-1.3-1.9-1.9l4.4-7.4l-1.3-2.1c-0.6-1-1-1.9-1.3-2.9l-1.1-2.7h-8c-0.2-1.1-0.4-2.3-0.6-3.4l7.6-2.3l0.2-2.9 c0-1,0.2-2.1,0.4-3.1l0.6-2.5l-6.5-5.9c0.4-0.8,0.8-1.7,1.1-2.5l7.2,3.8l2.3-2.5c0.6-0.6,1.3-1.3,1.9-1.7l2.1-1.7l-1.7-9 C1149.5,124.1,1150,123.9,1150.6,123.7z M1159.2,144.2h-0.4c-1,0-1.7,0.2-2.7,0.4c-3.8,1.3-6.1,5.9-4.6,10.3 c1.5,4.6,6.1,6.7,9.9,5.3c3.8-1.3,6.1-5.9,4.6-10.3C1165.1,146.4,1162.3,144.3,1159.2,144.2z M1157.7,148.5 c1.7-0.6,3.6,0.6,4.4,2.5c0.6,2.1-0.2,4.2-1.9,4.8c-1.7,0.6-3.6-0.6-4.4-2.5C1155,151.4,1156,149.3,1157.7,148.5z"></path><g><path class="svg-fill--primary" d="M836.4,679.3l-2.5,1.9c-3.6,48.3-12.4,92.3-26.3,134.5c-4.4,10.5-12.8,17.6-25.8,21.4 c-43.7,13.5-92.1,23.7-152.2,31.5l-1.9,2.7l5.5,21.4l2.5,1.5c91-12.6,149.6-27.1,179.7-43.9l0.2-0.2c11.1-9,17.4-21.2,24-34.3 c0.8-1.5,1.5-3.1,2.3-4.6l0.2-0.4v-0.4c4.2-30.3,5.5-59.9,6.9-91.2c0.6-11.6,1-23.7,1.7-35.7l-1.9-2.3L836.4,679.3z"></path><path class="svg-fill--primary" d="M548.6,740.7c28.2,63.5,46.4,125.3,47.1,183.9h39.5c-5.5-54.8-19.5-112.2-43.3-162.3 C578.9,752.1,564.4,745.1,548.6,740.7z"></path><path class="svg-fill--primary" d="M640,515.8l-4.6-43.3L621.3,424l-21-16.4c0,0,6.9,8.4,11.4,20c9.9,25.6,22.3,67.3,22.1,74.8 c0,5.9-5.2,15.1-5.3,15.1c-37.2,4.8-85.8,9.9-116,4c1.3,4.8,4.4,8.2,9.9,9.7c16.4,6.1,61.8,0,102.1-3.6 C632.3,527,636.7,522.3,640,515.8z"></path><path class="svg-fill--primary" d="M363.6,569c3.2,11.8,6.3,22.5,15.3,27.7c12.8-23.8,33.8-43.9,55.1-60.7l-10.3-30.9 C400.6,524.2,380,545.2,363.6,569z"></path><path class="svg-fill--primary" d="M1326.2,36.6c-17.5,0-31.9,39.5-31.9,88.1s14.3,88.1,31.9,88.1c17.6,0,31.9-39.5,31.9-88.1 S1343.7,36.6,1326.2,36.6z M1332.6,204.6c-2.1,1.9-4.2,3.1-6.5,3.1c-2.3,0-4.4-1.1-6.5-3.1c-2.7-2.5-5.3-6.3-7.6-11.1 c-7.6-15.5-12.6-40.6-12.6-68.9s4.8-53.2,12.6-68.9c2.3-4.6,4.8-8.4,7.6-11.1c2.1-1.7,4.2-3.1,6.5-3.1c2.3,0,4.4,1.1,6.5,3.1 c2.9,2.5,5.3,6.3,7.6,11.1c7.6,15.5,12.6,40.6,12.6,68.9s-4.8,53.2-12.6,68.9C1338,198.1,1335.5,202,1332.6,204.6z"></path><path class="svg-fill--primary" d="M1326.2,58.3c-11.3,0-20.4,30.3-20.4,67.7s9.2,67.7,20.4,67.7c11.3,0,20.4-30.3,20.4-67.7 S1337.4,58.3,1326.2,58.3z M1328.7,186.7c-1,1-1.5,1.7-2.5,1.7c-1,0-1.7-0.8-2.5-1.7c-1.7-1.9-3.2-4.6-4.6-8 c-5-11.8-8-31.1-8-52.7c0-21.6,3.1-40.8,8-52.7c1.3-3.4,2.9-6.3,4.6-8c0.8-1,1.5-1.7,2.5-1.7c1,0,1.7,0.8,2.5,1.7 c1.7,1.9,3.2,4.6,4.6,8c5,11.8,8,31.1,8,52.7c0,21.6-3.1,40.8-8,52.7C1331.9,182.1,1330.4,185,1328.7,186.7z"></path><path class="svg-fill--primary" d="M1326.2,82.9c-5.7,0-10.5,18.7-10.5,41.8c0,23.1,4.8,41.8,10.5,41.8c5.7,0,10.3-18.7,10.3-41.8 C1336.5,101.6,1331.9,82.9,1326.2,82.9z M1327.7,156.7c-0.4,1.1-1,2.5-1.5,3.4c-0.6-1-1.1-2.3-1.5-3.4c-2.5-7.2-4-18.9-4-32 c0-13.2,1.5-24.8,4-32c0.4-1.3,1.1-2.5,1.5-3.4c0.6,1,1.1,2.3,1.5,3.4c2.5,7.2,4,18.9,4,32 C1331.7,137.9,1330.2,149.5,1327.7,156.7z"></path><polygon class="svg-fill--primary" points="909.9,134.4 878.2,132.5 879.9,136.3 885.8,139.6 907.8,139.8 "></polygon><polygon class="svg-fill--primary" points="970.9,134.8 922.6,135.4 897.5,165 899.9,168.8 926.3,141.3 971.7,141.9 974.5,138.4 978.3,135 978.7,78.2 970.3,67.5 "></polygon><path class="svg-fill--primary" d="M999.2,184.2c16,13.9,18.3,32.8,9.3,56.1c9-5.7,13.5-14.1,13.7-25C1020.9,198,1012.5,188.2,999.2,184.2z"></path><path class="svg-fill--primary" d="M1132.2,182.3c-0.4-1.1-1.7-1.7-2.3-2.9l3.2-9.5l-1.3-1.9c-2.7,3.4-6.9,9-6.9,9c0.2,3.1,5,14.3,2.5,20.8 c-6.3,15.8-18.7,11.1-18.7,11.1c-0.2,2.3-4,11.1-4,11.1s1.5,0.6,2.3,0.4c1.5-0.4,1.7-5.9,1.7-5.9s7.8-0.2,8.2-0.2l4,8 c3.2-0.6,1.7-0.6,4.8-2.1l-2.5-9.7c1-0.8,4.2-2.5,5.2-3.2l6.9,4.2c2.3-2.7,2.3-3.6,3.8-6.9l-5.9-6.7c0.4-1.1,0.8-2.5,1-3.6 l8.2-3.1c0.4-3.6-0.2-4.4-1-8L1132.2,182.3z"></path><path class="svg-fill--primary" d="M1178.6,147.4l5.9-5.7c-1.1-3.8-1.1-4.2-3.2-7.4l-8,2.9c-0.8-1-3.1-2.9-3.8-3.8l-0.8-9.5l-0.6-0.4 c-1,4.8-1.3,6.7-1.7,8.8l-1,3.1c1.3,2.9,8.4,10.5,7.8,18.7c-1.1,18.1-13.5,19.1-13.5,19.1c0.2,0-0.6,9.9-0.6,9.9s1.7-0.2,2.3-0.6 c1.1-1,2.9-6.7,2.9-6.7s3.6-1.3,3.8-0.8l6.5,6.1c2.7-1.7,2.9-2.3,5-5l-3.8-8.8c0.6-1,1-3.4,1.3-4.6l8.8,0.6c1-3.6,1-3.4,1-7.2 l-7.6-4.6C1179,150.1,1178.8,148.7,1178.6,147.4z"></path><path class="svg-fill--primary" d="M1228.5,182.5l6.3-5.9c-1.1-3.4-1.9-5.5-4-8.6l-8,3.1c-0.8-1-1.9-1.3-2.7-2.1l-2.1-8.2l-0.8-0.4 c-1,4.6-1.3,6.5-1.9,8.6l-0.2,1c1.3,2.7,4,4.6,5,6.9c1.3,3.4,2.7,6.3,2.9,9.2c1.7,17-13.9,22.1-13.9,22.1c0.2,0-0.4,9.2-0.4,9.2 s0.6,0.4,1.3,0c1.1-1,3.4-5.9,3.4-5.9s3.4-1.5,3.8-1.7l6.5,6.3c2.9-1.7,4.2-2.3,6.3-5l-4.8-9.2c0.6-1,1.1-2.1,1.5-3.1l8.8,0.4 c1.1-3.4,1.5-5.3,1.5-9.2l-8-3.8C1228.8,184.8,1228.7,183.6,1228.5,182.5z"></path></g><path class="svg-fill--black" d="M1202.3,153.7c-3.2,0.6-6.3,1.7-9.2,3.4l1.9,9.5c-1,0.8-1.7,1.5-2.5,2.3l-7.8-4.2c-2.1,2.9-3.6,5.9-4.8,9.3 l6.9,6.1c-0.2,1.1-0.4,2.5-0.6,3.6l-8,2.5c0,3.6,0.6,7.4,1.7,10.9h8.4c0.6,1.1,1,2.3,1.7,3.2l-4.6,7.8c2.1,2.9,4.6,5.3,7.4,7.4 l6.1-6.3c1,0.6,2.1,1,3.1,1.3l1.1,9.7c3.2,0.8,6.5,1,9.7,0.4l1-9.5c1-0.4,2.1-0.6,3.1-1.1l6.3,6.9c2.9-1.7,5.3-4,7.4-6.7l-4.6-8.4 c0.6-1,1.1-2.1,1.5-3.1l8.4,1c1.1-3.4,1.5-7.1,1.7-10.9l-8.2-3.2c-0.2-1.3-0.4-2.5-0.6-3.6l6.7-5.5c-1.1-3.4-2.9-6.9-5-9.7 l-7.8,3.4c-0.8-1-1.7-1.7-2.5-2.5l1.9-9.3c-2.9-1.9-5.9-3.4-9.2-4.2l-3.8,8.4c-1.1-0.2-2.1-0.2-3.2-0.2L1202.3,153.7z M1199.8,158.8l3.6,8.2l2.9-0.2c0.8,0,1.7,0,2.5,0.2l3.2,0.4l3.6-7.8c0.8,0.4,1.3,0.6,1.9,1l-1.7,8.8l1.9,1.7 c0.8,0.6,1.3,1.3,2.1,2.1l2.1,2.5l7.3-3.2c0.6,1,1,1.9,1.5,3.1l-6.5,5.3l0.6,2.7c0.2,1,0.4,2.1,0.6,3.1l0.2,2.7l7.6,3.1 c-0.2,1.1-0.2,2.1-0.4,3.2l-8-0.8l-1.3,2.9c-0.4,1-0.8,1.7-1.3,2.7l-1.3,2.1l4.4,7.8c-0.6,0.6-1,1-1.5,1.5l-5.7-6.3l-2.9,1.1 c-0.8,0.4-1.5,0.6-2.3,1l-2.9,0.8l-1,8.8c-0.6,0-1.1,0-1.9-0.2l-1-9.2l-2.5-1c-0.8-0.4-1.7-0.8-2.5-1.1l-2.9-1.5l-5.7,5.7 c-0.8-0.6-1.3-1.3-1.9-1.9l4.4-7.4l-1.3-2.1c-0.6-1-1-1.9-1.3-2.9l-1.1-2.7h-8c-0.2-1.1-0.4-2.3-0.6-3.4l7.6-2.3l0.2-2.9 c0-1,0.2-2.1,0.4-3.1l0.6-2.5l-6.5-5.9c0.4-0.8,0.8-1.7,1.1-2.5l7.2,3.8l2.3-2.5c0.6-0.6,1.3-1.3,1.9-1.7l2.1-1.7l-1.7-9 C1198.7,159.2,1199.3,159,1199.8,158.8z M1205.2,179.6c-3.8,1.3-6.1,5.9-4.6,10.3c1.5,4.6,6.1,6.7,9.9,5.3 c3.8-1.3,6.1-5.9,4.6-10.3C1213.8,180.4,1209.2,178.3,1205.2,179.6z M1206.7,183.8c1.7-0.6,3.6,0.6,4.4,2.5 c0.6,2.1-0.2,4.2-1.9,4.8c-1.7,0.6-3.6-0.6-4.4-2.5C1204,186.5,1205,184.4,1206.7,183.8z"></path><g><path d="M1181.8,92.2c1-0.1,1.8-1,1.8-2c0-1-0.8-2.1-1.8-2.2V40.2h-4.4v86h4.4V92.2z"></path><rect x="971.5" y="50.9" width="4.4" height="13.5"></rect><path d="M1285.3,332.3v-56.5c32.6,5.5,65.1,11.6,97.5,18.1l0.8-4.2c-32.6-6.7-65.4-12.8-98.4-18.3v-54.8l98.1,6.3l0.2-4.4 l-98.2-6.3v-57.8c2.1,0,4.4-0.2,6.5-0.2l-0.2-4.4c-2.1,0-4.2,0.2-6.3,0.2V25.9h-4.4v124.4c-19.3,0.6-38.7,0.8-58,1v4.4 c19.3-0.2,38.7-0.6,58-1v57.4l-45-2.9l-0.2,4.4l45.2,2.9v54.2c-32.6-5.5-65.4-10.5-98.2-15.1l0.2-49.6h-1.9l-37-2.5l-0.4,4.4 l8.7,0.6c-0.3,0.4-0.5,0.8-0.5,1.3c0,0.2,0,0.2,0,0.2v0.2c0,0.6,0.2,1,0.6,1.5s1,0.8,1.5,0.8c1.1,0,2.1-1,2.1-2.3V210 c0-0.5-0.2-0.9-0.5-1.3l22.8,1.5l-0.2,44.8c-33-4.4-66-8.6-98.8-12v-39.3l5.7,0.4l0.4-4.4l-5.9-0.4v-44.6 c15.3,0.4,30.7,0.8,46.2,1v-4.4c-15.5-0.4-30.9-0.6-46.4-1V48.2h-4.4v101.9c-48.6-1.3-97.3-3.2-147.3-5.9l-0.2,4.4 c14.9,1,29.6,1.5,44.3,2.3l0.2,15.5h4.4l-0.2-15.3c33.2,1.5,66,2.7,98.8,3.4v44.4l-47.3-3.1l-0.4,4.4l47.5,3.2v22.9 c-1.1-0.1-2,0.8-2.2,1.9c-0.2,0.6,0,1.1,0.4,1.5c0.4,0.4,1,0.8,1.5,0.8h0.2c0,0,0,0,0.1,0v12c-9.2-1.1-18.3-1.9-27.5-2.9l-0.4,4.4 c9.3,1,18.5,1.9,27.9,2.9v42.5c-32.6-4.8-65.6-8.8-98.4-11.8v-44.3h-2.3c-3.1-0.2-3.4-0.2-5.3-0.4l-2.3-0.2 c-30.5-2.3-61.8-4-93.1-5.3v-37.4l68.1,4.4l0.2-4.4l-12.3-0.8c0-0.1,0-0.1,0-0.2c0-0.2,0-0.2,0-0.2v-0.2c0-1.1-1-2.1-2.1-2.1 c-1.1,0-2.1,1-2.1,2.1v0.3l-51.8-3.3v-40.1c8.8,0.6,17.5,1,26.5,1.5l0.2-4.4c-9-0.4-17.9-1-26.7-1.5V48.2h-4.4v43.9 c-35.1-1.1-64.9-2.9-102.8-5l-0.2,4.4c38,2.3,67.9,3.8,103,5v44.4c-32.4-2.1-64.7-4.6-102.8-7.8l-0.4,4.4 c38.3,3.2,70.8,5.7,103.2,7.8v40.1l-102.8-6.7l-0.2,4.4l103,6.7v37.4c-34.1-1.3-68.7-2.3-103-2.7v4.4c34.5,0.4,68.9,1.3,103,2.7 v39.1c-34.3-1.1-68.7-1.5-103-0.8v4.4c34.3-0.8,68.5-0.4,102.8,0.8v39.7h4.4v-39.5c32.8,1.1,65.8,3.2,98.6,6.3V320h4.4v-38.2 c32.8,3.1,65.6,7.1,98.4,11.8v41.8h4.4v-41c33,5,65.8,10.7,98.6,17.4l-0.2,45.2h4.4l0.2-44.4c33,6.9,65.8,14.5,98.4,23.1V391h4.4 h0.8v-54.2c34,9,67.7,18.9,101.3,29.8l1.3-4.2C1354,351.3,1319.7,341.4,1285.3,332.3z M971.7,277.3c-32.8-3.1-65.6-5.2-98.6-6.3 h-0.2v-39.1c31.3,1.3,62.4,3.2,92.9,5.3l2.3,0.2c1.5,0,2.1,0.2,3.6,0.2V277.3z M1177.6,307.5c-32.8-6.7-65.6-12.4-98.6-17.4v-42.7 c33,3.4,65.8,7.4,98.8,12L1177.6,307.5z M1280.4,331.1c-32.8-8.4-65.4-16.2-98.4-22.9l0.2-48.3c32.8,4.6,65.6,9.5,98.2,15.1V331.1 z"></path><path d="M1381.7,151.4h1l-0.2-4.4h-1c-7.1,0.4-13.7,0.8-20.6,1l0.2,4.4C1368.1,152.2,1374.8,152,1381.7,151.4z"></path><path d="M575.6,480.9c-1.5,1.5-1.3,4,0.2,5.3c0.6,0.6,1.5,1,2.5,1c1,0,2.1-0.4,2.9-1.1l12.4-13.5c1.5-1.5,1.3-4-0.2-5.3 c-1.5-1.5-4-1.3-5.3,0.2L575.6,480.9z"></path><path d="M535.8,459.1c1,0,1.7-0.4,2.5-1l20-16.8c1.5-1.3,1.7-3.8,0.4-5.3c-1.3-1.5-3.8-1.7-5.3-0.4l-20,16.8 c-1.5,1.3-1.7,3.8-0.4,5.3C533.7,458.7,534.6,459.1,535.8,459.1z"></path><path d="M543.2,482.8c0.8,1,1.9,1.3,2.9,1.3s1.7-0.4,2.5-1l38.5-34.9c1.5-1.3,1.5-3.8,0.2-5.3c-1.3-1.5-3.8-1.5-5.3-0.2 l-38.5,34.7C541.9,478.8,541.9,481.2,543.2,482.8z"></path><path d="M384,800.2c-0.4-2.1-2.3-3.6-4.4-3.2c-2.1,0.4-3.6,2.3-3.2,4.4c7.4,47.9,15.8,82.6,27.1,112.7c0.6,1.5,2.1,2.5,3.6,2.5 c0.4,0,1-0.2,1.3-0.2c2.1-0.8,3.1-3.1,2.3-5C399.6,881.7,391.4,847.5,384,800.2z"></path><path d="M511,600.5c7.8,2.9,15.1,4.2,21.2,4.2c8.6,0,15.3-2.5,19.5-7.6c1.5-1.5,1.1-4-0.4-5.3c-1.5-1.5-4-1.1-5.3,0.4 c-5.2,6.3-17,6.7-32.4,1.3c-1.9-0.8-4,0.4-4.8,2.3C507.9,597.6,509.1,599.7,511,600.5z"></path><path d="M811.1,561c-1.3-1.5-3.8-1.7-5.3-0.4c-1.5,1.3-1.7,3.8-0.4,5.3c0,0,6.3,7.1,9.2,17.2c3.2,11.3,1.7,17.2,0.8,21.2 c-0.6,2.3-1.1,4.2-0.6,6.3c0.4,1.7,1.9,2.9,3.6,2.9c0.4,0,0.6,0,1.1,0c1.9-0.6,3.2-2.5,2.7-4.6c0-0.4,0.4-1.7,0.6-2.7 c1.1-4.4,2.9-12-1-25.2C818.3,569.4,811.5,561.4,811.1,561z"></path><path d="M870.8,542.3c0-6.7-3.2-13.2-5.9-18.1c-1.5-3.1-3.8-4.2-5.5-4.6c-2.7-0.8-5.7-0.2-9,1.7c-1.9-0.8-3.8-0.6-4.8-0.4 c-1.3,0.4-2.5,1.1-3.6,1.9c-1.3-5.2-4-11.6-11.4-13l-0.6-0.2h-0.6c-7.4,0.8-15.1,2.7-20.4,10.7h-0.2c-0.2,0-0.2-0.2-0.2-0.2 c1.3-9,1.3-17.4,0-25.8c2.1-5.9,4.4-13.2,5.3-21.7c0.6-2.3,1.3-4.6,1.9-6.9c1.5-5,2.9-10.1,3.6-15.8v-0.8l-0.2-0.8 c-1.7-5-3.6-11.3-8.6-12.2c-4.6-0.8-7.8,3.4-9,4.8l-0.2,0.2c-7.3,10.5-13,23.7-17.7,39.9v0.4c-3.1,15.1-5.3,31.9-7.4,53.2 c-2.7-4.6-5.2-8.4-6.9-10.5l-0.2-0.2c-3.8-4-13.7-5.3-18.3-2.5c-2.5,1.5-3.2,4.4-2.3,7.1l0.6,1.5c10.5,33.8,22.3,69.2,37,100.9 c0.9,13.6,0.1,28.4-0.7,40.1c-0.2,0.1-0.3,0.1-0.5,0.1l-2.5,3.1c-3.6,26.1-12,55.7-25.2,88.1c-55.7,10.7-120.4,1.9-154.3-4.4 c-32.2-6-86-35.3-98.8-42.5c0.9-14.6,2.2-31.5,5.9-37.7c6.7-10.1,15.6-17.2,27.3-21.2c8.4-1,16.8-3.8,17.6-17.7l5-39.5 c3.7-9,5.4-16.5,6-26.2c0.2,0,0.3-0.1,0.5-0.1c25-7.2,83.4-44.8,79.5-71.2c-2.9-20.2-13-61.2-21.9-79c-6.1-12-18.3-20.8-31.5-22.7 c-19.8-2.7-71.9,1.3-92.7,5.2c-9,1.5-16.6,5.3-25.8,13c-0.4,0.4-0.6,0.6-0.8,0.8c-1,0.8-2.1,1.9-3.2,2.9c-0.4,0.4-1,0.8-1.3,1.1 v-0.2c-30.9-1-56.9,8-79.6,27.3c-5.9,5.5-10.7,10.9-14.5,16.4c-1.3,2.1-1,4.8-0.6,7.6c-1.9-0.4-4.4-0.2-5.5,2.3 c-11.6,21.7-13.2,50.2-4.4,84.5c-1.1,1.7-2.3,3.4-3.1,5c-0.6,0.6-1.1,1.5-1.1,2.9v1c0.4,10.9,7.6,20.6,13.9,29l0.6,0.6l0.4,0.6 c0.4,0.4,1.5,1.7,3.4,1.7c0.6,0,1,0,1.3-0.2c5.6,26.4,13,39.9,29.2,54.1v57.7l-0.6-0.3c-22.7,1.3-82.4,23.8-95.2,35.9 c-16.6,15.6-22.5,42.4-28,89.5l-5.3,68.1l7.6,0.6l5.3-67.9c6.1-50.9,12.6-72.3,25.8-84.7c11.4-10.9,66-31.5,88.5-33.8 c9,11.6,13.9,12.6,20.8,12.6c4.6,0.2,9.9,0.2,21,8.8l0.4,0.2c21.7,12.6,38,16.6,56.3-0.6c3.2-3.4,6.1-8.4,4.4-15.1 c16.6,9,47.5,24.6,73.8,33.4c28.8,38.9,47.3,128.6,48.6,164.6l7.4,0.2c-0.4-7.8-1.3-18.1-3.2-29.8c55.1-5.9,108-17,157-33.4 c22.3-7.6,42.7-28.6,50-51.1c8-24.8,8.2-67.9,8.4-106.1c0-7.2,0.2-14.3,0.2-21l-2.5-3.6c0,0-0.2-0.1-0.3-0.1l1.5-42.8l7.3-34.3 l4.6-19.6c1.1-1.5,2.1-3.1,2.7-4.6c0.2-0.8,0.6-1.9,1-3.1c1.1-3.4,2.7-7.8,4.2-11.1c2.1-4.2,1.3-10.7,0.8-16.4 C871,545.7,870.8,543.8,870.8,542.3z M583.9,557.6c-18.5,9.7-27.5,10.3-28.8,9.2c-0.6-1.3-5.5-12.6-9.7-15.8 c-0.6-0.4-1.3-0.8-2.1-1.1c18.5-0.4,43.3-3.4,63-6.1C599.1,548.8,591.5,553.5,583.9,557.6z M485.4,438.9 c0.8-7.4,2.3-15.5,8.4-23.8c2.5-1,4.8-1.5,7.4-1.7c20.6-3.8,71.2-7.6,90.4-5.2c8.8,1.1,20,7.4,25.8,18.5 c7.8,15.6,17.9,54.8,21.2,76.7c0.8,5.3-2.7,12.2-8.8,19.5c-8.6,0.8-63.5,5.7-82.2,7.1c-18.7,1.3-30.3-2.9-38-13.7l-0.2-0.2 C492.9,495.2,482.8,462.9,485.4,438.9z M478.6,424.8c1-0.8,1.9-1.5,2.9-2.1c-2.1,5.5-2.9,10.7-3.4,15.5 c-2.9,26.1,7.6,59.9,25.6,82.4c9.2,13,23.3,18.3,44.6,16.8c15.3-1.1,55.1-4.6,73.6-6.3c-1.1,1.1-2.5,2.3-3.8,3.4l-5.5,0.8 c-25,3.4-62.8,8.4-81.8,6.9c-17.2-1.1-28.8-6.5-35.7-16.2l-0.2-0.2c-15.8-19.8-26.5-51.1-26.1-75.9 C468.7,441.8,474,429.7,478.6,424.8z M427.8,503.6l-5.7-2.1c-1.1,0.8-2.5,1.7-3.8,2.7c1.1-8.4,7.1-20,13-28.8 c7.6-10.9,20.6-24.6,31.1-35.1c-1,3.4-1.5,6.9-1.5,9.7c-0.4,26.3,10.9,59.3,27.7,80.5c8.2,11.6,21.8,17.9,41.2,19.3 c1.5,0,3.2,0.2,5,0.2c-0.6,0-1.1,0.2-1.7,0.4h-0.2c-5.7,1.5-20.6,8.8-24.6,17.5c-12,3.6-25.2,4.8-41.2,3.6 c-14.9-1-29.4-9.5-41-24.2c3.1-2.1,6.3-4,9.5-5.5l1.9-4.4L427.8,503.6z M378.2,591.9c-5.2-7.1-10.1-14.5-10.5-21.7 c8.4-15.3,33.6-43.7,54.6-59.3l7.2,25.6C406.8,548.8,395.4,565.6,378.2,591.9z M453,736.1c-13-9.9-20.2-10.1-25.4-10.1 c-3.9,0-6.5,0-11.3-5.3V623l-0.2-0.6c-7-17.8-12.5-37.6-14.4-51.6c2.4-3.1,4.8-6,7.2-8.7c-2,4.4-2.4,10.4-0.8,16.3 c3.1,10.9,11.4,17.9,23.3,19.5c0,0,0.2,0,0.4,0c1.9,0,3.4-1.5,4.2-3.2c0.4-2.1-1.1-4-3.2-4.2c-11.8-1.5-15.6-9.3-17-13.9 c-1.7-6.3-0.2-11.4,1.5-12.8c0.2-0.2,0.8-0.6,2.1,0.2c1.7,1,4.2,0.4,5.2-1.5c1-1.7,0.4-4.2-1.5-5.2c-3-1.7-6-1.8-8.7-0.7 c1.8-1.7,3.6-3.3,5.5-4.8c13,16.4,29.4,26.1,46.5,27.3c17.7,1.3,32.4-0.2,46-4.6l2.5-2.7c1.1-5,13.4-12.4,20-14.1h0.2 c1.1-0.4,4.8-1.3,5.5-0.8l0.2,0.2c1.7,1.1,5.3,7.6,7.4,12.8c1.6,3.5,4.9,5.1,10,4.9c-0.6,7.9-2.2,14.6-5.5,22.4l-0.2,0.6l-5,40.6 v0.2c-0.4,8.2-3.8,9.9-11.1,10.7h-0.4l-0.4,0.2c-13.5,4.6-23.8,12.6-31.7,24.6c-5,8.4-6.1,26.3-7.3,43.9c0,0.6-0.1,1.2-0.1,1.8 l-0.1,0.1c0,0,0,0.1,0.1,0.1c-0.5,8.1-0.9,15.6-1.9,20.9C483.4,748.9,472.5,747.4,453,736.1z M844.3,704.1 c-0.2,35.7-0.4,80.1-8,104c-6.3,20-25.4,39.5-45,46.2c-48.6,16.2-100.9,27.3-155.9,33c-6.9-39.7-21-92.3-40.4-123.8 c2.5,0.8,5,1.1,7.1,1.5c34.7,6.5,101.7,15.5,159.1,4l1.9-0.4l0.8-1.9c13.7-33.2,22.3-62.6,26.1-89.5c16.6-4.4,46,5.3,54.6,8.4 C844.3,691.5,844.3,697.8,844.3,704.1z M793.2,669.5c0.8-11.9,1.3-26.3,0.5-39.7v-0.8l-0.4-0.6c-14.7-31.5-26.5-67-37-100.7v-0.2 c2.3-0.4,6.3,0.4,7.4,1.5c2.5,3.1,6.9,10.9,11.6,19.5c0,0.4,0.2,0.8,0.4,1c5.3,9.9,11.1,21,13.9,26.7l0.2,0.6l0.4,0.4 c4.6,4.6,9.7,3.8,11.4,3.6c2.1-0.2,3.4-2.1,3.2-4.2c-0.2-2.1-2.1-3.6-4.2-3.2c-2.1,0.4-3.4,0.2-4.6-1c-1.5-2.7-7.4-14.5-13.5-25.8 c2.3-26.5,5-46.2,8.4-63.3c4.6-15.5,9.9-27.7,16.6-37.4c0.8-0.8,1.1-1.3,1.5-1.5c1,1.1,1.9,4.2,2.5,5.9c-0.8,5-1.9,9.5-3.2,13.9 c-0.6,2.3-1.3,4.8-1.9,7.2v0.4c-1,8.6-3.2,15.6-5.3,21.4l-0.4,1l0.2,1c1.3,8.2,1.3,16.6,0,25.6l-0.2,1l0.4,1 c1.1,2.9,2.9,4.8,5,5.5c2.3,0.8,4.6,0.4,7.3-1.1l0.8-0.6l0.6-0.8c3.4-5.5,8-7.2,14.7-8c2.5,0.6,4.4,2.9,5.9,10.9 c2.5,10.9,4.4,22.5,5.7,35.3c-0.2,3.4-1.5,7.6-3.1,11.8c-1,2.1-1.7,4.4-2.3,6.7c-0.8,0.2-1.3-0.2-2.1-1.3l-2.5-26.9l-0.6-0.8 c-2.5-3.8-4.2-7.8-5.2-12.2c-0.6-1.9-2.5-3.2-4.6-2.9c-1.9,0.6-3.2,2.5-2.9,4.6c1,4.8,2.9,9.3,5.7,13.9l2.5,26.7l0.4,0.8 c2.5,4.2,5.9,6.3,9.7,5.7l0.2,13.9v0.4c0.4,3.2,3.6,5.7,7.8,6.1c1.3,0,2.7,0,3.8-0.4l-5.3,25.8l-1.4,41.4 C829.9,673.5,809.1,667.8,793.2,669.5z M851.1,562.9c-0.4,3.6-0.6,7.8-0.8,11.8c-0.2,5.2-0.4,10.5-1.1,13.5 c-0.8,3.1-1,5.7-1.1,8.2c-0.2,2.1-0.4,3.8-0.8,5.2c-0.2,0.8-0.8,1-1.1,1.1c-0.8,0.2-1.5,0-2.1-0.2l-1-19.8c0-0.4,0-0.6,0-0.8 c0.4-1.3,1-2.5,1.3-3.8c1.7-4.8,3.4-9.7,3.6-14.3v-0.2v-0.2c-1.1-11.1-2.9-21.2-4.8-30.7c0.2-0.2,0.4-0.6,0.4-1 c0.6-1.3,2.5-3.2,3.2-3.2c0,0,0.6,0.4,1.3,1.7C849.4,533.1,852.1,555.3,851.1,562.9z M863.3,561c-1.9,3.6-3.4,8.6-4.6,12 c-0.2,0.6-0.4,1.1-0.6,1.5c0.2-3.8,0.4-7.8,0.8-11.1c1-7.6-1.3-30.9-3.4-36.2c0.8-0.2,1.1-0.4,1.7-0.2c0.4,0.2,0.6,0.4,1,1 c2.1,4,4.8,9.3,4.8,14.3c0,1.9,0.2,4.2,0.4,6.5C863.7,552.8,864.5,558.9,863.3,561z"></path><path d="M718.1,213.6c0.2,0,0.4,0,0.6,0c1,0,1.7-0.6,2.1-1.5v-0.2v-0.2c0.2-1.1-0.4-2.3-1.5-2.7c-1.1-0.2-2.3,0.4-2.7,1.5v0.2v0.2 C716.4,212.1,717,213.2,718.1,213.6z"></path><path d="M728.4,179.5c0.2,0,0.4,0,0.6,0c1,0,1.9-0.6,2.1-1.5v-0.2v-0.2c0.2-1.1-0.4-2.3-1.5-2.7c-1.1-0.2-2.3,0.4-2.7,1.5v0.2v0.2 C726.7,177.9,727.3,179.1,728.4,179.5z"></path><path d="M733.8,162.3c0.2,0,0.4,0,0.6,0c1,0,1.7-0.6,2.1-1.5v-0.2v-0.2c0.2-1.1-0.4-2.3-1.5-2.7c-1.1-0.2-2.3,0.4-2.7,1.5v0.2v0.2 C732.1,160.8,732.6,161.9,733.8,162.3z"></path><path d="M723.3,196.6c0.2,0,0.4,0,0.6,0c1,0,1.7-0.8,2.1-1.5v-0.2c0-0.2,0-0.2,0-0.2v-0.2c0.2-1.1-0.4-2.3-1.5-2.7 c-1.1-0.2-2.3,0.4-2.7,1.5v0.2c0,0.2,0,0.2,0,0.2v0.2C721.6,195.1,722.1,196.2,723.3,196.6z"></path><path d="M697.2,282.3c0.2,0,0.4,0,0.6,0c1,0,1.9-0.8,2.1-1.5v-0.2v-0.2c0.2-1.1-0.4-2.3-1.5-2.7c-1.1-0.2-2.3,0.4-2.7,1.5v0.2v0.2 C695.4,280.7,696,281.9,697.2,282.3z"></path><path d="M712.8,230.8c0.2,0,0.4,0,0.6,0c1,0,1.9-0.6,2.1-1.5v-0.2v-0.2c0.2-1.1-0.4-2.3-1.5-2.7c-1.1-0.2-2.3,0.4-2.7,1.5v0.2v0.2 C711.1,229.2,711.7,230.4,712.8,230.8z"></path><path d="M692,299.3c0.2,0,0.4,0,0.6,0c1,0,1.7-0.6,2.1-1.3v-0.2c0-0.2,0-0.2,0-0.2v-0.2c0.2-1.1-0.4-2.3-1.5-2.7 c-1.1-0.2-2.3,0.4-2.7,1.5v0.2v0.2C690.3,297.7,690.9,298.9,692,299.3z"></path><path d="M707.6,247.9c0.2,0,0.4,0,0.6,0c1,0,1.7-0.6,2.1-1.5v-0.2V246c0.2-1.1-0.4-2.3-1.5-2.7c-1.1-0.2-2.3,0.4-2.7,1.5v0.2v0.2 C705.9,246.4,706.5,247.6,707.6,247.9z"></path><path d="M702.5,265.1c0.2,0,0.4,0,0.6,0c0.9,0,1.7-0.6,2.1-1.5v-0.2c0-0.2,0-0.2,0-0.2V263c0.2-1.1-0.4-2.3-1.5-2.7 c-1.1-0.2-2.3,0.4-2.7,1.5v0.2c0,0.2,0,0.2,0,0.2v0.2C700.8,263.6,701.4,264.7,702.5,265.1z"></path><path d="M686.9,316.4c0.2,0,0.4,0,0.6,0c1,0,1.7-0.6,2.1-1.3v-0.2c0-0.2,0-0.2,0-0.2v-0.2c0.2-1.1-0.4-2.3-1.5-2.7 c-1.1-0.2-2.3,0.4-2.7,1.5v0.2v0.2C685.1,314.9,685.7,316,686.9,316.4z"></path><path d="M744.1,127.9c0.2,0,0.4,0,0.6,0c1,0,1.9-0.6,2.1-1.3v-0.2c0-0.2,0-0.2,0-0.2V126c0.2-1.1-0.4-2.3-1.5-2.7 c-1.1-0.2-2.3,0.4-2.7,1.5v0.2v0.2C742.4,126.4,742.9,127.6,744.1,127.9z"></path><path d="M738.9,145.1c0.2,0,0.4,0,0.6,0c1,0,1.7-0.6,2.1-1.5v-0.2v-0.2c0.2-1.1-0.4-2.3-1.5-2.7c-1.1-0.2-2.3,0.4-2.7,1.5v0.2v0.2 C737.2,143.6,737.8,144.7,738.9,145.1z"></path><path d="M749.4,111c0.2,0,0.4,0,0.6,0c1,0,1.7-0.8,2.1-1.7v-0.2v-0.2c0.2-1.1-0.4-2.5-1.5-2.7c-1.1-0.2-2.3,0.4-2.7,1.5v0.2 c0,0.2,0,0.2,0,0.2v0.2C747.7,109.4,748.3,110.6,749.4,111z"></path><path d="M676.4,350.8c0.2,0,0.4,0,0.6,0c1,0,1.7-0.6,2.1-1.1v-0.2c0-0.2,0-0.2,0-0.2c0-0.2,0-0.2,0-0.2v-0.2 c0.2-1.1-0.4-2.3-1.5-2.7c-1.1-0.2-2.3,0.4-2.7,1.5v0.2v0.2C674.6,349.2,675.2,350.4,676.4,350.8z"></path><path d="M681.5,333.6c0.2,0,0.4,0,0.6,0c0.9,0,1.9-0.6,2.1-1.7v-0.2v-0.2c0.2-1.1-0.4-2.3-1.5-2.7c-1.1-0.2-2.3,0.4-2.7,1.5v0.2 c0,0.2,0,0.2,0,0.2v0.2C679.8,332.1,680.4,333.2,681.5,333.6z"></path><path d="M886.8,473h-0.2c-0.2,0-0.2,0-0.2,0h-0.2c-1.3,0-2.1,1.1-1.9,2.3c0.2,1.1,1.1,1.9,2.3,1.9h0.2h0.2h0.2 c1.1,0,1.9-1.1,1.9-2.3C889.1,473.8,887.9,472.9,886.8,473z"></path><path d="M1260.3,435.8h-0.2c-0.2,0-0.2,0-0.2,0h-0.2c-1.3,0-2.1,1.1-1.9,2.3c0.2,1.1,1.1,1.9,2.3,1.9c0,0,0,0,0.2,0h0.2h0.2 c1.1,0,2.1-1.1,1.9-2.3C1262.6,436.6,1261.4,435.7,1260.3,435.8z"></path><path d="M1242.4,437.6h-0.2c-0.2,0-0.2,0-0.2,0h-0.2c-1.3,0-2.1,1.1-1.9,2.3c0.2,1.1,1.1,1.9,2.3,1.9c0.2,0,0.2,0,0.2,0h0.2h0.2 c1.1,0,1.9-1.1,1.9-2.3C1244.6,438.3,1243.5,437.4,1242.4,437.6z"></path><path d="M1206.9,441.2h-0.2c-0.2,0-0.2,0-0.2,0h-0.2c-1.3,0-2.1,1.1-1.9,2.3c0.2,1.1,1.1,1.9,2.3,1.9h0.2h0.2h0.2 c1.1,0,1.9-1.1,1.9-2.3C1209.2,441.9,1208,441,1206.9,441.2z"></path><path d="M1278,434.1h-0.2c-0.2,0-0.2,0-0.2,0h-0.2c-1.3,0-2.1,1.1-1.9,2.3c0.2,1.1,1.1,1.9,2.3,1.9h0.2h0.2h0.2 c1.1,0,1.9-1.1,1.9-2.3C1280.3,434.9,1279.2,433.9,1278,434.1z"></path><path d="M869,479h0.2h0.2c1.1,0,2.1-1.1,1.9-2.3c0-1.1-1.1-2.1-2.3-1.9h-0.2c-0.2,0-0.2,0-0.2,0h-0.2c-1.3,0-2.1,1.1-1.9,2.3 c0.2,1.1,1.1,1.9,2.3,1.9C868.8,479,868.8,479,869,479z"></path><path d="M904.5,471.3h-0.2c-0.2,0-0.2,0-0.2,0h-0.2c-1.3,0-2.1,1.1-1.9,2.3c0.2,1.1,1.1,1.9,2.3,1.9h0.2h0.2h0.2 c1.1,0,2.1-1.1,1.9-2.3C906.8,472.1,905.7,471.1,904.5,471.3z"></path><path d="M1349.2,427.1h-0.2c-0.2,0-0.2,0-0.2,0h-0.2c-1.3,0-2.1,1.1-1.9,2.3c0.2,1.1,1.1,1.9,2.3,1.9h0.2h0.2h0.2 c1.1,0,1.9-1.1,1.9-2.3C1351.5,427.8,1350.3,426.9,1349.2,427.1z"></path><path d="M1295.8,432.4h-0.2c-0.2,0-0.2,0-0.2,0h-0.2c-1.3,0-2.1,1.1-1.9,2.3c0.2,1.1,1.1,1.9,2.3,1.9h0.2h0.2h0.2 c1.1,0,2.1-1.1,1.9-2.3C1298.1,433.2,1296.9,432.2,1295.8,432.4z"></path><path d="M1313.5,430.5h-0.2c-0.2,0-0.2,0-0.2,0h-0.2c-1.3,0-2.1,1.1-1.9,2.3c0.2,1.1,1.1,1.9,2.3,1.9c0.2,0,0.2,0,0.2,0h0.2h0.2 c1.1,0,2.1-1.1,1.9-2.3C1315.8,431.3,1314.7,430.3,1313.5,430.5z"></path><path d="M1331.3,428.8h-0.2h-0.2c-1.3,0-2.1,1.1-1.9,2.3c0.2,1.1,1.1,1.9,2.3,1.9h0.2h0.2c1.1,0,2.1-1.1,1.9-2.3 C1333.5,429.5,1332.4,428.6,1331.3,428.8z"></path><path d="M1224.6,439.5h-0.2c-0.2,0-0.2,0-0.2,0h-0.2c-1.3,0-2.1,1.1-1.9,2.3c0.2,1.1,1.1,1.9,2.3,1.9c0.2,0,0.2,0,0.2,0h0.2h0.2 c1.1,0,2.1-1.1,1.9-2.3C1226.9,440.2,1225.8,439.3,1224.6,439.5z"></path><path d="M1100.2,451.9h-0.2c-0.2,0-0.2,0-0.2,0h-0.2c-1.3,0-2.1,1.1-1.9,2.3c0.2,1.1,1.1,1.9,2.3,1.9c0,0,0,0,0.2,0h0.2h0.2 c1.1,0,2.1-1.1,1.9-2.3C1102.5,452.6,1101.4,451.7,1100.2,451.9z"></path><path d="M1118,450h-0.2c-0.2,0-0.2,0-0.2,0h-0.2c-1.3,0-2.1,1.1-1.9,2.3c0.2,1.1,1.1,1.9,2.3,1.9h0.2h0.2h0.2 c1.1,0,2.1-1.1,1.9-2.3C1120.3,450.7,1119.1,449.8,1118,450z"></path><path d="M1082.3,453.6h-0.2c-0.2,0-0.2,0-0.2,0h-0.2c-1.3,0-2.1,1.1-1.9,2.3c0.2,1.1,1.1,1.9,2.3,1.9c0.2,0,0.2,0,0.2,0h0.2h0.2 c1.1,0,1.9-1.1,1.9-2.3C1084.6,454.3,1083.4,453.4,1082.3,453.6z"></path><path d="M1135.5,448.2h-0.2h-0.2c-1.3,0-2.1,1.1-1.9,2.3c0.2,1.1,1.1,1.9,2.3,1.9h0.2h0.2c1.1,0,1.9-1.1,1.9-2.3 C1137.8,449,1136.7,448.1,1135.5,448.2z"></path><path d="M1153.5,446.5h-0.2c-0.2,0-0.2,0-0.2,0h-0.2c-1.3,0-2.1,1.1-1.9,2.3c0.2,1.1,1.1,1.9,2.3,1.9c0.2,0,0.2,0,0.2,0h0.2h0.2 c1.1,0,2.1-1.1,1.9-2.3C1155.7,447.3,1154.6,446.3,1153.5,446.5z"></path><path d="M1189.1,442.9h-0.2c-0.2,0-0.2,0-0.2,0h-0.2c-1.3,0-2.1,1.1-1.9,2.3c0.2,1.1,1.1,1.9,2.3,1.9h0.2h0.2h0.2 c1.1,0,2.1-1.1,1.9-2.3C1191.4,443.7,1190.3,442.7,1189.1,442.9z"></path><path d="M1171.2,444.8h-0.2h-0.2c-1.3,0-2.1,1.1-1.9,2.3c0.2,1.1,1.1,1.9,2.3,1.9h0.2h0.2c1.1,0,2.1-1.1,1.9-2.3 C1173.5,445.6,1172.3,444.6,1171.2,444.8z"></path><path d="M1064.6,455.3h-0.2c-0.2,0-0.2,0-0.2,0h-0.2c-1.3,0-2.1,1.1-1.9,2.3c0.2,1.1,1.1,1.9,2.3,1.9c0.2,0,0.2,0,0.2,0h0.2h0.2 c1.1,0,2.1-1.1,1.9-2.3C1066.8,456.1,1065.7,455.1,1064.6,455.3z"></path><path d="M940,467.7h-0.2h-0.2c-1.3,0-2.1,1.1-1.9,2.3c0.2,1.1,1.1,1.9,2.3,1.9h0.2h0.2c1.1,0,1.9-1.1,1.9-2.3 C942.3,468.5,941.1,467.5,940,467.7z"></path><path d="M957.9,466h-0.2c-0.2,0-0.2,0-0.2,0h-0.2c-1.3,0-2.1,1.1-1.9,2.3c0.2,1.1,1.1,1.9,2.3,1.9h0.2h0.2h0.2 c1.1,0,1.9-1.1,1.9-2.3C960.2,466.7,959.1,465.8,957.9,466z"></path><path d="M975.5,464.3h-0.2h-0.2c-1.3,0-2.1,1.1-1.9,2.3c0.2,1.1,1.1,1.9,2.3,1.9h0.2h0.2c1.1,0,2.1-1.1,1.9-2.3 C977.8,465,976.6,464.1,975.5,464.3z"></path><path d="M922.2,469.6h-0.2c-0.2,0-0.2,0-0.2,0h-0.2c-1.3,0-2.1,1.1-1.9,2.3c0.2,1.1,1.1,1.9,2.3,1.9c0.2,0,0.2,0,0.2,0h0.2h0.2 c1.1,0,1.9-1.1,1.9-2.3C924.5,470.4,923.4,469.4,922.2,469.6z"></path><path d="M1011.1,460.6h-0.2c-0.2,0-0.2,0-0.2,0h-0.2c-1.3,0-2.1,1.1-1.9,2.3c0.2,1.1,1.1,1.9,2.3,1.9c0.2,0,0.2,0,0.2,0h0.2h0.2 c1.1,0,2.1-1.1,1.9-2.3C1013.4,461.4,1012.3,460.5,1011.1,460.6z"></path><path d="M1029.1,458.9h-0.2c-0.2,0-0.2,0-0.2,0h-0.2c-1.3,0-2.1,1.1-1.9,2.3c0.2,1.1,1.1,1.9,2.3,1.9c0,0,0,0,0.2,0h0.2h0.2 c1.1,0,2.1-1.1,1.9-2.3C1031.4,459.7,1030.2,458.7,1029.1,458.9z"></path><path d="M993.4,462.4h-0.2c-0.2,0-0.2,0-0.2,0h-0.2c-1.3,0-2.1,1.1-1.9,2.3c0.2,1.1,1.1,1.9,2.3,1.9c0.2,0,0.2,0,0.2,0h0.2h0.2 c1.1,0,2.1-1.1,1.9-2.3C995.7,463.1,994.5,462.2,993.4,462.4z"></path><path d="M1046.8,457.2h-0.2c-0.2,0-0.2,0-0.2,0h-0.2c-1.3,0-2.1,1.1-1.9,2.3c0.2,1.1,1.1,1.9,2.3,1.9h0.2h0.2h0.2 c1.1,0,1.9-1.1,1.9-2.3C1049.1,458,1048,457,1046.8,457.2z"></path><path d="M1326.1,208.8c2.5,0,4.8-1.1,7.3-3.4c2.7-2.7,5.3-6.3,7.8-11.4c8.2-16.2,12.8-41.6,12.8-69.4c0-27.3-4.8-53.2-12.8-69.2 c-2.5-5.3-5-9-7.8-11.4c-2.5-2.1-4.8-3.2-7.3-3.2c-2.9,0-5.2,1.7-7.2,3.4c-2.7,2.7-5.3,6.3-7.8,11.4 c-8.2,16.2-12.8,41.6-12.8,69.4c0,27.3,4.8,53.2,12.8,69.2c2.3,5,5,8.8,7.8,11.4C1321.4,207.7,1323.6,208.8,1326.1,208.8z M1300.6,124.7c0-27.5,4.4-52.5,12.4-68.3c2.5-4.8,5-8.4,7.4-10.7c1.5-1.5,3.6-2.9,5.7-2.9c1.9,0,3.6,0.8,5.7,2.9 c2.7,2.1,5,5.7,7.4,10.7c7.8,15.6,12.4,41.2,12.4,68.3c0,27.5-4.4,52.5-12.4,68.3c-2.5,4.8-5,8.4-7.4,10.7c-4,3.8-7.3,3.8-11.4,0 c-2.7-2.3-5.2-6.1-7.4-10.7C1305.1,177.3,1300.6,151.8,1300.6,124.7z"></path><path d="M1326.1,214c18.1,0,33-40.1,33-89.3s-14.7-89.3-33-89.3s-33,40.1-33,89.3S1308,214,1326.1,214z M1326.1,37.7 c16.6,0,30.7,39.9,30.7,87s-14.1,87-30.7,87s-30.7-39.9-30.7-87S1309.5,37.7,1326.1,37.7z"></path><path d="M1329,187.8l0.4-0.4c1.7-1.7,3.2-4.6,4.8-8.4c5.2-12.2,8-31.7,8-53s-2.9-40.8-8-53c-1.3-3.4-3.1-6.3-4.8-8.2 c-0.8-1.1-1.9-2.1-3.2-2.1c-1.3,0-2.5,1.1-3.2,2.1c-1.7,1.7-3.2,4.6-4.8,8.4c-5.2,12.2-8,31.7-8,53s2.9,40.8,8,53 c1.3,3.4,3.1,6.3,4.8,8.2c0.8,1.1,1.7,2.1,3.2,2.1C1327.5,189.6,1328.2,188.8,1329,187.8z M1324.4,186.1c-1.7-1.7-3.1-4.4-4.4-7.6 c-5-11.8-8-31.5-8-52.3c0-20.8,3.1-40.4,8-52.3c1.3-3.6,2.9-6.3,4.4-7.8c0.6-0.8,1.1-1.3,1.7-1.3c0.6,0,1.1,0.6,1.7,1.5 c1.7,1.7,3.1,4.4,4.4,7.6c5,11.8,8,31.5,8,52.3c0,20.8-3.1,40.4-8,52.3c-1.5,3.6-2.9,6.1-4.4,7.6l-0.4,0.4c-0.8,0.8-1,1-1.3,1 C1325.6,187.5,1325,186.9,1324.4,186.1z"></path><path d="M1347.7,126c0-38.7-9.3-68.9-21.6-68.9c-12.2,0-21.6,30.1-21.6,68.9c0,38.7,9.5,68.9,21.6,68.9 C1338.2,194.9,1347.7,164.8,1347.7,126z M1306.9,126c0-39.9,9.9-66.6,19.3-66.6c9.3,0,19.3,26.7,19.3,66.6s-9.9,66.6-19.3,66.6 C1316.8,192.6,1306.9,165.9,1306.9,126z"></path><path d="M1326.9,160.6c0.8-1,1.3-2.3,1.7-3.6c2.5-7.6,4-19.3,4-32.4s-1.3-24.8-4-32.4c-0.6-1.3-1.1-2.7-1.7-3.6 c-0.2-0.4-0.6-0.6-1-0.6c-0.4,0.2-0.8,0.4-1,0.8c-0.2,0.4-0.4,0.8-0.6,1.1c-0.2,0.8-0.8,1.5-1,2.5c-2.5,7.6-4,19.3-4,32.4 c0,13.2,1.3,24.8,4,32.4c0.6,1.3,1.1,2.7,1.7,3.6c0.2,0.4,0.6,0.6,1,0.6C1326.5,161.3,1326.9,161.1,1326.9,160.6z M1325.6,156.4 c-2.5-7.2-4-18.9-4-31.7c0-12.8,1.5-24.2,4-31.7c0.2-0.6,0.4-1,0.6-1.3c0.2,0.4,0.4,1,0.6,1.3c2.5,7.2,4,18.9,4,31.7 c0,12.8-1.5,24.4-4,31.7c-0.2,0.4-0.4,1-0.6,1.3C1326,157.3,1325.8,156.7,1325.6,156.4z"></path><path d="M1337.6,124.7c0-20.8-4-42.9-11.4-42.9c-7.6,0-11.6,22.1-11.6,42.9c0,20.8,4.2,42.9,11.6,42.9 C1333.6,167.6,1337.6,145.5,1337.6,124.7z M1316.8,124.7c0-23.3,5-40.6,9.3-40.6c4.4,0,9.2,16.8,9.2,40.6 c0,23.8-4.8,40.6-9.2,40.6C1321.8,165.3,1316.8,148,1316.8,124.7z"></path><path d="M888.5,142.1l15.6,0.6l-9.7,22.7c-0.8,1.9-0.2,4.2,1.5,5.3c1.7,1.1,4,1,5.5-0.6l25.4-26.5l39.5,1.3 c7.8,0.2,14.1-5.9,14.1-13.7c0.2-0.2,0.4-53,0.4-53c0-7.6-6.3-14.1-13.9-14.3c-0.2,0-0.2,0-0.4,0l-78.2,4.6 c-7.6-0.2-13.9,5.9-13.9,13.7l0.2,45.6C874.6,135.4,880.8,141.9,888.5,142.1z M888.5,72.6l78.4-4.6c5.3,0.2,9.7,4.8,9.7,10.1 l-0.4,52.8c0,5.3-4.4,9.5-9.7,9.3l-41.4-1.5l-26.7,28l12.2-28.4l-21.9-0.8c-5.3-0.2-9.7-4.8-9.7-10.1L878.7,82 C878.7,76.6,883.1,72.4,888.5,72.6z"></path><path d="M970.5,199.7c-1.1,5.2-1.1,11.4,0.4,17c1,4,2.9,7.8,5.5,11.6c0.4,0.6,0.8,1,1.3,1.9c0.4,0.4,1,1.1,1.7,2.3 c2.5,3.6,3.2,4.6,4.2,6.1c1,1.5,1.5,3.2,2.1,4.8v0.2c0.4,1.5,0.6,2.5,0.8,3.8v0.8c0,1.9,0,1.9,18.1,5c0.2,0,0.2,0,0.4,0 c0.4,0,1,0,1.3-0.6c0.6-0.4,0.8-1,0.8-1.5v-1c0.2-3.6,1.3-6.1,4.2-9.2l2.5-2.5c2.3-2.3,2.5-2.5,3.4-3.6c2.5-2.7,4.2-5.7,5.3-9.3 c1.5-5.2,1.7-11.3,0.4-17c-1.3-6.7-4.6-13-9.2-17.9c-5.2-5.7-11.6-9.2-18.5-9.7C983.5,179.6,973.4,187.1,970.5,199.7z M994.7,185.2c5.7,0.6,11.4,3.6,15.8,8.6c4.2,4.4,7.1,9.9,8.4,16c1.1,5,1.1,10.3-0.4,14.9c-1,2.9-2.5,5.5-4.6,7.8 c-0.8,1-1,1.1-3.2,3.4l-2.5,2.5c-3.1,3.4-4.8,6.5-5.2,10.5c-4.4-0.8-10.1-1.7-12.6-2.3c-0.2-1.3-0.4-2.5-1.5-3.6v-0.2v-0.2 c-0.6-1.7-1.3-3.8-2.5-5.5c-1-1.7-1.7-2.9-4.2-6.3c-0.8-1.1-1.3-1.9-1.7-2.5c-0.6-0.8-0.8-1.1-1.1-1.7c-2.5-3.6-4-7.1-5-10.5 c-1.3-5-1.3-10.5-0.4-15.1C976.6,190.5,984.8,184.2,994.7,185.2z"></path><path d="M1006.9,256.7c0-0.8-0.4-1.3-1-1.7l-0.4-0.2l-8.2-1.5c-6.9-1.5-8.6-1.7-8.8-1.7c-0.9,0-1.5,0.8-1.3,1.7 c0.2,0.8,0.8,1.3,1.5,1.7c0.2,0,2.9,0.6,8.6,1.7l8.2,1.5l0.4-0.2C1006.7,257.9,1006.9,257.5,1006.9,256.7z"></path><path d="M1006.2,259.6c-0.6-0.6,0-0.4-9-2.1c-4.6-0.6-8.4-1.3-8.4-1.3c-0.4,0-0.6,0-1,0.2c-0.4,0.2-0.6,0.6-0.6,1.1 c0,0.8,0.4,1.3,1,1.7l0.4,0.2l16.8,3.1l0.4-0.2c0.6-0.2,1-0.8,1-1.3C1006.7,260.3,1006.5,260,1006.2,259.6z"></path><path d="M1006.2,264.3c-0.6-0.6,0-0.4-9-2.1c-4.6-0.8-8.4-1.3-8.4-1.3c-0.4,0-0.6,0-1,0.2s-0.6,0.6-0.6,1.1c0,0.8,0.4,1.3,1,1.7 l0.4,0.2l16.8,3.1l0.4-0.2c0.6-0.2,1-0.8,1-1.3C1006.7,265.1,1006.5,264.7,1006.2,264.3z"></path><path d="M999.6,272.7v-2l5.8,1l0.4-0.2c0.6-0.2,1-0.8,1-1.3c0-0.6-0.2-1-0.6-1.3c-0.6-0.6,0-0.4-9-2.1c-4.6-0.6-8.4-1.3-8.4-1.3 c-0.4,0-0.6,0-1,0.2c-0.4,0.2-0.6,0.6-0.6,1.1c0,0.8,0.4,1.3,1,1.7l0.4,0.2l5.7,1v2L999.6,272.7z"></path><path d="M997,173c1.3,0,2.3-1,2.3-2.3v-12c0-1.1-1.1-2.3-2.3-2.3c-1.1,0-2.3,1-2.3,2.3v12C994.7,171.8,995.7,173,997,173z"></path><path d="M967,163.2c-0.6-1.1-2.1-1.3-3.1-0.6c-1.1,0.6-1.3,2.1-0.6,3.1l7.6,10.5c0.4,0.6,1,1,1.7,1c0.4,0,1-0.2,1.3-0.4 c1.1-0.6,1.3-2.1,0.6-3.1L967,163.2z"></path><path d="M960.6,193l-11.8-4.2c-1-0.4-2.1,0.2-2.5,1.1c-0.4,1,0.2,2.1,1.1,2.5l11.8,4.2c0.2,0.2,0.4,0.2,0.6,0.2 c0.8,0,1.5-0.4,1.9-1.3C962.1,194.5,961.5,193.4,960.6,193z"></path><path d="M952,225.8c0.4,0.8,1.1,1.3,1.9,1.3c0.2,0,0.6,0,0.8-0.2l10.3-4c1-0.4,1.5-1.5,1.1-2.7c-0.4-1-1.5-1.5-2.7-1.1l-10.3,4 C952.2,223.5,951.6,224.7,952,225.8z"></path><path d="M1022.8,185.7l7.6-7.8c1-0.8,1-2.3,0-3.1c-0.8-1-2.3-1-3.1,0l-7.6,7.8c-1,0.8-1,2.3,0,3.1c0.4,0.4,1,0.6,1.5,0.6 S1022.4,185.9,1022.8,185.7z"></path><path d="M1046.1,206.9l-11.8-0.2c-1,0-1.9,0.8-1.9,1.9c0,1.1,0.8,2.1,1.9,2.1l11.8,0.2c1.1,0,1.9-0.8,1.9-1.9 C1048,207.9,1047.2,206.9,1046.1,206.9z"></path><path d="M1027.9,232.3c-0.8,0.8-0.6,2.1,0.4,2.9l10.3,7.8c0.4,0.2,1,0.4,1.3,0.4c0.6,0,1.3-0.2,1.5-0.8c0.8-0.8,0.6-2.1-0.4-2.9 l-10.3-7.8C1030,231.1,1028.6,231.5,1027.9,232.3z"></path><path d="M924.9,207.3c0,0.6,0.2,1.1,0.6,1.5c0.4,0.4,1,0.6,1.5,0.6c1.1,0,2.1-1,2.1-2.3v-0.2c0-1.1-1-2.1-2.1-2.1 c-1.1,0-2.1,1-2.1,2.1V207.3z"></path><path d="M929.1,198.1v-0.4c0-0.6-0.2-1.1-0.6-1.5s-1-0.6-1.5-0.6c-1.1,0-2.1,1-2.1,2.1v0.2c0,0.2,0,0.2,0,0.2 c0,0.6,0.2,1.1,0.6,1.5c0.4,0.4,1,0.6,1.5,0.6C928.1,200.2,929.3,199.3,929.1,198.1z"></path><path d="M941.9,212.1c0-0.6-0.2-1.1-0.6-1.5c-0.4-0.6-1-0.8-1.5-0.8h-0.2c-1.1,0-2.3,1-2.3,2.1c0,0.6,0.2,1.1,0.6,1.5 c0.4,0.6,1,0.8,1.5,0.8h0.2c0.1,0,0.2,0,0.2,0c0,0,0,0,0.1,0C941.1,214.2,942.1,213.4,941.9,212.1z"></path><path d="M930.6,214.2h0.2c0.6,0,1.1-0.4,1.5-0.8c0.4-0.4,0.6-1,0.6-1.5c0-1.1-1-2.1-2.1-2.1h-0.2c-0.6,0-1.1,0.4-1.5,0.8 c-0.4,0.4-0.6,1-0.6,1.5C928.5,213.2,929.5,214.2,930.6,214.2z"></path><path d="M948.7,210.7c-1.1-0.2-2.1,0.8-2.3,1.9c-0.2,0.6,0,1.1,0.4,1.5c0.4,0.4,1,0.8,1.5,0.8h0.2c0.2,0,0.2,0,0.2,0h0.2 c1.1,0,2.1-0.8,1.9-1.9c0.2-0.6,0-1.1-0.4-1.5c-0.4-0.4-1-0.8-1.5-0.8H948.7z"></path><path d="M927.2,159.8c-1.1,0-2.1,1-2.1,2.1c0,0.6,0.2,1.1,0.6,1.5c0.4,0.4,1,0.6,1.5,0.6c1.1,0,2.1-1,2.1-2.1 C929.3,160.8,928.3,159.8,927.2,159.8z"></path><path d="M929.3,170.9v-0.2c0-0.6-0.2-1.1-0.6-1.5c-0.4-0.4-1-0.6-1.5-0.6c-1.1,0-2.1,1-2.1,2.1v0.2c0,0.2,0,0.2,0,0.2 c0,0.6,0.2,1.1,0.6,1.5c0.4,0.4,1,0.6,1.5,0.6c1.1,0,2.1-1,2.1-2.1C929.3,170.9,929.3,170.9,929.3,170.9z"></path><path d="M925.1,179.6v0.2c0,0.2,0,0.2,0,0.2c0,0.6,0.2,1.1,0.6,1.5c0.4,0.4,1,0.6,1.5,0.6c1.1,0,2.1-1,2.1-2.1c0-0.2,0-0.2,0-0.2 v-0.2c0-0.6-0.2-1.1-0.6-1.5c-0.4-0.4-1-0.6-1.5-0.6C926,177.5,925.1,178.5,925.1,179.6z"></path><path d="M1101.9,229.4h-0.2c-1.1-0.2-2.3,0.8-2.5,1.9c-0.2,0.6,0,1.1,0.4,1.5s1,0.8,1.5,0.8h0.2c0.2,0,0.2,0,0.2,0h0.2 c1.1,0,2.1-0.8,2.3-1.7c0.2-1.3-0.8-2.3-1.9-2.5H1101.9z"></path><path d="M1049.9,226.2c0.2-1.1-0.8-2.1-1.9-2.3c-1.1-0.2-2.3,0.8-2.3,1.9c-0.2,1.1,0.8,2.1,2.1,2.3 C1048.9,228.1,1049.9,227.3,1049.9,226.2z"></path><path d="M1151,228.1v0.2c0,0.6,0.2,1,0.6,1.5c0.4,0.6,1,0.8,1.5,0.8c1.3,0,2.3-1,2.1-2.1v-0.4c0-0.6-0.2-1.1-0.6-1.5 c-0.4-0.6-1-0.8-1.5-0.8c-1.1,0-2.1,1-2.1,2.1C1151,228.1,1151,228.1,1151,228.1z"></path><path d="M1083.8,227.3c-0.2,0-0.2,0-0.2,0c-1.1-0.2-2.1,0.8-2.3,1.9c-0.2,1.1,0.8,2.1,1.9,2.3c0.2,0,0.2,0,0.2,0 c0.2,0,0.2,0,0.2,0h0.2c1.1,0,1.9-0.8,2.1-1.9c0.2-0.6,0-1.1-0.4-1.5c-0.4-0.4-1-0.8-1.5-0.8 C1083.8,227.3,1083.8,227.3,1083.8,227.3z"></path><path d="M1110.9,230.6c-0.2,0-0.2,0-0.2,0h-0.2c-1.1-0.2-2.3,0.8-2.5,1.9c-0.2,0.6,0,1.1,0.4,1.5c0.4,0.4,1,0.8,1.5,0.8h0.2 c0.2,0,0.2,0,0.2,0c0.2,0,0.2,0,0.4,0c1.1,0,2.1-0.8,1.9-1.9c0.2-0.6,0-1.1-0.4-1.5C1112.1,231,1111.5,230.6,1110.9,230.6z"></path><path d="M1145.6,240.5h0.2c0.2,0,0.2,0,0.2,0c0.2,0,0.2,0,0.4,0c1.1,0,2.1-0.8,2.1-1.9c0.2-1.1-0.6-2.3-1.7-2.5 c-0.2,0-0.2,0-0.2,0c-0.2,0-0.2,0-0.2,0c-1.1-0.2-2.3,0.6-2.5,1.7c0,0.6,0.2,1.1,0.4,1.7C1144.5,240.1,1145.1,240.5,1145.6,240.5z "></path><path d="M1093,228.3h-0.2c-1.3-0.2-2.3,0.8-2.5,1.9c-0.2,0.6,0,1.1,0.4,1.5c0.4,0.4,1,0.8,1.5,0.8h0.2c0.2,0,0.2,0,0.2,0h0.2 c1.1,0,2.1-0.8,2.3-1.7c0.2-1.3-0.8-2.3-1.9-2.5C1093,228.3,1093,228.3,1093,228.3z"></path><path d="M1056.5,228.9h0.2c1.1,0,2.1-0.8,2.1-1.9c0.2-1.1-0.8-2.3-1.9-2.3c-0.2,0-0.2,0-0.2,0c-0.2,0-0.2,0-0.2,0 c-1.1-0.2-2.1,0.8-2.3,1.9c0,0.6,0.2,1.1,0.6,1.5c0.4,0.4,1,0.8,1.5,0.8H1056.5z"></path><path d="M1119.7,236.1c1.1,0,1.9-0.8,2.1-2.1c0-0.6,0-1.1-0.4-1.5c-0.4-0.4-1-0.8-1.5-0.8c-0.2,0-0.2,0-0.2,0 c-1.1,0-2.3,0.8-2.5,1.9c0,0.6,0,1.1,0.4,1.5c0.4,0.4,1,0.8,1.5,0.8h0.2v0.2C1119.5,236.1,1119.5,236.1,1119.7,236.1z"></path><path d="M1137.1,239h0.2c0.2,0,0.2,0,0.4,0c1,0,1.9-0.8,2.1-1.7c0.2-1.1-0.6-2.3-1.7-2.5c-0.2,0-0.2,0-0.2,0 c-1.1-0.2-2.3,0.6-2.5,1.7C1135.1,237.6,1135.9,238.8,1137.1,239z"></path><path d="M1127.9,237.4c0.2,0,0.2,0,0.2,0c0.2,0,0.2,0,0.2,0c0.2,0,0.2,0,0.4,0c1.1,0,1.9-0.8,1.9-1.7c0.2-1.1-0.6-2.3-1.7-2.5 c-0.2,0-0.2,0-0.2,0c-1.1-0.4-2.3,0.6-2.5,1.7c0,0.6,0,1.1,0.4,1.5C1126.7,237.1,1127.3,237.4,1127.9,237.4z"></path><path d="M1153.8,203.3c1.1,0,2.1-1,2.1-2.1V201v-0.2c0-0.6-0.2-1.1-0.6-1.5c-0.4-0.4-1-0.6-1.5-0.6c-1.1,0-2.1,1-2.1,2.1v0.2 c0,0.6,0.2,1.1,0.6,1.5C1152.7,203.1,1153.3,203.3,1153.8,203.3z"></path><path d="M1153.5,221.4c1.1,0,2.1-1,2.1-2.1v-0.2c0-0.2,0-0.2,0-0.2c0-0.2,0-0.2,0-0.2c0-0.6-0.2-1.1-0.6-1.5 c-0.4-0.6-1-0.8-1.5-0.8c-1.1,0-2.1,1-2.1,2.1c0,0.2,0,0.2,0,0.2c0,0.2,0,0.2,0,0.2v0.2C1151.2,220.5,1152.1,221.4,1153.5,221.4z"></path><path d="M1150.8,237.1v0.2c0,1.3,0.8,2.3,2.1,2.3c1.1,0,2.1-1,2.1-2.1v-0.2c0-0.2,0-0.2,0-0.2c0-0.6-0.2-1-0.6-1.5 c-0.4-0.6-1-0.8-1.5-0.8c-1.1,0-2.1,1-2.1,2.1C1150.8,237.1,1150.8,237.1,1150.8,237.1z"></path><path d="M1065.4,229.6C1065.4,229.6,1065.4,229.6,1065.4,229.6c0.3,0,0.3,0,0.3,0h0.2c1,0,1.9-0.8,2.1-1.9c0.2-0.6,0-1.1-0.4-1.5 s-1-0.8-1.5-0.8c-0.2,0-0.2,0-0.2,0h-0.2c-1.1-0.2-2.1,0.8-2.3,1.9c-0.2,1.1,0.8,2.3,1.9,2.3 C1065.4,229.6,1065.4,229.6,1065.4,229.6z"></path><path d="M1199.2,92.6h0.2c0,0,0,0,0,0c0,0,0,0,0.1,0c1.1,0,2.1-0.8,2.1-1.9c0-1.3-1-2.3-2.1-2.3c-0.2,0-0.2,0-0.4,0 c-1.1,0-2.1,1-2.1,2.1c0,0.6,0.2,1.1,0.6,1.5C1198.1,92.5,1198.6,92.6,1199.2,92.6z"></path><path d="M1154.4,91.1c1.1,0,2.1-1,2.1-2.1v-0.2c0-0.2,0-0.2,0-0.2c0-1.1-1-2.1-2.1-2.1c-1.1,0-2.1,1-2.1,2.1c0,0.2,0,0.2,0,0.2V89 C1152.3,90.2,1153.2,91.1,1154.4,91.1z"></path><path d="M1163,91.3c0.2,0,0.2,0,0.2,0h0.2c1.1,0,2.1-1,2.3-2.1c0-1.1-1-2.3-2.1-2.3c-0.2,0-0.4,0-0.4,0c-1.1,0-2.3,1-2.3,2.1 c0,0.6,0.2,1.1,0.6,1.5C1161.8,91.1,1162.4,91.3,1163,91.3z"></path><path d="M1154.4,100.3c1.1,0,2.1-1,2.1-2.1V98c0-0.2,0-0.2,0-0.2c0-1.1-1-2.1-2.1-2.1c-1.1,0-2.1,1-2.1,2.1c0,0.2,0,0.2,0,0.2v0.2 C1152.3,99.3,1153.2,100.3,1154.4,100.3z"></path><path d="M1154.4,108.9c1.1,0,2.1-1,2.1-2.1c0-1.1-1-2.1-2.1-2.1c-1.1,0-2.1,1-2.1,2.1C1152.3,107.9,1153.2,108.9,1154.4,108.9z"></path><path d="M1172.1,91.9h0.2h0.2c1.1,0,2.1-1,2.5-2.1c0-0.6-0.2-1.1-0.6-1.5c-0.4-0.6-1-0.8-1.5-0.8c-0.2,0-0.2,0-0.2,0 c-0.2,0-0.2,0-0.2,0h-0.2c-1.3,0-2.3,1-2.3,2.1C1170,90.7,1171,91.9,1172.1,91.9z"></path><path d="M1244.4,92.3c0.2,0,0.2,0,0.6,0c1.1-0.2,2.1-1.1,2.1-2.3c0-1.1-1-2.1-2.1-2.1h-0.2c-0.2,0-0.2,0-0.2,0h-0.2 c-0.6,0-1.1,0.4-1.5,0.8c-0.4,0.4-0.6,1-0.6,1.5C1242.3,91.3,1243.3,92.3,1244.4,92.3z"></path><path d="M1235.3,92.6c0.1,0,0.1,0,0.1,0c0,0,0,0,0,0c1.1-0.2,2.1-1.1,2.1-2.3c0-1.1-1-2.1-2.1-2.1h-0.2c-1.1,0-2.1,1.1-2.1,2.3 C1233.2,91.7,1234.1,92.6,1235.3,92.6z"></path><path d="M1226.3,92.8c0.1,0,0.1,0,0.1,0c0,0,0,0,0,0c1.1,0,2.1-1,2.1-2.1c0-1.1-1-2.1-2.1-2.1c-0.2,0-0.2,0-0.2,0h-0.2 c-1.1,0-2.1,1-2.1,2.1C1224.2,91.9,1225.2,92.8,1226.3,92.8z"></path><path d="M1190.1,92.5c0.2,0,0.2,0,0.2,0s0,0,0.2,0c1.3,0,2.1-1,2.1-1.9c0-0.6-0.2-1.1-0.6-1.5c-0.4-0.6-1-0.8-1.5-0.8h-0.2h-0.2 c-1.1,0-2.1,1-2.1,2.1c0,0.6,0.2,1.1,0.6,1.5C1188.9,92.3,1189.5,92.5,1190.1,92.5z"></path><path d="M1208.2,92.8h0.2c0,0,0,0,0.1,0c1.1,0,2.3-1,2.1-2.1c0-1.1-1-2.1-2.1-2.1c-0.2,0-0.2,0-0.2,0h-0.2c-1.1,0-2.1,1-2.1,2.1 C1206.1,91.9,1207,92.8,1208.2,92.8z"></path><path d="M1217.3,92.8h0.2h0.2c1.1,0,2.1-1,2.1-2.1c0-1.1-1-2.1-2.1-2.1h-0.2c-0.8,0-1.3,0.2-1.7,0.6c-0.4,0.4-0.6,1-0.6,1.5 c0,0.6,0.2,1.1,0.6,1.5C1216.2,92.6,1216.8,92.8,1217.3,92.8z"></path></g></g></svg>