<svg version="1.1" fill="#29524A" xmlns="http://www.w3.org/2000/svg" xmlns:xlink="http://www.w3.org/1999/xlink" x="0px" y="0px" width="100%" height="auto" viewBox="0 0 1417.3 954.1" style="enable-background:new 0 0 1417.3 954.1;" xml:space="preserve"><g><rect style="fill:rgb(255 255 255 / 0%)" width="1417.3" height="954.1"></rect><path class="svg-fill--primary--opacity" d="M235.6,457v-3.9c-13.8-5.5-30.8-29.2-30.8-55.6V46.4H202c-53.4,35.8-142.6,73.8-170.6,82v4.4h3.3 c41.8,0,52.8,24.2,52.8,59.4v205.3c0,26.4-17.1,50.1-30.8,55.6v3.9H235.6z M323.3,465.8c31.4,0,57.2-25.9,57.2-57.8 c0-31.4-25.9-57.2-57.2-57.2c-31.9,0-57.8,25.9-57.8,57.2C265.5,438.3,291.3,465.8,323.3,465.8z"></path><g><path class="svg-fill--primary" d="M694.4,503.2c17.8,18.2,24.2,42.2,24.4,73.1v131.4l27.8,0.4V561.9C742,523.5,722.8,506.5,694.4,503.2z"></path><path class="svg-fill--primary" d="M723.6,464.5c0.4-37.8-35.5-32.8-29.9-32.8c16.3,0,17.1,17.3,16.5,30.5c-1,22.8-26.9,30.5-26.9,30.5 c5.4,2.3,10.5,2.5,15.9,1C715.3,487.3,723.4,481.5,723.6,464.5z"></path><path class="svg-fill--primary" d="M893.4,489.8c0.4-44.3-37.2-38.6-31.3-38.6c17.1,0,17.8,20.3,17.3,35.7c-1,26.9-28,35.7-28,35.7 c5.4,3.1,10.9,3.3,16.5,1.3C884.6,516.5,893.2,509.7,893.4,489.8z"></path><path class="svg-fill--primary" d="M863.6,537.7c19.6,20.7,28,47.2,26.7,83.6v150.4l30.5,0.4V604.9C915.6,561,894.7,541.6,863.6,537.7z"></path><path class="svg-fill--primary" d="M1030.2,543.5c21.1,22.3,28.6,50.3,28.6,89.4v161.1l32.8,0.6V615.4C1086,568.4,1063.5,547.5,1030.2,543.5z"></path><path class="svg-fill--primary" d="M1063.1,493.6c0.4-47.2-42-40.9-35.3-40.9c19.2,0,20.1,21.7,19.6,38c-1.2,28.6-31.7,38-31.7,38 c5.9,3.1,12.1,3.3,18.6,1.3C1053.4,522.2,1063,514.9,1063.1,493.6z"></path><path class="svg-fill--primary" d="M378.1,419.4c-6.9-1.5-13.8,1.2-20.9,3.6c33.2,0,45.3,42.2,45.3,79v188.2h34.9v-193 C437.4,457,404.7,425.1,378.1,419.4z"></path><path class="svg-fill--primary" d="M349.1,403.7c7.5,5,15.5,6.7,24.2,4.8c20.1-6.5,34.9-22.8,33.6-43.9c-3.5-52.9-41.6-41.2-35.9-41.2 c16.3,0,21.7,23.2,20.7,42.6C390,397.9,349.1,403.7,349.1,403.7z"></path><polygon class="svg-fill--primary" points="539.8,379.3 485.1,420.7 426.8,453.5 436.4,469.3 492.4,429.2 547.1,387.7 "></polygon><path class="svg-fill--primary" d="M1181.2,531.2c18.4,18.4,25.3,41.1,24.9,74.2v133.7l28.6,0.4V590.9C1229.9,551.9,1210.3,534.7,1181.2,531.2z"></path><path class="svg-fill--primary" d="M1212.8,489.6c0.4-37.8-35.5-32.8-29.9-32.8c16.3,0,17.1,17.3,16.5,30.5c-1,22.8-26.9,30.5-26.9,30.5 c5.2,2.3,10.6,2.5,15.9,1C1204.5,512.4,1212.6,506.7,1212.8,489.6z"></path><path class="svg-fill--primary" d="M1341.5,514.3c15.5,15.5,21.3,35.9,21.3,62.9v113.2l24.4,0.2V564.8C1383.2,531.8,1366.5,517.2,1341.5,514.3z"></path><path class="svg-fill--primary" d="M1367.4,479.6c0.4-31.3-31.3-27.1-26.3-27.1c14.4,0,15,14.2,14.6,25.1c-0.8,18.8-23.6,25.1-23.6,25.1 c4.4,2.1,9,2.1,13.8,0.8C1360.1,498.4,1367.2,493.6,1367.4,479.6z"></path><polygon class="svg-fill--primary" points="511.8,502.1 638.4,502.1 638.4,487.9 511.8,490 "></polygon><polygon class="svg-fill--primary" points="1076.6,502.1 1142.2,502.1 1142.4,479.6 1075.5,480.8 "></polygon><polygon class="svg-fill--primary" points="915.8,483.5 913.4,502.3 979,502.3 977.8,482.5 "></polygon><polygon class="svg-fill--primary" points="744.3,502.1 816.1,502.1 816.1,485 744.3,486.1 "></polygon><polygon class="svg-fill--primary" points="1266.2,94.6 1266.2,477.7 1229.7,478.3 1228.4,502.3 1293.4,502.3 1290.5,94.6 "></polygon><polygon class="svg-fill--primary" points="1072.5,271.1 1013.6,308.1 997.3,326.7 1070.4,282 "></polygon><polygon class="svg-fill--primary" points="1041,214.5 1032.3,212.4 998.6,248.3 1013.7,245 "></polygon><polygon class="svg-fill--primary" points="1009.4,283.2 1034.7,272.4 1017.8,248.6 999.4,269 996.7,269.9 1007.7,285.5 "></polygon><path class="svg-fill--primary" d="M1128.6,212.8c7.3-15.5,8.2-28.4,8.2-30.1c-1.9-0.8-14.2-4.2-31.3-2.3 C1097.5,181.1,1125.1,220.2,1128.6,212.8z"></path><path class="svg-fill--primary" d="M1096.5,234.3c9.4-8.1,8.3-16.3,2.1-25.1c-1.2,16.5-11.5,24.4-27.2,21.3 C1077.1,238.3,1086.5,240.2,1096.5,234.3z"></path></g><g><path d="M693.8,499.4c-31.3,0-56.8,28-56.8,62.5v146.2c0,2.1,1.7,3.8,3.8,3.8h105.9c2.1,0,3.8-1.7,3.8-3.8V561.9 C750.6,527.4,725.1,499.4,693.8,499.4z M742.9,704.3h-98.2V561.9c0-30.3,22.1-54.9,49.1-54.9c27.1,0,49.1,24.6,49.1,54.9V704.3z"></path><path d="M660.2,461.6c0,20.3,15.2,36.8,33.6,36.8c18.4,0,33.6-16.5,33.6-36.8c0-20.3-15-37-33.6-37S660.2,441.3,660.2,461.6z M719.7,461.6c0,16.1-11.7,29.2-25.9,29.2c-14.2,0-25.9-13-25.9-29.2c0-16.1,11.5-29.4,25.9-29.4S719.7,445.5,719.7,461.6z"></path><path d="M823.3,488.1c0,23.4,17.3,42.4,38.6,42.4c21.3,0,38.6-19,38.6-42.4c0-23.4-17.3-42.4-38.6-42.4 C840.7,445.7,823.5,464.7,823.3,488.1z M892.7,488.1c0,19.2-13.8,34.7-30.9,34.7c-17.1,0-30.9-15.5-30.9-34.7 c0.2-19.2,14-34.7,30.9-34.7C878.9,453.3,892.7,468.9,892.7,488.1z"></path><path d="M927.3,604.9c0-39.9-29.4-72.3-65.4-72.3c-36.1,0-65.4,32.4-65.4,72.3v170.4c0,2.1,1.7,3.8,3.8,3.8h123.4 c2.1,0,3.8-1.7,3.8-3.8c0-0.4,0-0.8-0.2-1.2V604.9z M919.6,771.4H804.1V604.9c0-35.7,25.9-64.7,57.7-64.7 c31.8,0,57.7,29,57.7,64.7V771.4z"></path><path d="M1029.5,446.4c-22.4,0-40.7,20.1-40.7,44.7c0,24.8,18.2,44.9,40.7,44.9c22.4,0,40.7-20.1,40.7-44.9 C1070.2,466.4,1052,446.4,1029.5,446.4z M1029.5,528.3c-18.2,0-33-16.7-33-37.2c0-20.3,14.8-37,33-37c18.2,0,33,16.7,33,37 C1062.5,511.7,1047.8,528.3,1029.5,528.3z"></path><path d="M1029.5,538.9c-38.4,0-69.4,34.5-69.4,76.7v180.9c0,2.1,1.7,3.8,3.8,3.8h131c2.1,0,3.8-1.7,3.8-3.8V615.6 C1098.8,573.2,1067.7,538.9,1029.5,538.9z M1091.1,792.7H967.7V615.6c0-38,27.6-69.1,61.8-69.1c34,0,61.6,30.9,61.6,69.1V792.7z"></path><path d="M367.4,412.1c23.8,0,43.2-21.3,43.2-47.6c0-26.3-19.4-47.6-43.2-47.6s-43.2,21.3-43.2,47.6 C324.3,390.8,343.6,412.1,367.4,412.1z M367.4,324.6c19.6,0,35.5,17.8,35.5,39.9c0,22.1-15.9,39.9-35.5,39.9 c-19.6,0-35.5-17.8-35.5-39.9C331.9,342.5,347.8,324.6,367.4,324.6z"></path><path d="M550.6,390.8c0.2,0,0.5,0,0.7,0c7.5-2.1,32.8-9.2,37.8-14.6c3.8-4,5.2-10,3.5-14.8c-1.3-3.5-3.8-5.8-7.1-6.3 c-2.1-0.4-8.4-0.8-32-1.9c-0.6-5.9-1.7-16.5-3.8-20.9c-1.9-3.8-4.4-5-6.1-5.4c-3.3-0.8-5.9,1-6.3,1.3l-1.2,1l-7.9,37.7l-51.8,36.1 l-89.8,15.2c-0.2,0-0.4,0.2-0.6,0.2c-5.9-1.7-12.2-2.7-18.6-2.7c-40.7,0-73.7,36.6-73.7,81.5v193.2c0,2.1,1.7,3.8,3.8,3.8h194 c2.1,0,3.8-1.7,3.8-3.8c0-2.1-1.7-3.8-3.8-3.8h-50.5V497.3c0-7.7-1-15.1-2.8-22.2l57.2-41.7L550.6,390.8z M542.6,338 c1.2,4.6,2.1,13.4,2.5,19.4l4,4c12.5,0.6,32.8,1.7,34.9,1.9c0.2,0,0.4,0.6,0.6,1.5c0.2,1.5-0.2,3.6-1.7,5.4 c-2.5,2.5-19.4,8.2-33.7,12.2l-12.7-15L542.6,338z M433.2,686.6h-132V497.3c0-40.7,29.5-73.9,66-73.9c36.5,0,66,33.2,66,73.9 V686.6z M435.6,467.2c-6.9-19-20-34.5-36.6-43.3l79.3-13.4c0.6,0,1.2-0.2,1.5-0.6l51.8-36.2c0,0,0,0,0.1,0l11.3,13.2l-52.4,40.3 L435.6,467.2z"></path><path d="M1182.6,527c-31.8,0-57.7,28.6-57.7,63.7v148.9c0,2.1,1.7,3.8,3.8,3.8h107.8c2.1,0,3.8-1.7,3.8-3.8V590.7 C1240.3,555.6,1214.4,527,1182.6,527z M1232.7,735.7h-100.1v-145c0-30.9,22.4-56,50.1-56c27.6,0,50.1,25.1,50.1,56V735.7z"></path><path d="M1148.4,488.1c0,20.7,15.3,37.6,34.1,37.6c18.8,0,34.1-16.9,34.1-37.6c0-20.7-15.3-37.6-34.1-37.6 C1163.8,450.5,1148.4,467.4,1148.4,488.1z M1209.1,488.1c0,16.5-11.9,29.9-26.5,29.9c-14.6,0-26.5-13.4-26.5-29.9 c0-16.5,11.9-29.9,26.5-29.9C1197.2,458.1,1209.1,471.6,1209.1,488.1z"></path><path d="M1344.6,510.3c14.6-1.9,26.1-15.5,26.1-32.2c0-17.8-13.2-32.4-29.5-32.4c-16.1,0-29.4,14.6-29.5,32.4 c0,16.7,11.3,30.3,26.1,32.2c-25.7,1.9-46,25.5-46,54.3v126c0,2.1,1.7,3.8,3.8,3.8h91.3c2.1,0,3.8-1.7,3.8-3.8v-126 C1390.6,535.8,1370.3,512.2,1344.6,510.3z M1319.3,478.1c0.2-13.6,10-24.7,21.9-24.7c12.1,0,21.9,11.1,21.9,24.7 c0,13.6-9.8,24.7-21.9,24.7C1329.1,502.8,1319.3,491.7,1319.3,478.1z M1383,686.8h-83.6V564.6c0-25.7,18.8-46.8,41.8-46.8 c23,0,41.8,20.9,41.8,46.8V686.8z"></path><path d="M642.4,502.1c0-2.1-1.7-3.8-3.8-3.8H515.8v-57c0-2.1-1.7-3.8-3.8-3.8c-2.1,0-3.8,1.7-3.8,3.8v60.8c0,2.1,1.7,3.8,3.8,3.8 h126.6C640.7,505.9,642.4,504.2,642.4,502.1z"></path><path d="M511.8,362.4c2.1,0,3.8-1.7,3.8-3.8V98.4h771l2.9,400h-59.9c-2.1,0-3.8,1.7-3.8,3.8c0,2.1,1.7,3.8,3.8,3.8h63.7 c1,0,1.9-0.4,2.7-1.2c0.8-0.8,1.2-1.7,1.2-2.7l-2.9-407.7c0-2.1-1.7-3.8-3.8-3.8H511.8c-2.1,0-3.8,1.7-3.8,3.8v264 C507.9,360.7,509.6,362.4,511.8,362.4z"></path><path d="M743.1,497.9c-2.3,0-4.2,1.9-4.2,4.2c0,2.3,1.9,4.2,4.2,4.2h73.1c2.3,0,4.2-1.9,4.2-4.2c0-2.3-1.9-4.2-4.2-4.2H743.1z"></path><path d="M913.5,497.9c-2.3,0-4.2,1.9-4.2,4.2c0,2.3,1.9,4.2,4.2,4.2h64.5c2.3,0,4.2-1.9,4.2-4.2c0-2.3-1.9-4.2-4.2-4.2H913.5z"></path><path d="M1075.2,506.3h66.4c2.3,0,4.2-1.9,4.2-4.2s-1.9-4.2-4.2-4.2h-66.4c-2.3,0-4.2,1.9-4.2,4.2S1072.9,506.3,1075.2,506.3z"></path><path d="M1078.2,263.1c15.5-8,30.8-17.1,37.8-24.8c7-7.7,12-15.6,15.6-23c0.2-0.3,0.5-0.6,0.7-1c6.8-14.3,8.5-27,8.6-31.1 c0-0.1,0-0.3,0-0.4c0-0.2,0-0.2,0-0.4v-0.2c0-2.3-1.9-4-4-3.8c-6.3-1.7-30.7-7.1-59.5,5.2c-9.5,4-23.3,15.4-36,27.4 c-8.4-5.5-18.2-4.8-29.9,2.6c-0.2,0-0.2,0-0.4,0.2l-50.3,40.7c-0.1,0.1-0.1,0.1-0.2,0.1L944.2,268c-0.8,0.6-1.2,1.4-1.3,2.3 c-0.1,0.9,0.1,1.8,0.6,2.7c0.8,1.2,1.9,1.7,3.3,1.7c0.6,0,1.1-0.2,1.7-0.2c23-11.4,46.2-22,61.8-23.4c0,0,0,0,0.1,0l0.3,0.1 l-13.3,14.6l-0.9,0.3c-3.5-0.2-10.6-0.1-14.4,1.6c-33.6,13-53.1,56.2-53.9,58.1c-0.6,1.3-0.4,2.7,0.4,3.8c0.8,1,1.9,1.5,3.1,1.5 c0.2,0,0.4,0,0.6,0.2h0.2c11.7-1.3,51.4-7.1,72.3-31.3c2.5-2.8,4.8-8.2,6-11.9c0,0,0,0,0.1,0l1.2-1.5l18-7.6l-0.1,0.3c0,0,0,0,0,0 c-5,10.6-16.3,23.5-29.1,36.6c-1,1-2.3,2.2-3.9,3.8c-3.3,3.3-7.1,7.1-9.6,9.6c-1.5,1.3-1.5,3.4-0.4,4.9c0,0,0,0.1,0,0.1 c0.8,1,1.9,1.5,3.1,1.5c0.8,0,1.3-0.2,2.1-0.4l73.5-44.9c0.2,0,0.2-0.2,0.4-0.2C1076.7,281.8,1080.7,272.9,1078.2,263.1z M1108.2,184c4.7-0.4,8.9-0.4,12.7-0.2c5.2,0.4,9.2,1.1,11.7,1.7c-0.6,5.1-2.3,13.6-6.7,23.5 C1120.7,205.2,1110.2,190.1,1108.2,184z M1079.9,190.9c7.4-3.2,14.4-5.1,20.9-6.2c2.2,9.1,13.9,25.7,21.8,31.1 c-3.2,5.8-7.3,11.8-12.6,17.7c-6.6,7.2-21.9,16.1-37.3,24c-0.2,0-0.5,0-0.7,0.1l-33.5,15.4c0-0.4,0-0.7-0.1-1.1 c-0.1-0.6-0.2-1.2-0.6-1.7l-16.7-23.6c-0.6-0.8-1.5-1.3-2.5-1.5l-0.1,0l26-26.4c0.3-0.3,0.4-0.6,0.6-0.9 C1057.6,206,1071.1,194.6,1079.9,190.9z M1015.9,219.7c9.6-6,15.6-5.6,19.9-3.4c-12.2,11.8-22.6,23-26.3,27 c-10,0.8-22,4.8-36.2,10.9L1015.9,219.7z M991,276.7c0.8-0.4,2.8-0.6,5.1-0.8l4.6,6.5l0.2,0.2c-0.6,1.7-1.5,3.6-2.3,4.6 c-8.8,10.2-25.1,15-34.7,16.7C968.4,295.6,978,281.6,991,276.7z M967,285.8c-8.5,10-13.3,20.5-13.6,21.2c-0.6,1.2-0.6,2.5,0.2,3.6 c0.8,1.2,1.9,1.7,3.3,1.7c0.3,0,18.7-1.5,34.3-10c-16.7,13.2-40.6,18.4-52.9,20.4C943.1,313.8,953.1,297.6,967,285.8z M1010.6,278.5l-6.4-9.1l13.5-14.9l11.3,16.1L1010.6,278.5z M1061.2,283.9l-47,28.8c9.8-10.7,18.1-21.1,22.4-30.1 c4.6-1.9,19-8.2,34.6-16C1071.6,271.3,1069.9,277.1,1061.2,283.9z"></path><path d="M1065.7,232.7c4.4,6.1,11.3,9.4,18.4,9.4c4.6,0,9-1.3,12.7-4c10-7.3,12.5-21.3,5.4-31.3c-7.3-10-21.3-12.5-31.3-5.4 C1061.1,208.7,1058.6,222.7,1065.7,232.7z M1075.6,207.8c2.5-1.7,5.6-2.7,8.4-2.7c4.6,0,9.2,2.3,12.1,6.1 c4.6,6.5,3.1,15.7-3.5,20.5c-6.5,4.6-15.7,3.1-20.5-3.5C1067.6,221.8,1069.1,212.6,1075.6,207.8z"></path></g></g></svg>