<svg version="1.1" fill="#29524A" xmlns="http://www.w3.org/2000/svg" xmlns:xlink="http://www.w3.org/1999/xlink" x="0px" y="0px" width="100%" height="auto" viewBox="0 0 1417.3 954.1" style="enable-background:new 0 0 1417.3 954.1;" xml:space="preserve"><g><rect style="fill:rgb(255 255 255 / 0%)" width="1417.3" height="954.1"></rect><path class="svg-fill--primary--opacity" d="M222.9,239.4c34.7-6.1,96.9-24.8,96.9-96.3c0-51.2-47.3-94.7-128.2-94.7c-84.8,0-128.2,57.8-128.2,117.8H66 c1.7-42.4,39.6-80.9,78.7-80.9c33.6,0,62.2,23.1,62.2,70.5s-26.4,80.9-82.6,82.6v4.4h5c27,0,83.1,9.4,82,96.9 c-0.6,52.8-35.8,77.6-72.7,77.6c-42.4,0-80.9-41.3-82.6-86.4h-2.2c0,63.3,45.1,125.5,124.9,125.5c85.3,0,148.6-45.7,148.6-113.9 C327.5,270.3,258.1,244.4,222.9,239.4z M421.4,461.3c31.4,0,57.2-25.9,57.2-57.8c0-31.4-25.9-57.2-57.2-57.2 c-31.9,0-57.8,25.9-57.8,57.2C363.6,433.7,389.5,461.3,421.4,461.3z"></path><g><polygon class="svg-fill--primary" points="1002.4,270.8 1011,270.8 1011,268.8 1011.4,268.8 1011.4,260.2 1011,260.2 1011,54.1 1002.4,54.1 1002.4,260.2 854.5,260.2 854.5,268.8 1002.4,268.8 "></polygon><path class="svg-fill--primary" d="M665.7,617.6c20.5,20.8,27.8,48.2,27.9,83.7v150.4l31.8,0.5V684.9C720.1,641,698.1,621.5,665.7,617.6z"></path><path class="svg-fill--primary" d="M700.4,570.5c0.5-43.4-40.8-37.7-34.3-37.7c18.7,0,19.5,19.8,18.8,34.8c-1,26.3-30.7,34.8-30.7,34.8 c6,3.4,12,3.6,18.2,1.6C690.9,596.7,700.1,590,700.4,570.5z"></path><path class="svg-fill--primary" d="M826.6,625.7c22.6,22.7,30.5,53,30.7,91.9v165.5l35.1,0.5V699.6C886.5,651.4,862.3,630,826.6,625.7z"></path><path class="svg-fill--primary" d="M864.6,574.1c0.5-47.8-44.8-41.4-37.7-41.4c20.5,0,21.4,21.8,20.8,38.3c-1.1,28.9-33.8,38.3-33.8,38.3 c6.5,3.2,13.2,3.4,20,1.5C854.1,602.8,864.3,595.5,864.6,574.1z"></path><path class="svg-fill--primary" d="M995.5,630.8c23.9,24.2,32.3,56.4,32.5,97.6V904l37.4,0.5V709.2C1059.2,657.9,1033.5,635.2,995.5,630.8z"></path><path class="svg-fill--primary" d="M1035.9,576c0.5-50.7-47.6-43.9-40-43.9c21.8,0,22.7,23.2,22.1,40.6c-1.1,30.7-35.7,40.6-35.7,40.6 c6.8,3.4,13.8,3.7,21.1,1.6C1024.8,606.6,1035.7,598.8,1035.9,576z"></path><path class="svg-fill--primary" d="M1163.8,603c22.6,22.9,30.5,53.1,30.7,91.9v165.5l35.1,0.7V676.9C1223.8,628.6,1199.6,607.2,1163.8,603z"></path><path class="svg-fill--primary" d="M1202,551.3c0.5-47.8-44.8-41.4-37.7-41.4c20.5,0,21.4,21.8,20.8,38.3c-1.1,28.9-33.8,38.3-33.8,38.3 c6.5,3.2,13.2,3.4,20,1.5C1191.5,580.1,1201.7,572.8,1202,551.3z"></path><path class="svg-fill--primary" d="M1317.6,552.3c19.2,19.3,25.8,45,26,78v140.4l29.7,0.5V615C1368.2,574.1,1347.9,555.9,1317.6,552.3z"></path><path class="svg-fill--primary" d="M1349.9,508.4c0.5-40.5-38-35.1-31.8-35.1c17.4,0,18.2,18.5,17.5,32.5c-1,24.5-28.6,32.5-28.6,32.5 c5.4,2.8,11,2.9,16.9,1.3C1340.9,532.8,1349.7,526.6,1349.9,508.4z"></path><path class="svg-fill--primary" d="M517.2,577.2c19.2,19.3,25.8,45,26,78v140.4l29.7,0.5V639.9C567.9,598.9,547.6,580.7,517.2,577.2z"></path><path class="svg-fill--primary" d="M549.5,533.3c0.5-40.5-38-35.1-31.8-35.1c17.4,0,18.2,18.5,17.5,32.5c-1,24.5-28.6,32.5-28.6,32.5 c5.5,2.8,11.2,2.9,16.9,1.3C540.5,557.7,549.3,551.5,549.5,533.3z"></path><path class="svg-fill--primary" d="M666.1,142.1c6.7,4.5,16.4,7.5,24,5.8c18-5.8,29.1-18.8,27.9-37.7C715,63,678,73.4,683.2,73.4 c14.5,0,19.3,20.8,18.5,38C700.2,140,666.1,142.1,666.1,142.1z"></path><path class="svg-fill--primary" d="M791.6,168l48.9-36.9l-6.5-7.6l-48.9,36.9l-50.5,28.3c-5.8-10.9-14.7-19.1-26.2-25.6 c-4.4-2.4-14.6-7.1-19.5-4.9c22.6,0,29.9,39.6,29.9,71v160h23.7c0,0,0,0,0-164.1c0-9.9-1.2-18.5-3.6-26c1.5,2.5,2.8,4.5,2.8,4.5 L791.6,168z"></path><polygon class="svg-fill--primary" points="906,118.3 909.9,113.1 907.8,109 893.5,123.1 897.6,127.3 "></polygon><polygon class="svg-fill--primary" points="934.6,106.2 958.3,81.9 962.1,85.4 965,71.9 951.5,73.9 954.4,78.3 931.2,101 917.2,101.2 918.2,107.2 "></polygon><polygon class="svg-fill--primary" points="943.7,184 938.8,200.4 940.9,201.6 "></polygon><path class="svg-fill--primary" d="M935.7,188.1c-0.8-4.1-2.4-6.3-5.5-6.3c1.3,1.5,2.6,2.9,2.6,5.2c0.6,2.4-0.8,5.2-2.8,7 C932.6,193.8,934.6,192,935.7,188.1z"></path><path class="svg-fill--primary" d="M904.6,238c0,3.5,10.6,6.3,23.7,6.3c13.1,0,23.7-2.8,23.7-6.3c0-2.3-4.7-4.3-11.6-5.4l-0.1-26.3 c-0.2-1.8-0.8-3.6-1.6-5.2c-3.1-3.9-6.2-4.5-9.1-4.5c2.3,1.6,4.2,4.5,4.9,12v23.3c-2-0.1-4-0.2-6.1-0.2 C915.2,231.6,904.6,234.5,904.6,238z"></path><polygon class="svg-fill--primary" points="920.5,198.5 922.9,197 914.5,183.2 "></polygon><path class="svg-fill--primary" d="M948.4,170.2v-8.6l-0.8-4.5l-3.2-1.5c0.8,1,1.3,2.3,1.3,4.2v10.7L948.4,170.2z"></path><path class="svg-fill--primary" d="M937.3,172.5l-0.8-12.7c-0.8-1.5-2.1-1.8-3.4-1.8c0.8,0.6,1.5,1.6,1.5,3.2v11.4L937.3,172.5z"></path><path class="svg-fill--primary" d="M926.3,172.8l-0.5-12.8c-0.8-1.8-2.3-1.9-3.6-1.9c0.8,1.1,1.5,2.4,1.3,4.1v10.7H926.3z"></path><path class="svg-fill--primary" d="M912.7,168.4l2.8-0.2l-0.2-10.9c-0.8-1.9-2.1-3.2-3.7-3.6c0.8,1.3,1.3,2.8,1.1,4.7V168.4z"></path></g><g><path d="M923.8,423.5h18c0.3,0,0.6,0,1-0.2c9.7-3.1,31.7-1.6,53.4,0.2c0.2,0,0.2,0,0.3,0h5.8c1.3,0,2.4-0.8,2.9-1.9 c0.5-1.1,0.3-2.4-0.5-3.4c-1.2-1.5-13.1-13.1-62.6-14.8V284.3h77.5c1.3,0,2.3-0.6,2.8-1.8c0.5-1.1,0.5-2.4-0.3-3.4l-5.8-7.6V43 c0-0.4-0.1-0.7-0.2-1.1c0.1-0.7,0.2-1.3,0.2-2c0-1.8-1.5-3.2-3.2-3.2H852.7c-1.8,0-3.2,1.5-3.2,3.2c0,0.6,0.1,1.1,0.2,1.7 c-0.1,0.4-0.2,0.9-0.2,1.4v57.5c-1.7-0.1-3.5-0.2-5.5-0.3c-0.5-5.2-1.3-14.1-3.2-17.9c-1.5-3.1-3.6-4.2-5-4.5 c-2.8-0.7-5,0.8-5.5,1.1l-1.1,0.8l-6.8,31.8l-44.5,31.2l-76.8,13c-0.3,0-0.5,0.2-0.7,0.3c-5-1.4-10.2-2.2-15.6-2.2 c-34.9,0-63.2,31.4-63.2,69.9v165.5c0,1.8,1.5,3.2,3.2,3.2h166.2c1.8,0,3.2-1.5,3.2-3.2c0-1.8-1.5-3.2-3.2-3.2h-43V223.7 c0-6.9-0.9-13.5-2.6-19.8l48.6-35.3l47.8-36.7c0.8-0.6,1.1-1.5,1.3-2.3c0-0.3-0.1-0.6-0.1-0.9c1.3-1,2.7-1.9,3.5-2.1 c1-0.2,2.1-0.4,3.3-0.6v145.2l-8.1,7.3c-1,1-1.3,2.3-0.8,3.6c0.5,1.3,1.8,2.1,3.1,2.1h79.8v119c-53.5,1-64.3,13.5-65.4,15 c-0.8,1-0.8,2.3-0.3,3.4c0.6,1.1,1.8,1.8,2.9,1.8h7.3c0.2,0,0.2,0,0.3,0c15.3-1.3,43.7-3.7,54.6-0.2 C923.1,423.5,923.4,423.5,923.8,423.5z M1009.1,44c-0.6,2-1.7,3.8-3.2,5.2l-0.2,0.2c-2.4,2.4-5.7,3.9-9.3,3.9H869 c-3.2,0-6.7-1.5-9.3-4.1c-1.4-1.4-2.4-3.2-3.1-5.2H1009.1z M856,54.3c3.7,3.4,8.4,5.3,13.2,5.3h127.5c4.9,0,9.6-1.9,13.2-5.3V268 H856V125.4c0-0.1,0-0.2-0.1-0.3c9.7-1.4,15.7-2.4,18.4-5.3c3.3-3.6,4.4-8.6,2.9-12.8c-1-2.9-3.3-4.9-6-5.4 c-1.4-0.1-4.8-0.3-15.3-0.9V54.3z M741.3,386H627.9V223.7c0-34.9,25.3-63.4,56.7-63.4c31.2,0,56.7,28.4,56.7,63.4V386z M789.9,163.4l-46.8,34c-6-16.3-17.4-29.4-31.7-36.9l68.1-11.6c0.5,0,1-0.2,1.3-0.5l43.9-30.7c0.3,0.1,0.5,0,0.8,0l9.4,11 L789.9,163.4z M844.9,119.7c-2.4,0.3-4.8,2-6.4,3.3l-9-10.6l5.3-25.1c1.1,3.7,1.8,11.5,2.1,16.6l3.4,3.4 c10.6,0.5,27.8,1.5,29.7,1.6c0.2,0.2,0.5,0.6,0.5,1.5c0.2,1.1-0.2,3.1-1.5,4.4c-1.6,1.3-9.9,2.6-14.8,3.2 C850.9,118.6,847.5,119.1,844.9,119.7z M855.7,274.5h155l2.6,3.2H939c0,0,0,0,0,0h-12.3c0,0,0,0,0,0h-74.5L855.7,274.5z M935.7,284.3V402h-5.8V284.3H935.7z M873.9,416.3c9.4-3.2,26.5-6.8,56.5-6.8c29.1,0,46.6,3.4,56.9,6.7c-19.2-1.5-36.4-2.1-46,0.8 h-17.1C914,413.9,893.5,415,873.9,416.3z"></path><path d="M704.2,567.1c0-22.7-16.7-41.1-37.2-41.1c-20.5,0-37.2,18.5-37.4,41.1c0,22.7,16.7,41.1,37.4,41.1 C687.5,608.2,704.2,589.8,704.2,567.1z M636.1,567.1c0.2-19,14-34.6,30.9-34.6c16.9,0,30.7,15.6,30.7,34.6 c0,19-13.8,34.6-30.7,34.6C650,601.7,636.1,586.1,636.1,567.1z"></path><path d="M667,611.8c-35.3,0-63.8,31.7-63.8,70.5v167.3c0,1.8,1.5,3.2,3.2,3.2h121.2c1.8,0,3.2-1.5,3.2-3.2V682.3 C730.8,643.4,702.3,611.8,667,611.8z M724.4,846.3H609.7V682.3c0-35.3,25.7-64,57.3-64c31.7,0,57.3,28.8,57.3,64V846.3z"></path><path d="M826,620.2c-38.5,0-69.9,34.8-69.9,77.3v184.2c0,1.8,1.5,3.2,3.2,3.2h133.2c1.8,0,3.3-1.5,3.3-3.2V697.5 C895.8,654.8,864.5,620.2,826,620.2z M889.3,878.5H762.6v-181c0-39,28.4-70.8,63.4-70.8c34.9,0,63.4,31.8,63.4,70.8V878.5z"></path><path d="M866.6,571c0-24.9-18.2-45-40.6-45c-22.4,0-40.8,20.1-40.8,45c0,24.9,18.4,45,40.8,45C848.4,616,866.6,595.8,866.6,571z M791.7,571c0-21.3,15.4-38.5,34.3-38.5c18.8,0,34.1,17.2,34.1,38.5c0,21.3-15.3,38.5-34.1,38.5 C807.1,609.5,791.7,592.3,791.7,571z"></path><path d="M995,626.1c-40.8,0-73.9,36.7-73.9,81.7v195.4c0,1.8,1.5,3.2,3.2,3.2h141.3c1.8,0,3.3-1.5,3.3-3.2V707.8 C1068.9,662.8,1035.7,626.1,995,626.1z M1062.4,899.9H927.5V707.8c0-41.4,30.2-75.2,67.4-75.2c37.2,0,67.4,33.8,67.4,75.2V899.9z"></path><path d="M995,526c-23.6,0-42.9,21.3-43,47.4c0,26.2,19.3,47.4,43,47.4c23.7,0,43.1-21.3,43.1-47.4C1038,547.3,1018.7,526,995,526z M995,614.4c-20.1,0-36.5-18.4-36.5-40.9c0.2-22.6,16.6-40.9,36.5-40.9c20.1,0,36.6,18.4,36.6,40.9 C1031.5,596,1015.1,614.4,995,614.4z"></path><path d="M1164.1,598.6c-38.5,0-69.9,34.8-69.9,77.3v184.2c0,1.8,1.5,3.3,3.2,3.3h133.2c1.8,0,3.2-1.5,3.2-3.3V675.9 C1233.9,633.2,1202.6,598.6,1164.1,598.6z M1227.4,856.9h-126.7v-181c0-39,28.4-70.8,63.4-70.8c34.9,0,63.4,31.8,63.4,70.8V856.9z "></path><path d="M1163.9,594.4c22.4,0,40.6-20.1,40.6-45c0-24.9-18.2-45-40.6-45c-22.3,0-40.6,20.1-40.8,45 C1123.1,574.2,1141.5,594.4,1163.9,594.4z M1163.9,510.9c18.8,0,34.1,17.2,34.1,38.5c0,21.3-15.3,38.5-34.1,38.5 c-18.8,0-34.3-17.2-34.3-38.5C1129.8,528.1,1145.2,510.9,1163.9,510.9z"></path><path d="M1318.7,543.9c19.2,0,34.9-17.4,34.9-38.7c0-21.3-15.6-38.7-34.9-38.7c-19.3,0-34.9,17.4-34.9,38.7 C1283.8,526.5,1299.5,543.9,1318.7,543.9z M1318.7,473c15.8,0,28.4,14.5,28.4,32.2c0,17.7-12.8,32.2-28.4,32.2 s-28.4-14.5-28.4-32.2C1290.3,487.5,1302.9,473,1318.7,473z"></path><path d="M1318.7,546.6c-33,0-59.8,29.6-59.8,66v156.1c0,1.8,1.5,3.2,3.2,3.2h113.1c1.8,0,3.3-1.5,3.3-3.2V612.6 C1378.5,576.2,1351.7,546.6,1318.7,546.6z M1372,765.4h-106.6V612.6c0-32.8,23.9-59.5,53.3-59.5c29.4,0,53.3,26.6,53.3,59.5V765.4 z"></path><path d="M518.5,568.7c19.2,0,34.9-17.4,34.9-38.7c0-21.3-15.8-38.7-34.9-38.7c-8.8,0-17.1,3.6-23.6,10.1 c-7.3,7.5-11.5,17.9-11.4,28.6C483.5,551.3,499.3,568.7,518.5,568.7z M499.5,506c5.2-5.2,12-8.1,19-8.1 c15.8,0,28.4,14.5,28.4,32.2c0,17.7-12.8,32.2-28.4,32.2c-15.6,0-28.4-14.5-28.4-32.2C489.9,520.8,493.4,512.2,499.5,506z"></path><path d="M518.5,571.5c-33,0-59.8,29.6-59.8,66v156.1c0,1.8,1.5,3.2,3.2,3.2H575c1.8,0,3.3-1.5,3.3-3.2V637.4 C578.2,601,551.4,571.5,518.5,571.5z M571.7,790.3H465.2V637.4c0-32.8,23.9-59.5,53.3-59.5c29.4,0,53.3,26.6,53.3,59.5V790.3z"></path><path d="M684.6,150.6c20.3,0,36.9-18.4,36.9-40.8s-16.6-40.6-36.9-40.6s-36.9,18.2-36.9,40.6S664.3,150.6,684.6,150.6z M684.6,75.7c16.7,0,30.4,15.3,30.4,34.1c0,18.8-13.6,34.3-30.4,34.3c-16.7,0-30.4-15.4-30.4-34.3C654.2,91,667.9,75.7,684.6,75.7 z"></path><path d="M897.1,128.1c0.3,0.3,0.8,0.3,1.1,0l8.2-8.2c1.7,2.1,3.6,4.1,5.9,5.6c0.5,0.3,1,0.3,1.5,0l4.2-3.6 c1.3,0.8,2.9,1.5,4.7,1.9l0.5,5.5c0,0.7,0.5,1.1,1,1.1c1.6,0.3,3.2,0.5,5,0.5c1.6,0,3.4-0.2,5.2-0.5c0.7,0,1.1-0.6,1.1-1.1 l0.5-5.5c1.8-0.5,3.4-1.1,4.7-1.9l4.4,3.6c0.5,0.3,1,0.3,1.5,0c2.8-1.9,5.4-4.4,7.3-7.3c0.3-0.5,0.3-1,0-1.5l-3.6-4.2 c0.8-1.3,1.5-2.9,1.9-4.7l5.5-0.5c0.7,0,1.1-0.5,1.1-1c0.7-3.6,0.7-7,0-10.2c0-0.6-0.7-1.1-1.1-1.1l-5.5-0.5 c-0.3-1.3-0.8-2.6-1.4-3.5l7.7-7.7l3.4,3.4c0.2,0.2,0.5,0.3,0.8,0.2c0.3-0.2,0.5-0.3,0.5-0.6l2.6-14.6c0-0.2,0-0.5-0.2-0.7 c-0.2-0.2-0.5-0.3-0.7-0.2l-14.6,2.6c-0.3,0-0.5,0.3-0.7,0.5c-0.2,0.3,0,0.5,0.2,0.8l3.4,3.4l-2.3,2.3c-1.1-1.1-2.3-2.1-3.6-3 c-0.5-0.3-1-0.3-1.5,0l-4.2,3.6c-1.3-0.8-2.9-1.5-4.7-1.9l-0.5-5.5c0-0.6-0.5-1.1-1-1.1c-3.4-0.6-6.8-0.6-10.2,0 c-0.7,0-1.1,0.7-1.1,1.1l-0.5,5.5c-1.8,0.5-3.4,1.1-4.7,1.9l-4.4-3.6c-0.5-0.3-1-0.3-1.5,0c-2.8,1.9-5.4,4.4-7.3,7.3 c-0.3,0.5-0.3,1,0,1.5l3.6,4.2c-0.8,1.3-1.5,2.9-1.9,4.7l-6.3-0.3c-0.7,0-1.1,0.5-1.1,1c-0.7,3.6-0.7,7,0,10.2 c0,0.6,0.6,1.1,1.1,1.1l5.5,0.5c0.1,0.3,0.2,0.6,0.3,1l-14.1,14.1c-0.3,0.3-0.3,0.8,0,1.1L897.1,128.1z M908.8,96.1 c0.5-1.9,1.3-3.7,2.4-5.5c0.3-0.5,0.3-1,0-1.3l-3.6-4.2c1.3-1.8,2.9-3.4,5.4-5.4l4.2,3.4c0.5,0.3,1.1,0.3,1.5,0 c1.8-1.1,3.6-1.8,5.5-2.4c0.5-0.2,0.8-0.5,0.8-1.1l0.5-5.5c2.6-0.3,5.2-0.3,7.6,0l0.5,5.5c0,0.6,0.5,1.1,0.8,1.1 c1.9,0.5,3.7,1.3,5.5,2.4c0.5,0.3,1,0.3,1.3,0l4.2-3.6c1.1,0.8,2.1,1.6,3.1,2.6l-9.7,9.7c-2.8-2.8-6.2-4.2-9.7-4.2 c-7.3,0-13.3,6.2-13.3,13.6c0,2.1,0.8,4.4,1.6,6.5c2.3,4.2,6.8,6.8,11.7,6.8c7.5,0,13.5-6,13.5-13.5V100l6.3-6.3 c0.2,0.2,0.2,0.2,0.2,0.3c0.3,0.6,0.5,1.3,0.7,1.8c0,0.6,0.5,1,1.1,1l5.5,0.5c0.3,2.6,0.3,5.2,0,7.6l-5.5,0.5 c-0.7,0-1.1,0.5-1.1,0.8c-0.5,1.9-1.3,3.7-2.4,5.5c-0.3,0.5-0.3,1,0,1.3l3.6,4.2c-1.3,1.8-2.9,3.4-5.4,5.4l-4.2-3.4 c-0.3-0.3-0.6-0.3-0.8-0.3c-0.2,0-0.5,0-0.6,0.2c-1.8,1.1-3.6,1.8-5.5,2.4c-0.5,0.2-0.8,0.5-0.8,1.1l-0.5,5.5 c-2.6,0.3-5.2,0.3-7.6,0L925,123c0-0.7-0.5-1.1-0.8-1.1c-1.9-0.5-3.7-1.3-5.5-2.4c-0.5-0.3-1-0.3-1.3,0l-4.2,3.6 c-1.8-1.3-3.4-2.9-5.4-5.4l3.4-4.2c0.3-0.3,0.3-1.1,0-1.5c-1-1.6-1.8-3.6-2.4-5.5c-0.2-0.5-0.5-0.8-1.1-0.8l-5.5-0.5 c-0.3-2.6-0.3-5.2,0-7.6l5.5-0.5C908.3,97,908.8,96.5,908.8,96.1z M949.1,82l-0.2,0.2c0-0.1,0-0.2,0-0.3 C948.9,81.9,949,82,949.1,82z M950,106.3c-0.5,1.8-1.2,3.6-2.3,5.3c1-1.7,1.7-3.5,2.1-5.4c0,0.2,0,0.2,0,0.2 C949.9,106.4,950,106.3,950,106.3z M951.3,117.3c0,0.1-0.1,0.1-0.2,0.2c0-0.1,0.1-0.2,0-0.3l-3.7-4.5c0-0.2,0-0.2,0-0.3 c0.1-0.1,0.1-0.2,0.2-0.3c-0.2,0.3-0.2,0.6,0,0.8L951.3,117.3z M956.9,101c0-0.5-0.1-0.9-0.1-1.3 C956.8,100.1,956.9,100.6,956.9,101z M941.1,100.8c0,0.1,0,0.2,0,0.2c0,0,0,0.1,0,0.1C941.1,101,941.1,100.9,941.1,100.8 L941.1,100.8z M949.5,94c0.2,0.5,0.4,1,0.5,1.5C949.8,95,949.7,94.5,949.5,94z M933.8,122.4c0,0.1,0,0.1,0,0.2l-0.5,5.8 c-0.1,0-0.1,0-0.2,0c0,0,0,0,0,0l0.5-5.8c0-0.2,0-0.2,0-0.2L933.8,122.4C933.8,122.5,933.8,122.5,933.8,122.4z M940.9,100.9 c0,6-4.9,11-11,11c-3.6,0-6.8-1.6-9-4.2l12.8,0.2c0.2,0,0.3,0,0.5-0.2L940.9,100.9z M930.4,90.6c2.8,0,5.3,1,7.4,2.9l-6.9,6.8 l-9.7-0.2c-0.2,0-0.9-0.1-1.7-0.1C920.2,94.8,924.7,90.6,930.4,90.6z M955.3,78.6c0.3-0.3-0.2-1-0.5-1.3l-2.9-2.9l12.2-2.1 l-2.1,12.2l-2.9-2.9c-0.3-0.3-1.1-0.6-1.5-0.5l-24.7,24.7c0,0.1-9.8,0.5-13,0.6c0,0-0.1-0.1-0.1-0.1l-0.2-0.2v-0.3 c0-0.2-0.2-0.3-0.3-0.5v-3.4h11.7c0.2,0,1,0.2,1,0l7-7c0,0,0,0,0.1,0.1c0.2,0.2,0.5,0.5,0.8,0.5c0.2,0,0.7,0,1-0.3l11.5-11.5 c0.3-0.2,0.3-0.6,0.3-1c0-0.3-0.2-0.5-0.3-0.6c-0.1-0.1-0.2-0.1-0.2-0.2L955.3,78.6z M907.5,110.1c0.3,0.8,0.7,1.6,1.1,2.3 l-3.6,4.4c-0.3,0.5-0.3,1,0,1.5c0.1,0.2,0.3,0.3,0.4,0.4l-7.8,7.8l-3.3-3.2L907.5,110.1z"></path><path d="M962.5,164.9c-2.4-1.6-6.7-2.9-12.2-3.9c-0.6-0.2-1.2,0.3-1.2,0.9l0-2.5c0-2.1-1.1-4.1-2.6-5c0.7-0.7,1.1-1.6,1.1-2.8 c0-2.1-1.5-3.7-3.2-3.7c-1.8,0-3.2,1.6-3.2,3.7c0,1,0.3,1.9,1,2.6c-1.6,1-2.8,2.9-2.8,5.2v11.4c0,0.6,0.5,1.1,1.1,1.1h7.6 c0.3,0,0.6-0.2,0.8-0.3c0.2-0.2,0.3-0.5,0.3-0.8l-0.1-7.9c0.1,0.3,0.2,0.6,0.6,0.6c5.2,0.8,9.1,2.1,11.4,3.6 c1.1,0.6,1.8,1.5,1.8,2.3c0,0.5-0.3,0.8-0.7,1.1c-0.5,0.5-1.5,1.1-2.4,1.6c-5.5,2.6-16.7,4.4-29.6,4.4c-12.8,0-24-1.8-29.6-4.4 c-1.1-0.5-1.9-1-2.4-1.6c-0.3-0.3-0.7-0.8-0.7-1.1c0-0.6,0.5-1.1,1.3-1.8c1.5-1.1,4.1-2.2,7.5-3v4.7c0,0.6,0.5,1.1,1.1,1.1h7.6 c0.3,0,0.7-0.2,0.8-0.3c0.2-0.2,0.3-0.5,0.3-0.8l-0.2-11.4c0-2.1-1-4.1-2.6-5c0.7-0.6,1.1-1.8,1.1-2.9c0-2.1-1.5-3.7-3.2-3.7 c-1.9,0-3.3,1.6-3.3,3.7c0,1.1,0.3,2.1,1,2.8c-1.6,0.8-2.8,2.8-2.8,5.2v4.2c-0.1,0-0.1,0-0.2,0c-4.1,1-7.1,2.1-8.8,3.4 c-1.5,1.1-2.1,2.3-2.1,3.6c0,0.8,0.3,1.6,0.8,2.3c0.6,1,1.9,1.8,3.6,2.6c2.8,1.4,7,2.5,12.2,3.3l4.5,28.8c0,0,0,0,0,0 c-0.1,0.6-0.1,1.2-0.1,1.8v29.6c0,0.8,0.6,1.5,1.5,1.5h22.9c0.8,0,1.3-0.6,1.5-1.5l0.2-29.6c0-0.6-0.1-1.1-0.2-1.7l5-28.7 c5.9-0.8,10.8-2.1,14-3.6c1.6-0.8,2.9-1.6,3.6-2.6c0.7-0.8,0.8-1.6,0.8-2.3C965.5,167.6,964.5,166.2,962.5,164.9z M944.4,150.1 c0.5,0,1,0.6,1,1.5c0,0.8-0.5,1.5-1,1.5c-0.5,0-1-0.7-1-1.5C943.4,150.7,943.9,150.1,944.4,150.1z M941.6,169.6v-10.2 c0-1.9,1.1-3.4,2.6-3.4c1.5,0,2.6,1.6,2.6,3.4l0.2,10.2H941.6z M911.4,148.5c0.5,0,1,0.6,1,1.5c0,0.8-0.5,1.5-1,1.5 c-0.5,0-1-0.7-1-1.5C910.4,149.8,910.4,148.5,911.4,148.5z M908.6,157.9c0-1.9,1.1-3.4,2.6-3.4c1.5,0,2.6,1.6,2.6,3.4l0.2,10.2 h-5.4V157.9z M916.1,186l5.5,11.3c-1.3,0.9-2.3,2.1-3.2,3.5L916.1,186z M939.3,236h-20v-28.3c0-5.7,4.5-10.4,10.1-10.4 c5.5,0,10.1,4.5,10.1,10.4L939.3,236z M929.1,193c-2.8,0-5-2.3-5-5.2c0-3.1,2.3-5.4,5-5.4c2.9,0,5,2.4,5,5.4S931.8,193,929.1,193z M940.1,200.8c-0.8-1.2-1.7-2.3-2.8-3.2l5.3-11L940.1,200.8z M935,196.2c-0.9-0.5-1.8-0.9-2.8-1.1c2.9-1.3,4.9-4.2,4.9-7.5 c0-4.5-3.6-8.1-8-8.1c-4.4,0-7.8,3.6-8,8.1c0,3.4,1.9,6.3,4.9,7.5c-0.7,0.2-1.4,0.5-2.1,0.8l-8.8-18.1c4.6,0.6,9.8,0.9,15.3,0.9 c4.8,0,9.3-0.3,13.5-0.7L935,196.2z"></path><path d="M917.4,161.9v11.4c0,0.7,0.5,1.1,1.1,1.1h7.6c0.3,0,0.7-0.2,0.8-0.3c0.2-0.2,0.3-0.5,0.3-0.8l-0.2-11.4 c0-2.1-1.1-4.1-2.6-5c0.7-0.6,1.1-1.6,1.1-2.8c0-2.1-1.5-3.7-3.2-3.7c-1,0-1.8,0.5-2.4,1.1c-0.6,0.6-1,1.6-0.8,2.6 c0,1,0.3,1.9,1,2.6C918.5,157.7,917.4,159.7,917.4,161.9z M921.8,153c0.2-0.2,0.3-0.3,0.7-0.3c0.5,0,1,0.6,1,1.5 c0,0.8-0.5,1.5-1,1.5c-0.5,0-1-0.7-1-1.6C921.5,153.6,921.6,153.3,921.8,153z M919.7,161.9c0-1.9,1.1-3.4,2.6-3.4 c1.5,0,2.6,1.6,2.6,3.4l0.2,10.2h-5.4V161.9z"></path><path d="M928.4,161.9v11.4c0,0.7,0.5,1.1,1.1,1.1h7.6c0.3,0,0.6-0.2,0.8-0.3c0.2-0.2,0.3-0.5,0.3-0.8l-0.2-11.4c0-2.1-1-4.1-2.6-5 c0.6-0.6,1-1.6,1-2.8c0-2.1-1.5-3.7-3.2-3.7c-1.8,0-3.3,1.6-3.3,3.7c0,1.1,0.3,2.1,1,2.8C929.4,157.7,928.4,159.7,928.4,161.9z M933.3,152.7c0.5,0,1,0.6,1,1.5c0,0.8-0.5,1.5-1,1.5c-0.5,0-1-0.7-1-1.5C932.3,153.3,932.8,152.7,933.3,152.7z M930.7,161.9 c0-1.9,1.1-3.4,2.6-3.4c1.5,0,2.6,1.6,2.6,3.4l0.2,10.2h-5.4V161.9z"></path></g></g></svg>