<svg xmlns="http://www.w3.org/2000/svg" xmlns:xlink="http://www.w3.org/1999/xlink" viewBox="0,0,256,256" width="80px" height="80px" fill-rule="nonzero"><g fill="#4e61ff" fill-rule="nonzero" stroke="none" stroke-width="1" stroke-linecap="butt" stroke-linejoin="miter" stroke-miterlimit="10" stroke-dasharray="" stroke-dashoffset="0" font-family="none" font-weight="none" font-size="none" text-anchor="none" style="mix-blend-mode: normal"><g transform="scale(3.2,3.2)"><path d="M26.48438,7.65625l-0.92969,0.43359c0,0 -4.45831,1.99114 -6.00195,6.35352c-1.30378,3.6845 -0.06805,7.35659 0.36523,8.46289c-0.21326,0.38176 -0.69907,1.29589 -1.38477,2.89063c-1.43174,-4.33887 -5.82227,-6.67187 -5.82226,-6.67187l-0.89649,-0.49609l-0.47461,0.9082c0,0 -2.3063,4.25637 -0.88867,8.62109c1.30682,4.02356 5.01989,6.23787 5.61523,6.57422c-0.06209,0.63478 -0.06861,1.16893 -0.06055,1.59766c-0.00041,0.0488 -0.00586,0.0977 -0.00586,0.14648c0,0.62596 0.02399,1.23454 0.0625,1.83203c-2.8223,-2.77503 -6.87109,-3.29883 -6.87109,-3.29883l-1.01367,-0.14844l-0.12305,1.01953c0,0 -0.64128,4.65645 2.14648,8.14258c2.78884,3.48605 7.60742,4.09961 7.60742,4.09961l1.01367,0.14844l0.00781,-0.05859c0.38761,0.72695 0.81035,1.4208 1.25781,2.0918c-1.03158,-0.2675 -2.05944,-0.34672 -3.02539,-0.30273c-3.07005,0.13981 -5.52148,1.45898 -5.52148,1.45898l-0.91016,0.4707l0.49219,0.89844c0,0 2.23266,4.23781 6.60547,5.4707c4.3496,1.22635 8.66918,-1.08098 8.71484,-1.10547c0.58861,0.4937 1.17934,0.98606 1.7793,1.44727c0.17303,0.13302 0.34615,0.25573 0.51953,0.38672c-0.2881,-0.02184 -0.5814,-0.03337 -0.88086,-0.02539c-4.31723,0.11502 -7.5957,3.4668 -7.5957,3.4668l-0.73242,0.71875l0.73828,0.71289c0,0 3.21028,3.20958 7.52734,3.0957c4.01592,-0.10699 7.01806,-2.91496 7.43359,-3.32031c1.1403,0.81161 2.19445,1.60527 3.17773,2.39844c-1.41772,1.36986 -2.57781,2.84076 -3.32422,4.51758c-0.14525,0.32658 -0.10521,0.70585 0.10505,0.9949c0.21025,0.28905 0.55876,0.44394 0.9142,0.40631c0.35544,-0.03763 0.6638,-0.26205 0.80887,-0.58871c0.62492,-1.4039 1.70423,-2.70882 3.08594,-3.98828c1.38171,1.27946 2.46102,2.58438 3.08594,3.98828c0.14508,0.32666 0.45343,0.55109 0.80887,0.58871c0.35544,0.03763 0.70395,-0.11727 0.9142,-0.40631c0.21025,-0.28905 0.2503,-0.66832 0.10505,-0.9949c-0.74641,-1.67681 -1.9065,-3.14771 -3.32422,-4.51758c0.98328,-0.79317 2.03744,-1.58683 3.17773,-2.39844c0.41554,0.40535 3.41767,3.21332 7.43359,3.32031c4.31706,0.11388 7.52734,-3.0957 7.52734,-3.0957l0.73828,-0.71289l-0.73242,-0.71875c0,0 -3.27847,-3.35178 -7.5957,-3.4668c-0.30421,-0.0081 -0.59901,0.00725 -0.89062,0.03125c0.17642,-0.13325 0.35324,-0.25723 0.5293,-0.39258c0.60184,-0.46265 1.19697,-0.94779 1.78711,-1.44336c0.06822,0.0365 4.36897,2.32466 8.70703,1.10156c4.37281,-1.23289 6.60547,-5.4707 6.60547,-5.4707l0.49219,-0.89844l-0.91016,-0.4707c0,0 -2.45144,-1.31918 -5.52148,-1.45898c-0.96782,-0.04407 -1.99765,0.03594 -3.03125,0.30469c0.00431,-0.00858 0.00742,-0.01874 0.01172,-0.02734c0.44239,-0.66529 0.86805,-1.34641 1.25195,-2.06641l0.00781,0.05859l1.01367,-0.14844c0,0 4.81858,-0.61355 7.60742,-4.09961c2.78768,-3.48602 2.14844,-8.14258 2.14844,-8.14258l-0.12305,-1.01953l-1.01562,0.14844c0,0 -4.04819,0.52322 -6.87109,3.29883c0.03769,-0.58474 0.05955,-1.18108 0.06055,-1.79297c0.01798,-0.44364 0.00756,-1.05012 -0.06445,-1.78516c0.57826,-0.32591 4.30508,-2.53845 5.61523,-6.57227c1.41882,-4.36491 -0.88867,-8.62109 -0.88867,-8.62109l-0.47461,-0.9082l-0.89648,0.49609c0,0 -4.39052,2.33301 -5.82227,6.67188c-0.68569,-1.59474 -1.17151,-2.50887 -1.38477,-2.89062c0.43329,-1.10631 1.66901,-4.77839 0.36523,-8.46289c-1.54365,-4.36238 -6.00195,-6.35352 -6.00195,-6.35352l-0.92969,-0.43359l-0.41016,0.94141c0,0 -2.09638,4.5888 -0.55273,8.95117c1.38589,3.91656 4.95805,5.83028 5.70703,6.19922c0.16281,0.29819 0.88706,1.65957 1.6582,3.58984c-2.65737,-1.93207 -5.72656,-2.32812 -5.72656,-2.32812l-1.01562,-0.14844l-0.12305,1.01953c0,0 -0.63925,4.65656 2.14844,8.14258c2.06753,2.58441 5.24174,3.58627 6.75,3.93359c-0.1233,2.28201 -0.53179,4.33068 -1.16211,6.19141c-0.7204,-3.28021 -3.08203,-5.5625 -3.08203,-5.5625l-0.70703,-0.70898l-0.70703,0.70898c0,0 -3.29297,3.16925 -3.29297,7.41406c0,2.98751 1.6123,5.40448 2.57813,6.5957c-1.20308,1.2781 -2.52216,2.44033 -3.88867,3.54492c0.89347,-3.34027 -0.35937,-6.49414 -0.35937,-6.49414l-0.36328,-0.95898l-0.94922,0.38672c0,0 -4.22438,1.62201 -5.97852,5.41406c-1.4457,3.12324 -0.63616,6.30338 -0.29297,7.375c-1.32941,0.92545 -2.58572,1.85444 -3.74609,2.81445c-1.16038,-0.96002 -2.41668,-1.88901 -3.74609,-2.81445c0.34319,-1.07162 1.15273,-4.25176 -0.29297,-7.375c-1.75414,-3.79206 -5.97852,-5.41406 -5.97852,-5.41406l-0.94922,-0.38672l-0.36328,0.95898c0,0 -1.25284,3.15387 -0.35937,6.49414c-1.36651,-1.1046 -2.68559,-2.26683 -3.88867,-3.54492c0.96582,-1.19122 2.57813,-3.60819 2.57813,-6.5957c0,-4.24481 -3.29297,-7.41406 -3.29297,-7.41406l-0.70703,-0.70898l-0.70703,0.70898c0,0 -2.36163,2.28229 -3.08203,5.5625c-0.63032,-1.86073 -1.03881,-3.9094 -1.16211,-6.19141c1.50826,-0.34732 4.68247,-1.34918 6.75,-3.93359c2.78777,-3.48613 2.14648,-8.14258 2.14648,-8.14258l-0.12305,-1.01953l-1.01367,0.14844c0,0 -3.05913,0.39511 -5.71289,2.32031c0.80721,-2.00842 1.48052,-3.28164 1.64453,-3.58203c0.74898,-0.36894 4.32114,-2.28265 5.70703,-6.19922c1.54364,-4.36237 -0.55273,-8.95117 -0.55273,-8.95117zM25.39063,10.56641c0.41595,1.27856 1.08058,3.74287 0.16992,6.31641c-0.89685,2.53452 -2.83949,3.87207 -3.95117,4.54297c-0.41595,-1.27856 -1.08058,-3.74287 -0.16992,-6.31641c0.89685,-2.53453 2.83949,-3.87207 3.95117,-4.54297zM54.60938,10.56641c1.11168,0.6709 3.05432,2.00844 3.95117,4.54297c0.91066,2.57353 0.24602,5.03784 -0.16992,6.31641c-1.11168,-0.6709 -3.05432,-2.00844 -3.95117,-4.54297c-0.91066,-2.57353 -0.24602,-5.03784 0.16992,-6.31641zM16,15c-0.55228,0 -1,0.44772 -1,1c0,0.55228 0.44772,1 1,1c0.55228,0 1,-0.44772 1,-1c0,-0.55228 -0.44772,-1 -1,-1zM64,15c-0.55228,0 -1,0.44772 -1,1c0,0.55228 0.44772,1 1,1c0.55228,0 1,-0.44772 1,-1c0,-0.55228 -0.44772,-1 -1,-1zM30,20c-0.55228,0 -1,0.44772 -1,1c0,0.55228 0.44772,1 1,1c0.55228,0 1,-0.44772 1,-1c0,-0.55228 -0.44772,-1 -1,-1zM50,20c-0.55228,0 -1,0.44772 -1,1c0,0.55228 0.44772,1 1,1c0.55228,0 1,-0.44772 1,-1c0,-0.55228 -0.44772,-1 -1,-1zM12.71875,21.60352c1.1022,0.75931 3.09628,2.28965 3.92773,4.84961c0.81886,2.52117 0.10453,4.73427 -0.36523,5.9375c-1.1022,-0.75931 -3.09628,-2.28965 -3.92773,-4.84961c-0.81886,-2.52117 -0.10454,-4.73427 0.36523,-5.9375zM67.28125,21.60352c0.46995,1.20316 1.1847,3.41451 0.36523,5.93555v0.00195c-0.83146,2.55996 -2.82554,4.0903 -3.92773,4.84961c-0.46977,-1.20323 -1.18409,-3.41633 -0.36523,-5.9375c0.83146,-2.55996 2.82554,-4.0903 3.92773,-4.84961zM24.92773,27.33008c0.0091,1.26894 -0.11574,3.47181 -1.69141,5.44336c-1.6044,2.0055 -3.88856,2.71085 -5.16406,3.03125c-0.0092,-1.26875 0.11556,-3.47307 1.69336,-5.44531c1.60446,-2.00558 3.8869,-2.70892 5.16211,-3.0293zM55.07227,27.33008c1.27595,0.32061 3.55812,1.02431 5.16211,3.0293c0.98612,1.23265 1.40515,2.55666 1.57813,3.68555c0.00093,0.00646 0.00102,0.01307 0.00195,0.01953c0.10101,0.66918 0.1167,1.26921 0.11328,1.74023c-1.2755,-0.3204 -3.55966,-1.02575 -5.16406,-3.03125c-1.57525,-1.97103 -1.70016,-4.1739 -1.69141,-5.44336zM9,30c-0.55228,0 -1,0.44772 -1,1c0,0.55228 0.44772,1 1,1c0.55228,0 1,-0.44772 1,-1c0,-0.55228 -0.44772,-1 -1,-1zM71,30c-0.55228,0 -1,0.44772 -1,1c0,0.55228 0.44772,1 1,1c0.55228,0 1,-0.44772 1,-1c0,-0.55228 -0.44772,-1 -1,-1zM27,35c-0.55228,0 -1,0.44772 -1,1c0,0.55228 0.44772,1 1,1c0.55228,0 1,-0.44772 1,-1c0,-0.55228 -0.44772,-1 -1,-1zM53,35c-0.55228,0 -1,0.44772 -1,1c0,0.55228 0.44772,1 1,1c0.55228,0 1,-0.44772 1,-1c0,-0.55228 -0.44772,-1 -1,-1zM10.07227,37.33008c1.27552,0.32066 3.5585,1.02462 5.16211,3.0293c1.5778,1.97225 1.70256,4.17657 1.69336,5.44531c-1.2755,-0.3204 -3.55966,-1.02575 -5.16406,-3.03125c-1.57567,-1.97155 -1.70054,-4.17442 -1.69141,-5.44336zM69.92773,37.33008c0.0087,1.26946 -0.11615,3.47233 -1.69141,5.44336c-1.6044,2.0055 -3.88856,2.71085 -5.16406,3.03125c-0.0092,-1.26875 0.11556,-3.47307 1.69336,-5.44531c1.60399,-2.00498 3.88616,-2.70868 5.16211,-3.0293zM23,40.94531c0.77191,0.968 2,2.71589 2,5.05469c0,2.31 -1.19551,4.0367 -1.96875,5.01172c-0.28331,-0.35042 -0.55897,-0.70916 -0.82422,-1.07617c-0.61814,-0.98993 -1.20703,-2.31689 -1.20703,-3.93555c0,-2.3388 1.22809,-4.08669 2,-5.05469zM57,40.94531c0.7719,0.968 2,2.71589 2,5.05469c0,1.61866 -0.58889,2.94561 -1.20703,3.93555c-0.26525,0.36701 -0.54091,0.72575 -0.82422,1.07617c-0.77324,-0.97502 -1.96875,-2.70172 -1.96875,-5.01172c0,-2.3388 1.2281,-4.08669 2,-5.05469zM31,44c-0.55228,0 -1,0.44772 -1,1c0,0.55228 0.44772,1 1,1c0.55228,0 1,-0.44772 1,-1c0,-0.55228 -0.44772,-1 -1,-1zM49,44c-0.55228,0 -1,0.44772 -1,1c0,0.55228 0.44772,1 1,1c0.55228,0 1,-0.44772 1,-1c0,-0.55228 -0.44772,-1 -1,-1zM10,47c-0.55228,0 -1,0.44772 -1,1c0,0.55228 0.44772,1 1,1c0.55228,0 1,-0.44772 1,-1c0,-0.55228 -0.44772,-1 -1,-1zM70,47c-0.55228,0 -1,0.44772 -1,1c0,0.55228 0.44772,1 1,1c0.55228,0 1,-0.44772 1,-1c0,-0.55228 -0.44772,-1 -1,-1zM30.2832,51.53711c1.10507,0.59904 2.90327,1.71568 3.86328,3.79102c0.94212,2.03533 0.61825,3.95979 0.33398,5.13477c-1.10488,-0.59903 -2.90251,-1.7154 -3.86328,-3.79102c-0.94207,-2.03521 -0.61824,-3.95972 -0.33398,-5.13477zM49.7168,51.53711c0.28426,1.17505 0.60809,3.09955 -0.33398,5.13477c-0.96077,2.07562 -2.7584,3.19199 -3.86328,3.79102c-0.28426,-1.17498 -0.60814,-3.09943 0.33398,-5.13477c0.96001,-2.07534 2.75821,-3.19197 3.86328,-3.79102zM17.17578,52.02344c0.83909,-0.04621 1.71291,0.01322 2.55273,0.25c2.50615,0.7066 3.92717,2.48947 4.66406,3.54102c-1.23625,0.49 -3.57402,1.27868 -6.12109,0.56055c-2.50561,-0.70645 -3.92689,-2.48922 -4.66406,-3.54102c0.82855,-0.32843 1.86239,-0.7166 3.56836,-0.81055zM62.82422,52.02344c1.70597,0.09395 2.73981,0.48212 3.56836,0.81055c-0.73717,1.0518 -2.15845,2.83457 -4.66406,3.54102c-2.54707,0.71813 -4.88485,-0.07055 -6.12109,-0.56055c0.73689,-1.05155 2.15791,-2.83442 4.66406,-3.54102c0.83983,-0.23678 1.71365,-0.29621 2.55273,-0.25zM40,59c-0.55228,0 -1,0.44772 -1,1c0,0.55228 0.44772,1 1,1c0.55228,0 1,-0.44772 1,-1c0,-0.55228 -0.44772,-1 -1,-1zM17,60c-0.55228,0 -1,0.44772 -1,1c0,0.55228 0.44772,1 1,1c0.55228,0 1,-0.44772 1,-1c0,-0.55228 -0.44772,-1 -1,-1zM63,60c-0.55228,0 -1,0.44772 -1,1c0,0.55228 0.44772,1 1,1c0.55228,0 1,-0.44772 1,-1c0,-0.55228 -0.44772,-1 -1,-1zM27.91406,61.00391c2.38098,-0.06343 4.11295,1.07993 5.09961,1.83008c-1.00763,0.80121 -2.84406,2.10145 -5.26758,2.16602c-2.3812,0.06281 -4.11487,-1.08205 -5.10156,-1.83203c1.00695,-0.80089 2.84493,-2.09947 5.26953,-2.16406zM52.08594,61.00391c2.4246,0.0646 4.26258,1.36317 5.26953,2.16406c-0.9867,0.74998 -2.72037,1.89484 -5.10156,1.83203c-2.42352,-0.06457 -4.25995,-1.3648 -5.26758,-2.16602c0.98666,-0.75015 2.71863,-1.89351 5.09961,-1.83008zM34,73c-0.55228,0 -1,0.44772 -1,1c0,0.55228 0.44772,1 1,1c0.55228,0 1,-0.44772 1,-1c0,-0.55228 -0.44772,-1 -1,-1zM46,73c-0.55228,0 -1,0.44772 -1,1c0,0.55228 0.44772,1 1,1c0.55228,0 1,-0.44772 1,-1c0,-0.55228 -0.44772,-1 -1,-1z"></path></g></g></svg>