<svg xmlns="http://www.w3.org/2000/svg" xmlns:xlink="http://www.w3.org/1999/xlink" width="500" zoomAndPan="magnify" viewBox="0 0 375 374.999991" height="500" preserveAspectRatio="xMidYMid meet" version="1.0"><defs><clipPath id="45f6b6a11e"><path d="M 11.5625 12.171875 L 124.0625 12.171875 L 124.0625 124.671875 L 11.5625 124.671875 Z M 11.5625 12.171875 " clip-rule="nonzero"/></clipPath></defs><g clip-path="url(#45f6b6a11e)"><path fill="#000000" d="M 100.699219 66.609375 C 97.976562 55.265625 91.738281 44.980469 82.941406 37.316406 C 83.683594 36.386719 84.144531 35.226562 84.144531 33.949219 C 84.144531 31.933594 83.027344 30.1875 81.394531 29.25 C 83.582031 25.769531 86.714844 22.898438 90.398438 21.054688 L 92.238281 20.136719 L 89.734375 16.386719 C 87.976562 13.75 85.035156 12.171875 81.867188 12.171875 C 79.375 12.171875 76.9375 13.183594 75.175781 14.945312 L 75.066406 15.054688 C 73.117188 13.222656 70.492188 12.171875 67.8125 12.171875 C 65.132812 12.171875 62.507812 13.222656 60.558594 15.054688 L 60.445312 14.941406 C 58.6875 13.183594 56.25 12.171875 53.757812 12.171875 C 50.589844 12.171875 47.644531 13.75 45.886719 16.386719 L 43.386719 20.136719 L 45.226562 21.054688 C 48.910156 22.898438 52.039062 25.769531 54.230469 29.25 C 52.59375 30.1875 51.480469 31.933594 51.480469 33.949219 C 51.480469 35.226562 51.941406 36.386719 52.679688 37.316406 C 43.882812 44.980469 37.648438 55.265625 34.925781 66.609375 L 11.5625 66.609375 L 11.5625 124.671875 L 124.0625 124.671875 L 124.0625 66.609375 Z M 76.882812 48.464844 C 76.882812 49.464844 76.070312 50.277344 75.070312 50.277344 C 74.070312 50.277344 73.253906 49.464844 73.253906 48.464844 C 73.253906 47.464844 74.070312 46.648438 75.070312 46.648438 C 76.070312 46.648438 76.882812 47.464844 76.882812 48.464844 Z M 56.925781 35.761719 C 55.921875 35.761719 55.109375 34.949219 55.109375 33.949219 C 55.109375 32.949219 55.921875 32.132812 56.925781 32.132812 L 78.699219 32.132812 C 79.699219 32.132812 80.511719 32.949219 80.511719 33.949219 C 80.511719 34.949219 79.699219 35.761719 78.699219 35.761719 Z M 48.644531 18.796875 L 48.910156 18.398438 C 49.992188 16.773438 51.804688 15.804688 53.757812 15.804688 C 55.292969 15.804688 56.796875 16.425781 57.882812 17.511719 L 60.554688 20.183594 L 62.898438 17.839844 C 64.195312 16.542969 65.984375 15.804688 67.8125 15.804688 C 69.640625 15.804688 71.429688 16.542969 72.722656 17.835938 L 75.070312 20.183594 L 77.742188 17.511719 C 78.824219 16.425781 80.332031 15.804688 81.867188 15.804688 C 83.816406 15.804688 85.632812 16.773438 86.714844 18.398438 L 86.980469 18.796875 C 83.085938 21.148438 79.839844 24.527344 77.625 28.503906 L 58 28.503906 C 55.785156 24.527344 52.539062 21.148438 48.644531 18.796875 Z M 55.761719 39.390625 L 61.496094 39.390625 C 59.730469 42.074219 58.972656 45.757812 58.792969 48.78125 C 56.65625 49.519531 55.109375 51.527344 55.109375 53.90625 C 55.109375 56.910156 57.550781 59.351562 60.554688 59.351562 C 63.554688 59.351562 65.996094 56.910156 65.996094 53.90625 C 65.996094 51.574219 64.515625 49.597656 62.449219 48.824219 C 62.695312 45.867188 63.703125 39.390625 67.8125 39.390625 C 71.511719 39.390625 72.695312 41.753906 73.074219 43.410156 C 71.058594 44.210938 69.625 46.167969 69.625 48.464844 C 69.625 51.464844 72.070312 53.90625 75.070312 53.90625 C 78.070312 53.90625 80.511719 51.464844 80.511719 48.464844 C 80.511719 46.050781 78.925781 44.023438 76.75 43.3125 C 76.542969 42.0625 76.070312 40.65625 75.21875 39.390625 L 79.859375 39.390625 C 88.253906 46.433594 94.230469 56.019531 96.957031 66.609375 L 38.667969 66.609375 C 41.394531 56.019531 47.371094 46.433594 55.761719 39.390625 Z M 62.367188 53.90625 C 62.367188 54.90625 61.554688 55.722656 60.554688 55.722656 C 59.550781 55.722656 58.738281 54.90625 58.738281 53.90625 C 58.738281 52.90625 59.550781 52.09375 60.554688 52.09375 C 61.554688 52.09375 62.367188 52.90625 62.367188 53.90625 Z M 120.433594 121.042969 L 15.191406 121.042969 L 15.191406 70.238281 L 120.433594 70.238281 Z M 120.433594 121.042969 " fill-opacity="1" fill-rule="nonzero"/></g><path fill="#000000" d="M 116.804688 117.414062 L 116.804688 73.867188 L 18.820312 73.867188 L 18.820312 117.414062 Z M 106.101562 113.785156 C 106.824219 110.238281 109.625 107.4375 113.175781 106.710938 L 113.175781 113.785156 Z M 113.175781 84.570312 C 109.625 83.847656 106.824219 81.046875 106.101562 77.496094 L 113.175781 77.496094 Z M 102.433594 77.496094 C 103.234375 83.046875 107.625 87.4375 113.175781 88.238281 L 113.175781 103.042969 C 107.625 103.84375 103.234375 108.234375 102.433594 113.785156 L 79.824219 113.785156 C 85.699219 109.882812 89.585938 103.210938 89.585938 95.640625 C 89.585938 88.074219 85.699219 81.398438 79.824219 77.496094 Z M 67.8125 113.785156 C 57.808594 113.785156 49.667969 105.648438 49.667969 95.640625 C 49.667969 85.636719 57.808594 77.496094 67.8125 77.496094 C 77.816406 77.496094 85.957031 85.636719 85.957031 95.640625 C 85.957031 105.648438 77.816406 113.785156 67.8125 113.785156 Z M 29.523438 77.496094 C 28.800781 81.046875 26 83.847656 22.449219 84.570312 L 22.449219 77.496094 Z M 22.449219 106.710938 C 26 107.4375 28.800781 110.238281 29.523438 113.785156 L 22.449219 113.785156 Z M 33.191406 113.785156 C 32.390625 108.234375 28 103.84375 22.449219 103.042969 L 22.449219 88.238281 C 28 87.4375 32.390625 83.046875 33.191406 77.496094 L 55.800781 77.496094 C 49.925781 81.398438 46.039062 88.074219 46.039062 95.640625 C 46.039062 103.210938 49.925781 109.882812 55.800781 113.785156 Z M 33.191406 113.785156 " fill-opacity="1" fill-rule="nonzero"/><path fill="#000000" d="M 60.554688 84.753906 L 64.183594 84.753906 C 66.546875 84.753906 68.542969 86.277344 69.292969 88.382812 L 60.554688 88.382812 L 60.554688 92.011719 L 69.292969 92.011719 C 68.542969 94.117188 66.546875 95.640625 64.183594 95.640625 L 60.554688 95.640625 L 60.199219 99.234375 C 64.890625 100.175781 68.574219 103.972656 69.359375 108.695312 L 69.652344 110.457031 L 73.230469 109.855469 L 72.9375 108.097656 C 72.308594 104.320312 70.269531 100.992188 67.378906 98.6875 C 70.257812 97.601562 72.425781 95.082031 73.050781 92.011719 L 76.882812 92.011719 L 76.882812 88.382812 L 73.050781 88.382812 C 72.777344 87.042969 72.230469 85.808594 71.4375 84.753906 L 76.882812 84.753906 L 76.882812 81.125 L 60.554688 81.125 Z M 60.554688 84.753906 " fill-opacity="1" fill-rule="nonzero"/></svg>