<svg xmlns="http://www.w3.org/2000/svg" xmlns:xlink="http://www.w3.org/1999/xlink" width="500" zoomAndPan="magnify" viewBox="0 0 375 374.999991" height="500" preserveAspectRatio="xMidYMid meet" version="1.0"><defs><clipPath id="1d63c36d13"><path d="M 8.503906 47 L 121.003906 47 L 121.003906 49 L 8.503906 49 Z M 8.503906 47 " clip-rule="nonzero"/></clipPath><clipPath id="ae8ffeecc8"><path d="M 8.503906 11.316406 L 121.003906 11.316406 L 121.003906 82.566406 L 8.503906 82.566406 Z M 8.503906 11.316406 " clip-rule="nonzero"/></clipPath><clipPath id="e78d37a7d6"><path d="M 8.503906 45 L 10 45 L 10 51 L 8.503906 51 Z M 8.503906 45 " clip-rule="nonzero"/></clipPath></defs><g clip-path="url(#1d63c36d13)"><path stroke-linecap="round" transform="matrix(0.0565412, 0, 0, 0.0568293, 8.491958, 11.344407)" fill="none" stroke-linejoin="round" d="M 10.02165 647.005821 L 1980.032037 647.005821 " stroke="#000000" stroke-width="19.690001" stroke-opacity="1" stroke-miterlimit="4"/></g><path stroke-linecap="round" transform="matrix(0.0565412, 0, 0, 0.0568293, 8.491958, 11.344407)" fill="none" stroke-linejoin="round" d="M 798.025805 607.001135 L 798.025805 687.97282 " stroke="#000000" stroke-width="19.59" stroke-opacity="1" stroke-miterlimit="4"/><path stroke-linecap="round" transform="matrix(0.0565412, 0, 0, 0.0568293, 8.491958, 11.344407)" fill="none" stroke-linejoin="round" d="M 1192.027882 607.001135 L 1192.027882 687.97282 " stroke="#000000" stroke-width="19.59" stroke-opacity="1" stroke-miterlimit="4"/><path stroke-linecap="round" transform="matrix(0.0565412, 0, 0, 0.0568293, 8.491958, 11.344407)" fill="none" stroke-linejoin="round" d="M 1586.02996 607.001135 L 1586.02996 687.97282 " stroke="#000000" stroke-width="19.59" stroke-opacity="1" stroke-miterlimit="4"/><path stroke-linecap="round" transform="matrix(0.0565412, 0, 0, 0.0568293, 8.491958, 11.344407)" fill="none" stroke-linejoin="round" d="M 444.024991 169.973994 L 362.986163 169.973994 " stroke="#000000" stroke-width="19.59" stroke-opacity="1" stroke-miterlimit="4"/><path stroke-linecap="round" transform="matrix(0.0565412, 0, 0, 0.0568293, 8.491958, 11.344407)" fill="none" stroke-linejoin="round" d="M 404.023728 1123.968911 L 404.023728 169.973994 " stroke="#000000" stroke-width="19.59" stroke-opacity="1" stroke-miterlimit="4"/><path stroke-linecap="round" transform="matrix(0.0565412, 0, 0, 0.0568293, 8.491958, 11.344407)" fill="none" stroke-linejoin="round" d="M 444.024991 1123.968911 L 362.986163 1123.968911 " stroke="#000000" stroke-width="19.59" stroke-opacity="1" stroke-miterlimit="4"/><g clip-path="url(#ae8ffeecc8)"><path stroke-linecap="butt" transform="matrix(0.0565412, 0, 0, 0.0568293, 8.491958, 11.344407)" fill="none" stroke-linejoin="miter" d="M 10.02165 647.005821 L 404.023728 647.005821 C 939.9992 647.005821 853.018906 -13.002767 965.97584 41.986493 C 1079.001861 96.975752 1182.97751 1214.013824 1329.027027 1214.013824 C 1475.007456 1214.013824 1334.968492 647.005821 1980.032037 647.005821 " stroke="#000000" stroke-width="78.370003" stroke-opacity="1" stroke-miterlimit="4"/></g><g clip-path="url(#e78d37a7d6)"><path stroke-linecap="round" transform="matrix(0.0565412, 0, 0, 0.0568293, 8.491958, 11.344407)" fill="none" stroke-linejoin="round" d="M 10.02165 607.001135 L 10.02165 687.97282 " stroke="#000000" stroke-width="19.59" stroke-opacity="1" stroke-miterlimit="4"/></g><path stroke-linecap="round" transform="matrix(0.0565412, 0, 0, 0.0568293, 8.491958, 11.344407)" fill="none" stroke-linejoin="round" d="M 1980.032037 607.001135 L 1980.032037 687.97282 " stroke="#000000" stroke-width="19.59" stroke-opacity="1" stroke-miterlimit="4"/></svg>