<svg xmlns="http://www.w3.org/2000/svg" xmlns:xlink="http://www.w3.org/1999/xlink" width="500" zoomAndPan="magnify" viewBox="0 0 375 374.999991" height="500" preserveAspectRatio="xMidYMid meet" version="1.0"><defs><clipPath id="c10141ea9a"><path d="M 85 9.113281 L 119.167969 9.113281 L 119.167969 43 L 85 43 Z M 85 9.113281 " clip-rule="nonzero"/></clipPath><clipPath id="8edac1c354"><path d="M 6.667969 87 L 41 87 L 41 121.613281 L 6.667969 121.613281 Z M 6.667969 87 " clip-rule="nonzero"/></clipPath><clipPath id="d50e9d64ea"><path d="M 6.667969 16 L 75 16 L 75 79 L 6.667969 79 Z M 6.667969 16 " clip-rule="nonzero"/></clipPath><clipPath id="d26a253724"><path d="M 51 52 L 119.167969 52 L 119.167969 115 L 51 115 Z M 51 52 " clip-rule="nonzero"/></clipPath></defs><g clip-path="url(#c10141ea9a)"><path fill="#000000" d="M 102.292969 9.113281 C 101.742188 9.113281 101.1875 9.140625 100.640625 9.195312 C 100.089844 9.25 99.542969 9.332031 99 9.4375 C 98.457031 9.546875 97.921875 9.679688 97.394531 9.839844 C 96.867188 10.003906 96.347656 10.1875 95.835938 10.398438 C 95.324219 10.609375 94.824219 10.847656 94.339844 11.109375 C 93.851562 11.367188 93.378906 11.652344 92.917969 11.957031 C 92.457031 12.265625 92.015625 12.59375 91.585938 12.945312 C 91.160156 13.296875 90.75 13.667969 90.359375 14.058594 C 89.96875 14.449219 89.597656 14.855469 89.25 15.285156 C 88.898438 15.710938 88.570312 16.15625 88.261719 16.613281 C 87.953125 17.074219 87.671875 17.546875 87.410156 18.035156 C 87.148438 18.523438 86.914062 19.023438 86.703125 19.53125 C 86.492188 20.042969 86.304688 20.5625 86.144531 21.089844 C 85.984375 21.621094 85.851562 22.15625 85.742188 22.699219 C 85.632812 23.238281 85.554688 23.785156 85.5 24.335938 C 85.445312 24.886719 85.417969 25.4375 85.417969 25.988281 C 85.417969 26.542969 85.445312 27.09375 85.5 27.644531 C 85.554688 28.195312 85.632812 28.738281 85.742188 29.28125 C 85.851562 29.824219 85.984375 30.359375 86.144531 30.886719 C 86.304688 31.417969 86.492188 31.9375 86.703125 32.449219 C 86.914062 32.957031 87.148438 33.457031 87.410156 33.945312 C 87.671875 34.433594 87.953125 34.90625 88.261719 35.363281 C 88.570312 35.824219 88.898438 36.269531 89.25 36.695312 C 89.597656 37.121094 89.96875 37.53125 90.359375 37.921875 C 90.75 38.3125 91.160156 38.683594 91.585938 39.035156 C 92.015625 39.386719 92.457031 39.714844 92.917969 40.019531 C 93.378906 40.328125 93.851562 40.613281 94.339844 40.871094 C 94.824219 41.132812 95.324219 41.367188 95.835938 41.582031 C 96.347656 41.792969 96.867188 41.976562 97.394531 42.136719 C 97.921875 42.296875 98.457031 42.433594 99 42.539062 C 99.542969 42.648438 100.089844 42.730469 100.640625 42.785156 C 101.1875 42.835938 101.742188 42.863281 102.292969 42.863281 C 102.84375 42.863281 103.398438 42.835938 103.945312 42.785156 C 104.496094 42.730469 105.042969 42.648438 105.585938 42.539062 C 106.128906 42.433594 106.664062 42.296875 107.191406 42.136719 C 107.71875 41.976562 108.238281 41.792969 108.75 41.582031 C 109.261719 41.367188 109.761719 41.132812 110.246094 40.871094 C 110.734375 40.613281 111.207031 40.328125 111.667969 40.019531 C 112.128906 39.714844 112.570312 39.386719 113 39.035156 C 113.425781 38.683594 113.835938 38.3125 114.226562 37.921875 C 114.617188 37.53125 114.988281 37.121094 115.335938 36.695312 C 115.6875 36.269531 116.015625 35.824219 116.324219 35.363281 C 116.632812 34.90625 116.914062 34.433594 117.175781 33.945312 C 117.4375 33.457031 117.671875 32.957031 117.882812 32.449219 C 118.09375 31.9375 118.28125 31.417969 118.441406 30.886719 C 118.601562 30.359375 118.734375 29.824219 118.84375 29.28125 C 118.953125 28.738281 119.03125 28.195312 119.085938 27.644531 C 119.140625 27.09375 119.167969 26.542969 119.167969 25.988281 C 119.167969 25.4375 119.140625 24.886719 119.085938 24.335938 C 119.03125 23.785156 118.953125 23.238281 118.84375 22.699219 C 118.734375 22.15625 118.601562 21.621094 118.441406 21.089844 C 118.28125 20.5625 118.09375 20.042969 117.882812 19.53125 C 117.671875 19.023438 117.4375 18.523438 117.175781 18.035156 C 116.914062 17.546875 116.632812 17.074219 116.324219 16.613281 C 116.015625 16.15625 115.6875 15.710938 115.335938 15.285156 C 114.988281 14.855469 114.617188 14.449219 114.226562 14.058594 C 113.835938 13.667969 113.425781 13.296875 113 12.945312 C 112.570312 12.59375 112.128906 12.265625 111.667969 11.957031 C 111.207031 11.652344 110.734375 11.367188 110.246094 11.109375 C 109.761719 10.847656 109.261719 10.609375 108.75 10.398438 C 108.238281 10.1875 107.71875 10.003906 107.191406 9.839844 C 106.664062 9.679688 106.128906 9.546875 105.585938 9.4375 C 105.042969 9.332031 104.496094 9.25 103.945312 9.195312 C 103.398438 9.140625 102.84375 9.113281 102.292969 9.113281 Z M 100.886719 24.113281 L 103.699219 24.113281 C 104.082031 24.101562 104.464844 24.125 104.847656 24.183594 C 105.226562 24.246094 105.597656 24.34375 105.957031 24.476562 C 106.316406 24.609375 106.664062 24.777344 106.992188 24.976562 C 107.320312 25.179688 107.625 25.410156 107.90625 25.671875 C 108.1875 25.929688 108.445312 26.21875 108.671875 26.527344 C 108.898438 26.839844 109.089844 27.167969 109.253906 27.519531 C 109.414062 27.867188 109.542969 28.230469 109.632812 28.601562 C 109.722656 28.976562 109.777344 29.355469 109.792969 29.738281 C 109.777344 30.105469 109.730469 30.464844 109.648438 30.820312 C 109.566406 31.171875 109.453125 31.519531 109.304688 31.851562 C 109.160156 32.183594 108.984375 32.503906 108.777344 32.800781 C 108.570312 33.101562 108.335938 33.382812 108.078125 33.636719 C 107.820312 33.894531 107.539062 34.125 107.238281 34.328125 C 106.9375 34.53125 106.617188 34.707031 106.285156 34.851562 C 105.949219 34.996094 105.601562 35.105469 105.246094 35.1875 C 104.890625 35.265625 104.53125 35.308594 104.167969 35.320312 L 104.167969 37.238281 L 100.417969 37.238281 L 100.417969 35.320312 C 100.054688 35.308594 99.695312 35.265625 99.339844 35.1875 C 98.984375 35.105469 98.636719 34.996094 98.300781 34.851562 C 97.96875 34.707031 97.648438 34.53125 97.347656 34.328125 C 97.046875 34.125 96.765625 33.894531 96.507812 33.636719 C 96.25 33.382812 96.015625 33.101562 95.808594 32.800781 C 95.601562 32.503906 95.425781 32.183594 95.28125 31.851562 C 95.132812 31.519531 95.019531 31.171875 94.9375 30.820312 C 94.855469 30.464844 94.808594 30.105469 94.792969 29.738281 L 98.542969 29.738281 C 98.578125 30.019531 98.664062 30.28125 98.800781 30.523438 C 98.9375 30.769531 99.113281 30.980469 99.332031 31.152344 C 99.550781 31.328125 99.796875 31.457031 100.066406 31.535156 C 100.332031 31.617188 100.609375 31.640625 100.886719 31.613281 L 103.699219 31.613281 C 103.976562 31.640625 104.253906 31.617188 104.519531 31.535156 C 104.789062 31.457031 105.035156 31.328125 105.253906 31.152344 C 105.472656 30.980469 105.648438 30.769531 105.785156 30.523438 C 105.921875 30.28125 106.007812 30.019531 106.042969 29.738281 C 106.007812 29.460938 105.921875 29.199219 105.785156 28.957031 C 105.648438 28.710938 105.472656 28.5 105.253906 28.324219 C 105.035156 28.152344 104.789062 28.023438 104.519531 27.945312 C 104.253906 27.863281 103.976562 27.835938 103.699219 27.863281 L 100.886719 27.863281 C 100.503906 27.878906 100.121094 27.855469 99.738281 27.796875 C 99.359375 27.734375 98.988281 27.636719 98.628906 27.503906 C 98.269531 27.371094 97.921875 27.203125 97.59375 27.003906 C 97.265625 26.800781 96.960938 26.570312 96.679688 26.308594 C 96.398438 26.046875 96.140625 25.761719 95.914062 25.453125 C 95.6875 25.140625 95.496094 24.8125 95.332031 24.460938 C 95.171875 24.113281 95.042969 23.75 94.953125 23.378906 C 94.863281 23.003906 94.808594 22.625 94.792969 22.238281 C 94.808594 21.875 94.855469 21.515625 94.9375 21.160156 C 95.019531 20.804688 95.132812 20.460938 95.28125 20.128906 C 95.425781 19.792969 95.601562 19.476562 95.808594 19.175781 C 96.015625 18.878906 96.25 18.597656 96.507812 18.34375 C 96.765625 18.085938 97.046875 17.855469 97.347656 17.652344 C 97.648438 17.445312 97.96875 17.273438 98.300781 17.128906 C 98.636719 16.984375 98.984375 16.875 99.339844 16.792969 C 99.695312 16.714844 100.054688 16.667969 100.417969 16.65625 L 100.417969 14.738281 L 104.167969 14.738281 L 104.167969 16.65625 C 104.53125 16.667969 104.890625 16.714844 105.246094 16.792969 C 105.601562 16.875 105.949219 16.984375 106.285156 17.128906 C 106.617188 17.273438 106.9375 17.445312 107.238281 17.652344 C 107.539062 17.855469 107.820312 18.085938 108.078125 18.34375 C 108.335938 18.597656 108.570312 18.878906 108.777344 19.175781 C 108.984375 19.476562 109.160156 19.792969 109.304688 20.128906 C 109.453125 20.460938 109.566406 20.804688 109.648438 21.160156 C 109.730469 21.515625 109.777344 21.875 109.792969 22.238281 L 106.042969 22.238281 C 106.007812 21.960938 105.921875 21.699219 105.785156 21.457031 C 105.648438 21.210938 105.472656 21 105.253906 20.824219 C 105.035156 20.652344 104.789062 20.523438 104.519531 20.445312 C 104.253906 20.363281 103.976562 20.335938 103.699219 20.363281 L 100.886719 20.363281 C 100.609375 20.335938 100.332031 20.363281 100.066406 20.445312 C 99.796875 20.523438 99.550781 20.652344 99.332031 20.824219 C 99.113281 21 98.9375 21.210938 98.800781 21.457031 C 98.664062 21.699219 98.578125 21.960938 98.542969 22.238281 C 98.578125 22.519531 98.664062 22.78125 98.800781 23.023438 C 98.9375 23.269531 99.113281 23.480469 99.332031 23.652344 C 99.550781 23.828125 99.796875 23.957031 100.066406 24.035156 C 100.332031 24.117188 100.609375 24.140625 100.886719 24.113281 Z M 100.886719 24.113281 " fill-opacity="1" fill-rule="nonzero"/></g><g clip-path="url(#8edac1c354)"><path fill="#000000" d="M 38.589844 101.308594 L 39.570312 100.765625 C 39.761719 100.664062 39.925781 100.53125 40.0625 100.359375 C 40.199219 100.191406 40.296875 100.003906 40.355469 99.792969 C 40.414062 99.582031 40.429688 99.371094 40.402344 99.15625 C 40.371094 98.941406 40.304688 98.738281 40.191406 98.550781 L 37.472656 94.050781 C 37.355469 93.863281 37.203125 93.703125 37.023438 93.574219 C 36.84375 93.441406 36.648438 93.351562 36.433594 93.296875 C 36.21875 93.238281 36 93.226562 35.777344 93.253906 C 35.558594 93.285156 35.351562 93.351562 35.15625 93.460938 L 34.164062 94.007812 C 33.855469 94.171875 33.523438 94.238281 33.175781 94.210938 C 32.828125 94.183594 32.511719 94.0625 32.234375 93.851562 C 31.25 93.128906 30.191406 92.542969 29.0625 92.089844 C 28.738281 91.972656 28.476562 91.777344 28.273438 91.5 C 28.074219 91.222656 27.96875 90.914062 27.957031 90.570312 L 27.957031 89.484375 C 27.953125 89.265625 27.90625 89.054688 27.816406 88.855469 C 27.726562 88.65625 27.605469 88.480469 27.445312 88.328125 C 27.289062 88.175781 27.109375 88.058594 26.902344 87.980469 C 26.699219 87.898438 26.488281 87.859375 26.269531 87.863281 L 20.824219 87.863281 C 20.605469 87.859375 20.394531 87.898438 20.191406 87.980469 C 19.984375 88.058594 19.804688 88.175781 19.648438 88.328125 C 19.488281 88.480469 19.367188 88.65625 19.277344 88.855469 C 19.1875 89.054688 19.140625 89.265625 19.136719 89.484375 L 19.136719 90.570312 C 19.125 90.914062 19.019531 91.222656 18.820312 91.5 C 18.617188 91.777344 18.355469 91.972656 18.03125 92.089844 C 16.902344 92.542969 15.84375 93.128906 14.859375 93.851562 C 14.582031 94.0625 14.265625 94.183594 13.917969 94.210938 C 13.570312 94.238281 13.238281 94.171875 12.929688 94.007812 L 11.9375 93.460938 C 11.742188 93.351562 11.535156 93.285156 11.316406 93.253906 C 11.09375 93.226562 10.875 93.238281 10.660156 93.296875 C 10.445312 93.351562 10.25 93.441406 10.070312 93.574219 C 9.890625 93.703125 9.738281 93.863281 9.621094 94.050781 L 6.902344 98.550781 C 6.789062 98.738281 6.71875 98.941406 6.691406 99.15625 C 6.664062 99.371094 6.679688 99.582031 6.738281 99.792969 C 6.796875 100.003906 6.894531 100.191406 7.03125 100.359375 C 7.167969 100.53125 7.332031 100.664062 7.523438 100.765625 L 8.503906 101.308594 C 8.796875 101.460938 9.015625 101.679688 9.167969 101.96875 C 9.320312 102.253906 9.378906 102.5625 9.339844 102.886719 C 9.160156 104.121094 9.160156 105.359375 9.339844 106.59375 C 9.378906 106.917969 9.320312 107.226562 9.167969 107.511719 C 9.015625 107.800781 8.796875 108.019531 8.503906 108.171875 L 7.523438 108.714844 C 7.328125 108.8125 7.164062 108.949219 7.027344 109.117188 C 6.890625 109.285156 6.792969 109.476562 6.730469 109.683594 C 6.671875 109.894531 6.65625 110.105469 6.6875 110.324219 C 6.714844 110.539062 6.785156 110.742188 6.894531 110.925781 L 9.613281 115.425781 C 9.730469 115.617188 9.882812 115.773438 10.0625 115.90625 C 10.242188 116.035156 10.4375 116.128906 10.652344 116.183594 C 10.867188 116.238281 11.085938 116.253906 11.308594 116.226562 C 11.527344 116.195312 11.734375 116.128906 11.929688 116.019531 L 12.921875 115.472656 C 13.234375 115.308594 13.5625 115.242188 13.910156 115.269531 C 14.257812 115.296875 14.574219 115.417969 14.851562 115.628906 C 15.835938 116.351562 16.894531 116.9375 18.023438 117.390625 C 18.347656 117.507812 18.609375 117.703125 18.8125 117.980469 C 19.011719 118.257812 19.117188 118.566406 19.128906 118.910156 L 19.128906 119.996094 C 19.132812 120.214844 19.179688 120.425781 19.269531 120.625 C 19.359375 120.824219 19.480469 121 19.640625 121.152344 C 19.796875 121.304688 19.976562 121.421875 20.183594 121.5 C 20.386719 121.582031 20.597656 121.617188 20.816406 121.613281 L 26.253906 121.613281 C 26.472656 121.617188 26.683594 121.582031 26.890625 121.5 C 27.09375 121.421875 27.273438 121.304688 27.433594 121.152344 C 27.589844 121 27.714844 120.824219 27.800781 120.625 C 27.890625 120.425781 27.9375 120.214844 27.941406 119.996094 L 27.941406 118.910156 C 27.953125 118.566406 28.058594 118.257812 28.261719 117.980469 C 28.460938 117.703125 28.722656 117.507812 29.046875 117.390625 C 30.179688 116.9375 31.234375 116.351562 32.21875 115.628906 C 32.496094 115.417969 32.8125 115.296875 33.160156 115.269531 C 33.507812 115.242188 33.839844 115.308594 34.148438 115.472656 L 35.140625 116.019531 C 35.335938 116.128906 35.542969 116.195312 35.765625 116.226562 C 35.984375 116.253906 36.203125 116.238281 36.417969 116.183594 C 36.632812 116.128906 36.832031 116.035156 37.011719 115.90625 C 37.191406 115.773438 37.339844 115.617188 37.457031 115.425781 L 40.175781 110.925781 C 40.289062 110.742188 40.359375 110.539062 40.386719 110.324219 C 40.414062 110.109375 40.402344 109.894531 40.34375 109.6875 C 40.28125 109.476562 40.1875 109.289062 40.050781 109.117188 C 39.914062 108.949219 39.746094 108.816406 39.554688 108.714844 L 38.574219 108.171875 C 38.285156 108.019531 38.0625 107.800781 37.910156 107.511719 C 37.757812 107.226562 37.699219 106.917969 37.738281 106.59375 C 37.917969 105.359375 37.917969 104.121094 37.738281 102.886719 C 37.703125 102.558594 37.761719 102.253906 37.914062 101.964844 C 38.070312 101.675781 38.296875 101.457031 38.589844 101.308594 Z M 23.542969 111.300781 C 23.113281 111.300781 22.683594 111.261719 22.261719 111.175781 C 21.839844 111.09375 21.429688 110.96875 21.03125 110.804688 C 20.632812 110.636719 20.253906 110.4375 19.898438 110.195312 C 19.539062 109.957031 19.207031 109.683594 18.902344 109.378906 C 18.597656 109.074219 18.324219 108.746094 18.085938 108.386719 C 17.847656 108.027344 17.644531 107.648438 17.480469 107.25 C 17.316406 106.851562 17.191406 106.441406 17.105469 106.019531 C 17.023438 105.597656 16.980469 105.171875 16.980469 104.738281 C 16.980469 104.308594 17.023438 103.882812 17.105469 103.460938 C 17.191406 103.035156 17.316406 102.625 17.480469 102.230469 C 17.644531 101.832031 17.847656 101.453125 18.085938 101.09375 C 18.324219 100.734375 18.597656 100.402344 18.902344 100.097656 C 19.207031 99.792969 19.539062 99.523438 19.898438 99.285156 C 20.253906 99.042969 20.632812 98.84375 21.03125 98.675781 C 21.429688 98.511719 21.839844 98.386719 22.261719 98.304688 C 22.683594 98.21875 23.113281 98.175781 23.542969 98.175781 C 23.972656 98.175781 24.402344 98.21875 24.824219 98.304688 C 25.246094 98.386719 25.65625 98.511719 26.054688 98.675781 C 26.453125 98.84375 26.832031 99.042969 27.1875 99.285156 C 27.546875 99.523438 27.878906 99.792969 28.183594 100.097656 C 28.488281 100.402344 28.761719 100.734375 29 101.09375 C 29.238281 101.453125 29.441406 101.832031 29.605469 102.230469 C 29.769531 102.625 29.894531 103.035156 29.980469 103.460938 C 30.0625 103.882812 30.105469 104.308594 30.105469 104.738281 C 30.105469 105.171875 30.0625 105.597656 29.980469 106.019531 C 29.894531 106.441406 29.769531 106.851562 29.605469 107.25 C 29.441406 107.648438 29.238281 108.027344 29 108.386719 C 28.761719 108.746094 28.488281 109.074219 28.183594 109.378906 C 27.878906 109.683594 27.546875 109.957031 27.1875 110.195312 C 26.832031 110.4375 26.453125 110.636719 26.054688 110.804688 C 25.65625 110.96875 25.246094 111.09375 24.824219 111.175781 C 24.402344 111.261719 23.972656 111.300781 23.542969 111.300781 Z M 23.542969 111.300781 " fill-opacity="1" fill-rule="nonzero"/></g><g clip-path="url(#d50e9d64ea)"><path fill="#000000" d="M 25.417969 63.488281 L 17.964844 63.488281 C 18 62.660156 18.058594 61.832031 18.140625 61.007812 C 18.222656 60.179688 18.324219 59.355469 18.453125 58.535156 C 18.578125 57.714844 18.726562 56.898438 18.898438 56.085938 C 19.070312 55.273438 19.265625 54.46875 19.484375 53.667969 C 19.699219 52.863281 19.9375 52.070312 20.199219 51.28125 C 20.457031 50.492188 20.742188 49.710938 21.042969 48.941406 C 21.347656 48.167969 21.671875 47.402344 22.019531 46.648438 C 22.363281 45.894531 22.730469 45.148438 23.117188 44.414062 C 23.503906 43.679688 23.914062 42.957031 24.339844 42.246094 C 24.765625 41.53125 25.214844 40.832031 25.679688 40.144531 C 26.144531 39.457031 26.628906 38.785156 27.132812 38.125 C 27.636719 37.464844 28.15625 36.816406 28.695312 36.1875 C 29.234375 35.554688 29.789062 34.9375 30.363281 34.335938 C 30.9375 33.734375 31.523438 33.152344 32.128906 32.582031 C 32.734375 32.015625 33.355469 31.464844 33.992188 30.929688 C 34.625 30.394531 35.277344 29.878906 35.941406 29.378906 C 36.605469 28.882812 37.28125 28.402344 37.972656 27.941406 C 38.664062 27.480469 39.367188 27.039062 40.082031 26.617188 C 40.796875 26.195312 41.523438 25.796875 42.261719 25.414062 C 43 25.03125 43.746094 24.671875 44.503906 24.332031 C 45.261719 23.992188 46.027344 23.671875 46.800781 23.375 C 47.578125 23.074219 48.359375 22.800781 49.148438 22.542969 C 49.941406 22.289062 50.738281 22.058594 51.539062 21.847656 C 52.34375 21.636719 53.152344 21.449219 53.964844 21.28125 C 54.777344 21.117188 55.59375 20.972656 56.417969 20.851562 C 57.238281 20.730469 58.0625 20.632812 58.890625 20.558594 C 59.714844 20.484375 60.542969 20.429688 61.375 20.402344 C 62.203125 20.371094 63.035156 20.367188 63.863281 20.382812 C 64.695312 20.398438 65.523438 20.4375 66.351562 20.5 C 67.179688 20.5625 68.003906 20.648438 68.828125 20.757812 C 69.652344 20.867188 70.46875 20.996094 71.285156 21.148438 C 72.101562 21.304688 72.914062 21.480469 73.71875 21.675781 L 74.617188 18.039062 C 73.742188 17.824219 72.859375 17.632812 71.976562 17.464844 C 71.089844 17.296875 70.199219 17.15625 69.304688 17.039062 C 68.414062 16.921875 67.515625 16.828125 66.617188 16.761719 C 65.71875 16.695312 64.820312 16.652344 63.917969 16.632812 C 63.015625 16.617188 62.117188 16.625 61.214844 16.65625 C 60.316406 16.6875 59.417969 16.746094 58.519531 16.828125 C 57.621094 16.910156 56.726562 17.015625 55.835938 17.148438 C 54.945312 17.277344 54.058594 17.433594 53.175781 17.617188 C 52.289062 17.796875 51.414062 18 50.542969 18.230469 C 49.671875 18.460938 48.804688 18.714844 47.949219 18.992188 C 47.089844 19.269531 46.242188 19.570312 45.402344 19.894531 C 44.5625 20.21875 43.730469 20.566406 42.90625 20.933594 C 42.085938 21.304688 41.277344 21.699219 40.476562 22.113281 C 39.675781 22.53125 38.886719 22.964844 38.113281 23.425781 C 37.335938 23.882812 36.574219 24.363281 35.828125 24.867188 C 35.078125 25.367188 34.34375 25.890625 33.621094 26.429688 C 32.902344 26.972656 32.199219 27.535156 31.507812 28.113281 C 30.820312 28.695312 30.148438 29.296875 29.492188 29.914062 C 28.835938 30.53125 28.199219 31.167969 27.578125 31.820312 C 26.957031 32.476562 26.355469 33.144531 25.773438 33.832031 C 25.191406 34.519531 24.625 35.222656 24.082031 35.941406 C 23.539062 36.660156 23.011719 37.390625 22.507812 38.140625 C 22.003906 38.886719 21.523438 39.648438 21.0625 40.421875 C 20.601562 41.195312 20.160156 41.980469 19.742188 42.777344 C 19.324219 43.578125 18.929688 44.386719 18.554688 45.207031 C 18.183594 46.027344 17.832031 46.859375 17.503906 47.699219 C 17.179688 48.535156 16.875 49.386719 16.59375 50.242188 C 16.3125 51.097656 16.058594 51.960938 15.824219 52.832031 C 15.59375 53.703125 15.386719 54.578125 15.203125 55.460938 C 15.019531 56.34375 14.859375 57.230469 14.722656 58.121094 C 14.589844 59.011719 14.480469 59.90625 14.394531 60.804688 C 14.308594 61.703125 14.25 62.601562 14.214844 63.5 L 6.667969 63.507812 L 16.050781 78.488281 Z M 25.417969 63.488281 " fill-opacity="1" fill-rule="nonzero"/></g><g clip-path="url(#d26a253724)"><path fill="#000000" d="M 100.417969 67.238281 L 107.871094 67.238281 C 107.835938 68.070312 107.777344 68.898438 107.695312 69.722656 C 107.617188 70.550781 107.511719 71.375 107.386719 72.195312 C 107.257812 73.015625 107.109375 73.832031 106.9375 74.644531 C 106.765625 75.457031 106.570312 76.261719 106.355469 77.066406 C 106.136719 77.867188 105.898438 78.660156 105.640625 79.449219 C 105.378906 80.238281 105.097656 81.019531 104.792969 81.792969 C 104.488281 82.566406 104.164062 83.328125 103.820312 84.085938 C 103.472656 84.839844 103.105469 85.582031 102.71875 86.320312 C 102.332031 87.054688 101.925781 87.777344 101.5 88.488281 C 101.070312 89.199219 100.625 89.902344 100.160156 90.589844 C 99.695312 91.273438 99.210938 91.949219 98.707031 92.609375 C 98.203125 93.269531 97.683594 93.917969 97.144531 94.546875 C 96.605469 95.179688 96.050781 95.796875 95.476562 96.398438 C 94.902344 97 94.316406 97.585938 93.710938 98.152344 C 93.105469 98.722656 92.484375 99.273438 91.847656 99.808594 C 91.210938 100.339844 90.5625 100.855469 89.898438 101.355469 C 89.234375 101.855469 88.554688 102.332031 87.867188 102.792969 C 87.175781 103.253906 86.472656 103.695312 85.757812 104.117188 C 85.042969 104.539062 84.316406 104.941406 83.578125 105.324219 C 82.839844 105.707031 82.09375 106.066406 81.335938 106.40625 C 80.578125 106.746094 79.8125 107.066406 79.039062 107.363281 C 78.261719 107.664062 77.480469 107.9375 76.6875 108.195312 C 75.898438 108.449219 75.101562 108.679688 74.300781 108.890625 C 73.496094 109.101562 72.6875 109.289062 71.875 109.457031 C 71.058594 109.621094 70.242188 109.765625 69.421875 109.886719 C 68.597656 110.007812 67.773438 110.105469 66.949219 110.179688 C 66.121094 110.253906 65.292969 110.308594 64.464844 110.335938 C 63.632812 110.367188 62.804688 110.371094 61.972656 110.355469 C 61.144531 110.339844 60.3125 110.300781 59.484375 110.238281 C 58.65625 110.175781 57.832031 110.089844 57.007812 109.980469 C 56.183594 109.875 55.367188 109.742188 54.550781 109.589844 C 53.734375 109.4375 52.921875 109.261719 52.117188 109.0625 L 51.21875 112.703125 C 52.09375 112.917969 52.976562 113.109375 53.859375 113.273438 C 54.746094 113.441406 55.636719 113.582031 56.53125 113.699219 C 57.425781 113.816406 58.320312 113.910156 59.21875 113.976562 C 60.117188 114.046875 61.015625 114.085938 61.917969 114.105469 C 62.820312 114.125 63.71875 114.117188 64.621094 114.082031 C 65.523438 114.050781 66.421875 113.996094 67.320312 113.914062 C 68.214844 113.832031 69.109375 113.722656 70.003906 113.589844 C 70.894531 113.460938 71.78125 113.304688 72.664062 113.121094 C 73.546875 112.941406 74.425781 112.738281 75.296875 112.507812 C 76.167969 112.277344 77.03125 112.023438 77.890625 111.746094 C 78.746094 111.46875 79.597656 111.167969 80.4375 110.84375 C 81.277344 110.519531 82.109375 110.171875 82.929688 109.800781 C 83.753906 109.433594 84.5625 109.039062 85.363281 108.625 C 86.164062 108.207031 86.949219 107.769531 87.726562 107.3125 C 88.503906 106.851562 89.265625 106.371094 90.011719 105.871094 C 90.761719 105.371094 91.496094 104.847656 92.214844 104.304688 C 92.9375 103.761719 93.640625 103.203125 94.332031 102.621094 C 95.019531 102.039062 95.691406 101.441406 96.347656 100.820312 C 97.003906 100.203125 97.640625 99.566406 98.261719 98.914062 C 98.882812 98.257812 99.484375 97.589844 100.066406 96.902344 C 100.648438 96.214844 101.214844 95.511719 101.757812 94.792969 C 102.300781 94.074219 102.828125 93.34375 103.328125 92.59375 C 103.832031 91.847656 104.316406 91.085938 104.777344 90.3125 C 105.238281 89.539062 105.679688 88.753906 106.097656 87.953125 C 106.515625 87.15625 106.910156 86.34375 107.285156 85.523438 C 107.65625 84.703125 108.007812 83.875 108.332031 83.035156 C 108.660156 82.195312 108.964844 81.347656 109.242188 80.488281 C 109.523438 79.632812 109.78125 78.769531 110.011719 77.898438 C 110.246094 77.027344 110.453125 76.152344 110.636719 75.269531 C 110.820312 74.386719 110.976562 73.5 111.113281 72.609375 C 111.246094 71.71875 111.355469 70.824219 111.441406 69.925781 C 111.527344 69.027344 111.585938 68.128906 111.621094 67.230469 L 119.167969 67.230469 L 109.792969 52.238281 Z M 100.417969 67.238281 " fill-opacity="1" fill-rule="nonzero"/></g><path fill="#000000" d="M 50.480469 42.628906 C 49.371094 42.425781 48.316406 42.191406 47.308594 41.933594 C 44.644531 43.710938 42.351562 45.878906 40.425781 48.4375 C 42.707031 49.234375 45.035156 49.855469 47.40625 50.300781 C 48.152344 47.632812 49.179688 45.074219 50.480469 42.628906 Z M 50.480469 42.628906 " fill-opacity="1" fill-rule="nonzero"/><path fill="#000000" d="M 64.792969 43.652344 L 64.792969 51.675781 C 68.109375 51.621094 71.410156 51.367188 74.695312 50.917969 C 73.910156 48.199219 72.777344 45.632812 71.304688 43.21875 C 69.207031 43.460938 67.042969 43.601562 64.792969 43.652344 Z M 64.792969 43.652344 " fill-opacity="1" fill-rule="nonzero"/><path fill="#000000" d="M 61.042969 51.675781 L 61.042969 43.652344 C 58.804688 43.601562 56.628906 43.464844 54.53125 43.226562 C 53.054688 45.640625 51.921875 48.207031 51.136719 50.925781 C 54.421875 51.375 57.726562 51.625 61.042969 51.675781 Z M 61.042969 51.675781 " fill-opacity="1" fill-rule="nonzero"/><path fill="#000000" d="M 61.042969 55.441406 C 57.414062 55.378906 53.800781 55.09375 50.207031 54.585938 C 49.601562 57.523438 49.253906 60.492188 49.160156 63.488281 L 61.042969 63.488281 Z M 61.042969 55.441406 " fill-opacity="1" fill-rule="nonzero"/><path fill="#000000" d="M 52.53125 39.167969 C 52.957031 39.238281 53.359375 39.320312 53.800781 39.382812 C 59.882812 40.140625 65.964844 40.140625 72.046875 39.382812 C 72.480469 39.320312 72.882812 39.238281 73.304688 39.167969 C 71.652344 38.511719 69.953125 38.015625 68.207031 37.679688 C 66.460938 37.34375 64.695312 37.175781 62.917969 37.175781 C 61.140625 37.175781 59.375 37.34375 57.628906 37.679688 C 55.882812 38.015625 54.183594 38.511719 52.53125 39.167969 Z M 52.53125 39.167969 " fill-opacity="1" fill-rule="nonzero"/><path fill="#000000" d="M 64.792969 63.488281 L 76.671875 63.488281 C 76.582031 60.492188 76.234375 57.527344 75.628906 54.589844 C 72.035156 55.097656 68.421875 55.382812 64.792969 55.441406 Z M 64.792969 63.488281 " fill-opacity="1" fill-rule="nonzero"/><path fill="#000000" d="M 78.53125 41.925781 C 77.519531 42.183594 76.46875 42.417969 75.355469 42.625 C 76.65625 45.070312 77.683594 47.625 78.429688 50.292969 C 80.804688 49.851562 83.136719 49.230469 85.417969 48.4375 C 83.492188 45.875 81.195312 43.707031 78.53125 41.925781 Z M 78.53125 41.925781 " fill-opacity="1" fill-rule="nonzero"/><path fill="#000000" d="M 64.792969 79.050781 L 64.792969 87.050781 C 67.042969 87.105469 69.230469 87.25 71.316406 87.488281 C 72.785156 85.082031 73.910156 82.523438 74.691406 79.8125 C 71.40625 79.367188 68.109375 79.113281 64.792969 79.050781 Z M 64.792969 79.050781 " fill-opacity="1" fill-rule="nonzero"/><path fill="#000000" d="M 76.667969 67.238281 L 64.792969 67.238281 L 64.792969 75.285156 C 68.417969 75.34375 72.027344 75.628906 75.621094 76.132812 C 76.222656 73.199219 76.574219 70.234375 76.667969 67.238281 Z M 76.667969 67.238281 " fill-opacity="1" fill-rule="nonzero"/><path fill="#000000" d="M 61.042969 75.289062 L 61.042969 67.238281 L 49.167969 67.238281 C 49.261719 70.234375 49.609375 73.199219 50.214844 76.132812 C 53.804688 75.628906 57.414062 75.347656 61.042969 75.289062 Z M 61.042969 75.289062 " fill-opacity="1" fill-rule="nonzero"/><path fill="#000000" d="M 62.917969 93.554688 C 66.515625 93.554688 69.984375 92.882812 73.324219 91.542969 C 66.386719 90.515625 59.449219 90.515625 52.511719 91.542969 C 55.851562 92.882812 59.320312 93.554688 62.917969 93.554688 Z M 62.917969 93.554688 " fill-opacity="1" fill-rule="nonzero"/><path fill="#000000" d="M 85.40625 82.292969 C 83.132812 81.496094 80.8125 80.875 78.441406 80.433594 C 77.699219 83.097656 76.675781 85.648438 75.367188 88.085938 C 76.492188 88.289062 77.5625 88.527344 78.578125 88.792969 C 81.21875 87.007812 83.496094 84.84375 85.40625 82.292969 Z M 85.40625 82.292969 " fill-opacity="1" fill-rule="nonzero"/><path fill="#000000" d="M 91.015625 67.238281 L 80.429688 67.238281 C 80.339844 70.445312 79.980469 73.625 79.347656 76.769531 C 82.140625 77.300781 84.863281 78.074219 87.519531 79.089844 C 89.578125 75.402344 90.742188 71.453125 91.015625 67.238281 Z M 91.015625 67.238281 " fill-opacity="1" fill-rule="nonzero"/><path fill="#000000" d="M 61.042969 87.046875 L 61.042969 79.050781 C 57.730469 79.113281 54.433594 79.367188 51.152344 79.8125 C 51.929688 82.523438 53.054688 85.082031 54.527344 87.488281 C 56.601562 87.25 58.792969 87.101562 61.042969 87.046875 Z M 61.042969 87.046875 " fill-opacity="1" fill-rule="nonzero"/><path fill="#000000" d="M 87.523438 51.632812 C 84.863281 52.640625 82.132812 53.414062 79.339844 53.949219 C 79.980469 57.097656 80.34375 60.277344 80.433594 63.488281 L 91.042969 63.488281 C 90.761719 59.273438 89.589844 55.320312 87.523438 51.632812 Z M 87.523438 51.632812 " fill-opacity="1" fill-rule="nonzero"/><path fill="#000000" d="M 38.316406 79.09375 C 40.972656 78.078125 43.695312 77.304688 46.488281 76.773438 C 45.855469 73.625 45.496094 70.449219 45.40625 67.238281 L 34.820312 67.238281 C 35.09375 71.453125 36.257812 75.40625 38.316406 79.09375 Z M 38.316406 79.09375 " fill-opacity="1" fill-rule="nonzero"/><path fill="#000000" d="M 40.429688 82.292969 C 42.339844 84.84375 44.617188 87.007812 47.257812 88.792969 C 48.273438 88.527344 49.34375 88.289062 50.46875 88.085938 C 49.160156 85.648438 48.136719 83.097656 47.394531 80.433594 C 45.023438 80.875 42.703125 81.496094 40.429688 82.292969 Z M 40.429688 82.292969 " fill-opacity="1" fill-rule="nonzero"/><path fill="#000000" d="M 38.3125 51.632812 C 36.246094 55.320312 35.074219 59.273438 34.792969 63.488281 L 45.402344 63.488281 C 45.496094 60.28125 45.859375 57.101562 46.496094 53.953125 C 43.703125 53.417969 40.972656 52.644531 38.3125 51.632812 Z M 38.3125 51.632812 " fill-opacity="1" fill-rule="nonzero"/></svg>