<svg xmlns="http://www.w3.org/2000/svg" xmlns:xlink="http://www.w3.org/1999/xlink" width="500" zoomAndPan="magnify" viewBox="0 0 375 374.999991" height="500" preserveAspectRatio="xMidYMid meet" version="1.0"><defs><clipPath id="d73ec77704"><path d="M 11.625 23.550781 L 82.125 23.550781 L 82.125 128.550781 L 11.625 128.550781 Z M 11.625 23.550781 " clip-rule="nonzero"/></clipPath></defs><g clip-path="url(#d73ec77704)"><path fill="#000000" d="M 76.4375 24.152344 L 76.371094 24.152344 C 75.847656 24.152344 24.0625 23.710938 18.914062 23.65625 L 18.824219 23.65625 C 14.03125 23.65625 12.0625 27.8125 11.691406 30.023438 L 11.671875 30.113281 L 11.617188 122.472656 C 11.617188 126.398438 15.703125 128.058594 17.859375 128.386719 L 17.941406 128.398438 L 18.019531 128.398438 C 19.503906 128.398438 42.957031 128.433594 59.894531 128.433594 C 68.644531 128.433594 75.667969 128.433594 77.003906 128.398438 C 80.964844 128.324219 82.070312 124.152344 82.109375 121.9375 L 82.109375 30.535156 C 82.109375 25.804688 78.398438 24.289062 76.4375 24.152344 Z M 76.964844 126.222656 C 73.148438 126.292969 20.683594 126.222656 18.117188 126.222656 C 17.554688 126.113281 13.789062 125.296875 13.789062 122.476562 L 13.84375 30.316406 C 13.972656 29.6875 14.90625 25.84375 18.824219 25.84375 L 18.890625 25.84375 C 23.976562 25.898438 74.558594 26.328125 76.3125 26.34375 C 76.804688 26.390625 79.9375 26.839844 79.9375 30.546875 L 79.9375 121.921875 C 79.933594 122.085938 79.808594 126.15625 76.964844 126.222656 Z M 76.964844 126.222656 " fill-opacity="1" fill-rule="nonzero"/></g><path fill="#000000" d="M 33.832031 60.636719 L 21.941406 60.636719 C 21.457031 60.636719 21.058594 61.105469 21.058594 61.683594 C 21.058594 62.265625 21.457031 62.730469 21.941406 62.730469 L 33.832031 62.730469 C 34.320312 62.730469 34.714844 62.261719 34.714844 61.683594 C 34.714844 61.105469 34.320312 60.636719 33.832031 60.636719 Z M 33.832031 60.636719 " fill-opacity="1" fill-rule="nonzero"/><path fill="#000000" d="M 50.785156 62.730469 C 51.277344 62.730469 51.671875 62.261719 51.671875 61.683594 C 51.671875 61.105469 51.277344 60.636719 50.785156 60.636719 L 38.910156 60.636719 C 38.417969 60.636719 38.023438 61.105469 38.023438 61.683594 C 38.023438 62.265625 38.417969 62.730469 38.910156 62.730469 Z M 50.785156 62.730469 " fill-opacity="1" fill-rule="nonzero"/><path fill="#000000" d="M 69.269531 62.730469 C 69.757812 62.730469 70.15625 62.261719 70.15625 61.683594 C 70.15625 61.105469 69.757812 60.636719 69.269531 60.636719 L 57.394531 60.636719 C 56.90625 60.636719 56.507812 61.105469 56.507812 61.683594 C 56.507812 62.265625 56.90625 62.730469 57.394531 62.730469 Z M 69.269531 62.730469 " fill-opacity="1" fill-rule="nonzero"/><path fill="#000000" d="M 71.179688 70.175781 C 70.210938 69.371094 68.917969 69.40625 68.609375 69.425781 L 60.015625 69.425781 C 57.800781 69.425781 56.996094 70.910156 56.996094 71.90625 L 56.996094 81.785156 C 56.996094 83.824219 58.507812 84.566406 59.53125 84.574219 C 59.828125 84.574219 63.300781 84.652344 66.171875 84.652344 C 67.710938 84.652344 69.089844 84.632812 69.691406 84.566406 C 70.042969 84.546875 70.375 84.460938 70.6875 84.308594 C 71.003906 84.15625 71.277344 83.949219 71.511719 83.6875 C 71.746094 83.425781 71.921875 83.128906 72.039062 82.796875 C 72.15625 82.46875 72.210938 82.125 72.191406 81.777344 C 72.207031 81.148438 72.378906 74.238281 72.191406 72.171875 C 72.136719 71.363281 71.796875 70.695312 71.179688 70.175781 Z M 70.253906 81.828125 C 70.265625 82.308594 70.007812 82.582031 69.492188 82.636719 C 68.171875 82.773438 62.421875 82.691406 59.5625 82.636719 L 59.550781 82.636719 C 58.925781 82.601562 58.925781 81.992188 58.925781 81.796875 L 58.925781 71.9375 C 58.941406 71.765625 59.082031 71.382812 60.007812 71.382812 L 68.734375 71.382812 C 68.890625 71.367188 69.566406 71.382812 69.941406 71.691406 C 70.144531 71.871094 70.25 72.097656 70.25 72.371094 C 70.4375 74.382812 70.25 81.703125 70.25 81.777344 L 70.25 81.84375 Z M 70.253906 81.828125 " fill-opacity="1" fill-rule="nonzero"/><path fill="#000000" d="M 37.753906 81.910156 C 37.753906 83.945312 39.265625 84.691406 40.289062 84.695312 C 40.582031 84.695312 44.058594 84.777344 46.929688 84.777344 C 48.46875 84.777344 49.835938 84.753906 50.449219 84.691406 C 50.796875 84.671875 51.128906 84.582031 51.445312 84.429688 C 51.761719 84.277344 52.035156 84.070312 52.269531 83.808594 C 52.503906 83.550781 52.679688 83.253906 52.796875 82.921875 C 52.914062 82.589844 52.964844 82.25 52.949219 81.898438 C 52.964844 81.269531 53.136719 74.363281 52.949219 72.296875 C 52.894531 71.488281 52.5625 70.824219 51.945312 70.300781 C 50.976562 69.492188 49.683594 69.527344 49.375 69.550781 L 40.773438 69.550781 C 38.558594 69.550781 37.753906 71.03125 37.753906 72.027344 Z M 39.6875 72.050781 C 39.703125 71.875 39.847656 71.492188 40.773438 71.492188 L 49.496094 71.492188 C 49.65625 71.476562 50.332031 71.492188 50.703125 71.800781 C 50.910156 71.980469 51.011719 72.207031 51.015625 72.480469 C 51.203125 74.496094 51.015625 81.8125 51.015625 81.886719 L 51.015625 81.957031 C 51.015625 82.4375 50.769531 82.710938 50.25 82.761719 C 48.933594 82.898438 43.179688 82.820312 40.324219 82.761719 L 40.3125 82.761719 C 39.6875 82.726562 39.6875 82.117188 39.6875 81.925781 Z M 39.6875 72.050781 " fill-opacity="1" fill-rule="nonzero"/><path fill="#000000" d="M 51.9375 89.652344 C 50.96875 88.847656 49.675781 88.882812 49.367188 88.90625 L 40.773438 88.90625 C 38.558594 88.90625 37.753906 90.386719 37.753906 91.382812 L 37.753906 101.261719 C 37.753906 103.300781 39.265625 104.046875 40.289062 104.050781 C 40.582031 104.050781 44.058594 104.132812 46.929688 104.132812 C 48.46875 104.132812 49.835938 104.109375 50.449219 104.046875 C 50.796875 104.023438 51.128906 103.9375 51.445312 103.785156 C 51.761719 103.632812 52.035156 103.425781 52.269531 103.164062 C 52.503906 102.902344 52.679688 102.605469 52.796875 102.277344 C 52.914062 101.945312 52.964844 101.605469 52.949219 101.253906 C 52.964844 100.625 53.140625 93.714844 52.949219 91.648438 C 52.894531 90.839844 52.554688 90.175781 51.9375 89.652344 Z M 51.011719 101.308594 C 51.011719 101.789062 50.765625 102.0625 50.25 102.117188 C 48.933594 102.253906 43.179688 102.171875 40.320312 102.117188 L 40.308594 102.117188 C 39.683594 102.078125 39.683594 101.472656 39.683594 101.277344 L 39.683594 91.40625 C 39.699219 91.230469 39.84375 90.847656 40.769531 90.847656 L 49.496094 90.847656 C 49.65625 90.832031 50.332031 90.847656 50.703125 91.15625 C 50.910156 91.335938 51.011719 91.5625 51.015625 91.835938 C 51.203125 93.847656 51.015625 101.167969 51.015625 101.242188 L 51.015625 101.308594 Z M 51.011719 101.308594 " fill-opacity="1" fill-rule="nonzero"/><path fill="#000000" d="M 51.386719 107.988281 C 50.417969 107.1875 49.128906 107.21875 48.816406 107.238281 L 40.222656 107.238281 C 38.007812 107.238281 37.203125 108.722656 37.203125 109.71875 L 37.203125 119.601562 C 37.203125 121.636719 38.714844 122.382812 39.738281 122.386719 C 40.035156 122.386719 43.507812 122.46875 46.382812 122.46875 C 47.921875 122.46875 49.289062 122.445312 49.902344 122.382812 C 50.25 122.359375 50.582031 122.273438 50.898438 122.121094 C 51.210938 121.96875 51.488281 121.761719 51.722656 121.5 C 51.953125 121.238281 52.128906 120.941406 52.25 120.613281 C 52.367188 120.28125 52.417969 119.941406 52.402344 119.589844 C 52.417969 118.960938 52.589844 112.054688 52.402344 109.988281 C 52.347656 109.175781 52.007812 108.511719 51.386719 107.988281 Z M 50.460938 119.640625 C 50.472656 120.121094 50.21875 120.394531 49.699219 120.449219 C 48.382812 120.585938 42.628906 120.507812 39.773438 120.449219 L 39.757812 120.449219 C 39.132812 120.414062 39.132812 119.808594 39.132812 119.613281 L 39.132812 109.742188 C 39.148438 109.566406 39.292969 109.183594 40.21875 109.183594 L 48.941406 109.183594 C 49.101562 109.167969 49.777344 109.183594 50.148438 109.492188 C 50.355469 109.671875 50.457031 109.898438 50.460938 110.171875 C 50.648438 112.183594 50.460938 119.503906 50.460938 119.578125 L 50.460938 119.644531 Z M 50.460938 119.640625 " fill-opacity="1" fill-rule="nonzero"/><path fill="#000000" d="M 33.609375 89.546875 C 32.640625 88.742188 31.347656 88.777344 31.039062 88.800781 L 22.445312 88.800781 C 20.230469 88.800781 19.425781 90.28125 19.425781 91.277344 L 19.425781 101.160156 C 19.425781 103.195312 20.9375 103.941406 21.960938 103.945312 C 22.253906 103.945312 25.730469 104.027344 28.601562 104.027344 C 30.140625 104.027344 31.507812 104.003906 32.121094 103.941406 C 32.46875 103.917969 32.800781 103.832031 33.117188 103.679688 C 33.433594 103.527344 33.707031 103.320312 33.941406 103.058594 C 34.175781 102.796875 34.351562 102.503906 34.46875 102.171875 C 34.585938 101.839844 34.636719 101.5 34.621094 101.148438 C 34.636719 100.519531 34.8125 93.613281 34.621094 91.546875 C 34.566406 90.734375 34.226562 90.070312 33.609375 89.546875 Z M 32.691406 101.199219 C 32.703125 101.683594 32.445312 101.953125 31.929688 102.007812 C 30.613281 102.144531 24.859375 102.066406 22 102.007812 L 21.988281 102.007812 C 21.363281 101.972656 21.363281 101.367188 21.363281 101.171875 L 21.363281 91.3125 C 21.378906 91.136719 21.523438 90.757812 22.449219 90.757812 L 31.171875 90.757812 C 31.332031 90.738281 32.007812 90.757812 32.378906 91.0625 C 32.585938 91.242188 32.6875 91.46875 32.691406 91.746094 C 32.878906 93.757812 32.691406 101.074219 32.691406 101.148438 L 32.691406 101.21875 Z M 32.691406 101.199219 " fill-opacity="1" fill-rule="nonzero"/><path fill="#000000" d="M 32.761719 108.121094 C 31.792969 107.3125 30.503906 107.347656 30.191406 107.371094 L 21.597656 107.371094 C 19.382812 107.371094 18.578125 108.851562 18.578125 109.847656 L 18.578125 119.730469 C 18.578125 121.769531 20.09375 122.511719 21.117188 122.519531 C 21.410156 122.519531 24.886719 122.597656 27.757812 122.597656 C 29.296875 122.597656 30.664062 122.578125 31.273438 122.511719 C 31.625 122.492188 31.957031 122.40625 32.273438 122.253906 C 32.585938 122.101562 32.863281 121.894531 33.097656 121.632812 C 33.328125 121.371094 33.503906 121.074219 33.625 120.746094 C 33.742188 120.414062 33.792969 120.070312 33.777344 119.722656 C 33.792969 119.09375 33.964844 112.183594 33.777344 110.117188 C 33.71875 109.308594 33.382812 108.640625 32.761719 108.121094 Z M 31.835938 119.769531 C 31.851562 120.253906 31.59375 120.523438 31.078125 120.578125 C 29.757812 120.714844 24.007812 120.636719 21.148438 120.578125 L 21.132812 120.578125 C 20.507812 120.542969 20.507812 119.9375 20.507812 119.742188 L 20.507812 109.882812 C 20.527344 109.707031 20.667969 109.328125 21.59375 109.328125 L 30.316406 109.328125 C 30.476562 109.308594 31.148438 109.328125 31.523438 109.632812 C 31.730469 109.8125 31.832031 110.042969 31.835938 110.316406 C 32.023438 112.328125 31.835938 119.644531 31.835938 119.722656 L 31.835938 119.789062 Z M 31.835938 119.769531 " fill-opacity="1" fill-rule="nonzero"/><path fill="#000000" d="M 33.609375 70.71875 C 32.640625 69.914062 31.347656 69.949219 31.039062 69.96875 L 22.445312 69.96875 C 20.230469 69.96875 19.425781 71.449219 19.425781 72.445312 L 19.425781 82.328125 C 19.425781 84.363281 20.9375 85.109375 21.960938 85.113281 C 22.253906 85.113281 25.730469 85.195312 28.601562 85.195312 C 30.140625 85.195312 31.507812 85.171875 32.121094 85.109375 C 32.46875 85.089844 32.800781 85.003906 33.117188 84.851562 C 33.433594 84.699219 33.707031 84.492188 33.941406 84.230469 C 34.175781 83.96875 34.351562 83.671875 34.46875 83.339844 C 34.585938 83.011719 34.636719 82.667969 34.621094 82.316406 C 34.636719 81.691406 34.8125 74.78125 34.621094 72.714844 C 34.566406 71.90625 34.226562 71.238281 33.609375 70.71875 Z M 32.691406 82.371094 C 32.703125 82.851562 32.445312 83.125 31.929688 83.175781 C 30.613281 83.3125 24.859375 83.234375 22 83.175781 L 21.988281 83.175781 C 21.363281 83.140625 21.363281 82.535156 21.363281 82.339844 L 21.363281 72.480469 C 21.378906 72.304688 21.523438 71.921875 22.449219 71.921875 L 31.171875 71.921875 C 31.332031 71.90625 32.007812 71.921875 32.378906 72.230469 C 32.585938 72.410156 32.6875 72.636719 32.691406 72.910156 C 32.878906 74.925781 32.691406 82.242188 32.691406 82.316406 L 32.691406 82.386719 Z M 32.691406 82.371094 " fill-opacity="1" fill-rule="nonzero"/><path fill="#000000" d="M 71.921875 93.746094 C 71.832031 91.324219 71.296875 89.652344 70.292969 88.777344 C 69.78125 88.292969 69.175781 88.089844 68.476562 88.167969 L 60.296875 88.167969 C 58.019531 88.167969 57.410156 91.148438 57.410156 92.910156 L 57.410156 117.105469 C 57.410156 122.21875 59.34375 122.59375 59.816406 122.609375 C 60.378906 122.640625 63.488281 122.808594 66.125 122.808594 C 67.65625 122.808594 69.023438 122.75 69.652344 122.582031 C 71.898438 121.980469 71.941406 117.957031 71.921875 117.101562 C 71.929688 116.109375 72.105469 98.796875 71.921875 93.746094 Z M 70.074219 117.132812 C 70.101562 118.597656 69.742188 120.386719 69.238281 120.523438 C 68.136719 120.816406 62.988281 120.667969 59.960938 120.5 C 59.753906 120.367188 59.269531 119.53125 59.269531 117.105469 L 59.269531 92.914062 C 59.269531 92.886719 59.339844 90.28125 60.308594 90.28125 L 68.644531 90.28125 L 68.742188 90.257812 C 68.910156 90.269531 69.054688 90.332031 69.171875 90.449219 C 69.476562 90.714844 70.007812 91.515625 70.082031 93.835938 C 70.265625 98.875 70.082031 116.910156 70.082031 117.09375 L 70.082031 117.132812 Z M 70.074219 117.132812 " fill-opacity="1" fill-rule="nonzero"/><path fill="#000000" d="M 23.859375 52.003906 L 68.628906 52.003906 C 69.097656 52.003906 69.550781 51.914062 69.984375 51.734375 C 70.417969 51.554688 70.800781 51.296875 71.132812 50.960938 C 71.464844 50.628906 71.722656 50.246094 71.902344 49.808594 C 72.082031 49.371094 72.171875 48.917969 72.171875 48.445312 L 72.171875 41.660156 C 72.171875 41.191406 72.082031 40.734375 71.902344 40.300781 C 71.722656 39.863281 71.464844 39.480469 71.132812 39.144531 C 70.800781 38.8125 70.417969 38.554688 69.984375 38.375 C 69.550781 38.191406 69.097656 38.101562 68.628906 38.101562 L 23.859375 38.101562 C 23.390625 38.101562 22.9375 38.191406 22.503906 38.375 C 22.070312 38.554688 21.6875 38.8125 21.355469 39.144531 C 21.023438 39.480469 20.765625 39.863281 20.585938 40.300781 C 20.40625 40.734375 20.316406 41.191406 20.316406 41.660156 L 20.316406 48.445312 C 20.316406 48.917969 20.40625 49.371094 20.585938 49.808594 C 20.765625 50.246094 21.023438 50.628906 21.355469 50.960938 C 21.6875 51.296875 22.070312 51.554688 22.503906 51.734375 C 22.9375 51.914062 23.390625 52.003906 23.859375 52.003906 Z M 22.402344 41.660156 C 22.402344 41.46875 22.4375 41.28125 22.511719 41.101562 C 22.585938 40.921875 22.691406 40.761719 22.828125 40.625 C 22.964844 40.488281 23.125 40.382812 23.300781 40.308594 C 23.480469 40.234375 23.667969 40.195312 23.859375 40.195312 L 68.628906 40.195312 C 68.820312 40.195312 69.007812 40.234375 69.1875 40.308594 C 69.363281 40.382812 69.523438 40.488281 69.660156 40.625 C 69.796875 40.761719 69.902344 40.921875 69.976562 41.101562 C 70.050781 41.28125 70.085938 41.46875 70.085938 41.660156 L 70.085938 48.445312 C 70.085938 48.640625 70.050781 48.828125 69.976562 49.007812 C 69.902344 49.1875 69.796875 49.34375 69.660156 49.484375 C 69.523438 49.621094 69.363281 49.726562 69.1875 49.800781 C 69.007812 49.875 68.820312 49.910156 68.628906 49.910156 L 23.859375 49.910156 C 23.667969 49.910156 23.480469 49.875 23.300781 49.800781 C 23.125 49.726562 22.964844 49.621094 22.828125 49.484375 C 22.691406 49.34375 22.585938 49.1875 22.511719 49.007812 C 22.4375 48.828125 22.402344 48.640625 22.402344 48.445312 Z M 22.402344 41.660156 " fill-opacity="1" fill-rule="nonzero"/></svg>