<svg xmlns="http://www.w3.org/2000/svg" xmlns:xlink="http://www.w3.org/1999/xlink" width="500" zoomAndPan="magnify" viewBox="0 0 375 374.999991" height="500" preserveAspectRatio="xMidYMid meet" version="1.0"><defs><clipPath id="cfd0f57da2"><path d="M 22.148438 41 L 81 41 L 81 122 L 22.148438 122 Z M 22.148438 41 " clip-rule="nonzero"/></clipPath><clipPath id="df3f06aa93"><path d="M 82 86 L 116 86 L 116 139.734375 L 82 139.734375 Z M 82 86 " clip-rule="nonzero"/></clipPath><clipPath id="8d773df836"><path d="M 119 81 L 132 81 L 132 139.734375 L 119 139.734375 Z M 119 81 " clip-rule="nonzero"/></clipPath><clipPath id="566b1cdb8e"><path d="M 126 35 L 134.648438 35 L 134.648438 81 L 126 81 Z M 126 35 " clip-rule="nonzero"/></clipPath><clipPath id="2a2bd5f05f"><path d="M 79 27.234375 L 131 27.234375 L 131 50 L 79 50 Z M 79 27.234375 " clip-rule="nonzero"/></clipPath></defs><path fill="#000000" d="M 71.035156 88.222656 C 71.035156 81.464844 65.535156 75.964844 58.773438 75.964844 C 52.015625 75.964844 46.515625 81.464844 46.515625 88.222656 C 46.515625 94.984375 52.015625 100.484375 58.773438 100.484375 C 65.535156 100.484375 71.035156 94.984375 71.035156 88.222656 Z M 48.300781 88.222656 C 48.300781 82.449219 53 77.75 58.773438 77.75 C 64.550781 77.75 69.25 82.449219 69.25 88.222656 C 69.25 94 64.550781 98.695312 58.773438 98.695312 C 53 98.695312 48.300781 93.996094 48.300781 88.222656 Z M 48.300781 88.222656 " fill-opacity="1" fill-rule="nonzero"/><path fill="#000000" d="M 61.902344 96.148438 C 62.046875 96.171875 62.191406 96.183594 62.332031 96.183594 C 62.773438 96.183594 63.199219 96.078125 63.589844 95.867188 C 66.507812 94.304688 68.035156 91.660156 68.007812 88.214844 C 67.992188 86.894531 67.042969 85.789062 65.773438 85.59375 C 65.625 85.566406 65.476562 85.554688 65.304688 85.554688 C 65.304688 85.554688 65.300781 85.554688 65.300781 85.554688 C 63.828125 85.566406 62.636719 86.78125 62.648438 88.257812 C 62.664062 89.679688 62.191406 90.542969 61.070312 91.140625 C 60.4375 91.472656 59.976562 92.035156 59.769531 92.722656 C 59.558594 93.410156 59.632812 94.136719 59.964844 94.757812 C 60.351562 95.503906 61.058594 96.011719 61.902344 96.148438 Z M 61.902344 96.148438 " fill-opacity="1" fill-rule="nonzero"/><g clip-path="url(#cfd0f57da2)"><path fill="#000000" d="M 74.640625 108.066406 L 74.640625 42.730469 C 74.640625 42.238281 74.242188 41.839844 73.75 41.839844 L 33.023438 41.839844 C 33.003906 41.839844 32.984375 41.847656 32.964844 41.851562 C 32.886719 41.855469 32.8125 41.871094 32.734375 41.898438 C 32.703125 41.910156 32.671875 41.917969 32.640625 41.933594 C 32.5625 41.972656 32.492188 42.019531 32.425781 42.078125 C 32.414062 42.089844 32.402344 42.097656 32.390625 42.105469 C 32.386719 42.109375 32.382812 42.109375 32.382812 42.113281 L 22.398438 52.503906 C 22.328125 52.578125 22.277344 52.664062 22.238281 52.753906 C 22.226562 52.777344 22.21875 52.804688 22.210938 52.828125 C 22.183594 52.90625 22.167969 52.988281 22.160156 53.070312 C 22.160156 53.089844 22.148438 53.105469 22.148438 53.125 L 22.148438 120.992188 C 22.148438 121.484375 22.550781 121.882812 23.042969 121.882812 L 73.75 121.882812 C 74.242188 121.882812 74.640625 121.484375 74.640625 120.992188 L 74.640625 119.183594 L 74.976562 119.714844 C 75.582031 120.679688 76.601562 121.210938 77.621094 121.210938 C 78.140625 121.210938 78.660156 121.074219 79.125 120.78125 C 79.960938 120.257812 80.460938 119.328125 80.460938 118.292969 C 80.460938 117.691406 80.292969 117.101562 79.96875 116.585938 Z M 49.070312 98.433594 C 48.210938 97.621094 47.457031 96.695312 46.828125 95.6875 C 45.957031 94.292969 45.34375 92.796875 45.011719 91.238281 C 44.488281 88.847656 44.59375 86.359375 45.324219 84.042969 C 46.230469 81.125 48.007812 78.636719 50.46875 76.84375 L 50.539062 76.796875 C 50.789062 76.625 51.042969 76.449219 51.3125 76.285156 C 57.890625 72.167969 66.597656 74.175781 70.714844 80.757812 C 72.113281 83 72.855469 85.578125 72.855469 88.214844 C 72.855469 92.417969 71.011719 96.359375 67.796875 99.03125 C 67.3125 99.441406 66.789062 99.820312 66.242188 100.160156 C 65.65625 100.523438 65.082031 100.832031 64.527344 101.078125 C 59.375 103.390625 53.164062 102.328125 49.070312 98.433594 Z M 67.183594 101.679688 C 67.511719 101.472656 67.832031 101.253906 68.144531 101.027344 L 71.722656 106.753906 L 69.753906 107.984375 L 66.171875 102.257812 C 66.507812 102.082031 66.84375 101.890625 67.183594 101.679688 Z M 72.855469 105.199219 L 69.519531 99.863281 C 70.894531 98.601562 72.015625 97.128906 72.855469 95.503906 Z M 32.226562 44.851562 L 32.582031 52.726562 L 25.039062 52.335938 Z M 23.9375 120.097656 L 23.9375 54.066406 L 33.46875 54.5625 C 33.484375 54.5625 33.5 54.5625 33.515625 54.5625 C 33.75 54.5625 33.976562 54.46875 34.144531 54.300781 C 34.324219 54.125 34.417969 53.878906 34.40625 53.628906 L 33.957031 43.625 L 72.855469 43.625 L 72.855469 80.921875 C 72.660156 80.542969 72.453125 80.171875 72.230469 79.8125 C 67.589844 72.394531 57.78125 70.128906 50.367188 74.765625 C 50.132812 74.910156 49.90625 75.070312 49.683594 75.222656 L 31.070312 75.222656 C 30.578125 75.222656 30.175781 75.625 30.175781 76.117188 C 30.175781 76.609375 30.578125 77.007812 31.070312 77.007812 L 47.539062 77.007812 C 45.886719 78.660156 44.636719 80.65625 43.839844 82.882812 L 31.070312 82.882812 C 30.578125 82.882812 30.175781 83.285156 30.175781 83.777344 C 30.175781 84.269531 30.578125 84.671875 31.070312 84.671875 L 43.308594 84.671875 C 42.863281 86.589844 42.78125 88.582031 43.074219 90.535156 L 31.070312 90.535156 C 30.578125 90.535156 30.175781 90.9375 30.175781 91.429688 C 30.175781 91.921875 30.578125 92.320312 31.070312 92.320312 L 43.449219 92.320312 C 43.847656 93.828125 44.460938 95.277344 45.3125 96.636719 C 45.652344 97.175781 46.023438 97.691406 46.421875 98.1875 L 31.070312 98.1875 C 30.578125 98.1875 30.175781 98.585938 30.175781 99.082031 C 30.175781 99.574219 30.578125 99.972656 31.070312 99.972656 L 48.125 99.972656 C 51.105469 102.679688 54.894531 104.105469 58.753906 104.105469 C 60.695312 104.105469 62.648438 103.726562 64.523438 102.992188 L 72.855469 116.316406 L 72.855469 120.097656 Z M 23.9375 120.097656 " fill-opacity="1" fill-rule="nonzero"/></g><path fill="#000000" d="M 52.542969 52.402344 L 69.472656 52.402344 C 69.964844 52.402344 70.363281 52 70.363281 51.507812 C 70.363281 51.015625 69.964844 50.617188 69.472656 50.617188 L 52.542969 50.617188 C 52.050781 50.617188 51.648438 51.015625 51.648438 51.507812 C 51.648438 52 52.050781 52.402344 52.542969 52.402344 Z M 52.542969 52.402344 " fill-opacity="1" fill-rule="nonzero"/><path fill="#000000" d="M 31.070312 61.703125 L 66.792969 61.703125 C 67.285156 61.703125 67.6875 61.304688 67.6875 60.8125 C 67.6875 60.320312 67.285156 59.917969 66.792969 59.917969 L 31.070312 59.917969 C 30.578125 59.917969 30.175781 60.320312 30.175781 60.8125 C 30.175781 61.304688 30.578125 61.703125 31.070312 61.703125 Z M 31.070312 61.703125 " fill-opacity="1" fill-rule="nonzero"/><path fill="#000000" d="M 31.070312 69.359375 L 66.792969 69.359375 C 67.285156 69.359375 67.6875 68.957031 67.6875 68.464844 C 67.6875 67.972656 67.285156 67.570312 66.792969 67.570312 L 31.070312 67.570312 C 30.578125 67.570312 30.175781 67.972656 30.175781 68.464844 C 30.175781 68.957031 30.578125 69.359375 31.070312 69.359375 Z M 31.070312 69.359375 " fill-opacity="1" fill-rule="nonzero"/><g clip-path="url(#df3f06aa93)"><path fill="#000000" d="M 109.910156 86.035156 L 87.988281 86.035156 C 85.175781 86.035156 82.890625 88.324219 82.890625 91.132812 L 82.890625 133.972656 C 82.890625 136.789062 85.179688 139.078125 87.988281 139.078125 L 109.910156 139.078125 C 112.71875 139.078125 115.007812 136.789062 115.007812 133.972656 L 115.007812 91.132812 C 115.007812 88.324219 112.71875 86.035156 109.910156 86.035156 Z M 113.222656 133.972656 C 113.222656 135.804688 111.734375 137.292969 109.910156 137.292969 L 87.988281 137.292969 C 86.164062 137.292969 84.675781 135.804688 84.675781 133.972656 L 84.675781 91.132812 C 84.675781 89.304688 86.164062 87.820312 87.988281 87.820312 L 109.910156 87.820312 C 111.734375 87.820312 113.222656 89.304688 113.222656 91.132812 Z M 113.222656 133.972656 " fill-opacity="1" fill-rule="nonzero"/></g><path fill="#000000" d="M 109.648438 91.554688 L 88.25 91.554688 C 87.753906 91.554688 87.355469 91.953125 87.355469 92.445312 L 87.355469 99.0625 C 87.355469 99.554688 87.753906 99.957031 88.25 99.957031 L 109.648438 99.957031 C 110.144531 99.957031 110.542969 99.554688 110.542969 99.0625 L 110.542969 92.445312 C 110.542969 91.953125 110.144531 91.554688 109.648438 91.554688 Z M 108.757812 98.171875 L 89.140625 98.171875 L 89.140625 93.339844 L 108.757812 93.339844 Z M 108.757812 98.171875 " fill-opacity="1" fill-rule="nonzero"/><path fill="#000000" d="M 98.945312 103.609375 C 97.144531 103.609375 95.675781 105.074219 95.675781 106.875 C 95.675781 108.675781 97.144531 110.144531 98.945312 110.144531 C 100.75 110.144531 102.222656 108.675781 102.222656 106.875 C 102.222656 105.074219 100.75 103.609375 98.945312 103.609375 Z M 98.945312 108.355469 C 98.128906 108.355469 97.460938 107.691406 97.460938 106.875 C 97.460938 106.054688 98.128906 105.390625 98.945312 105.390625 C 99.765625 105.390625 100.4375 106.058594 100.4375 106.875 C 100.4375 107.691406 99.765625 108.355469 98.945312 108.355469 Z M 98.945312 108.355469 " fill-opacity="1" fill-rule="nonzero"/><path fill="#000000" d="M 98.945312 111.847656 C 97.144531 111.847656 95.675781 113.316406 95.675781 115.117188 C 95.675781 116.917969 97.144531 118.382812 98.945312 118.382812 C 100.75 118.382812 102.222656 116.917969 102.222656 115.117188 C 102.222656 113.316406 100.75 111.847656 98.945312 111.847656 Z M 98.945312 116.597656 C 98.128906 116.597656 97.460938 115.933594 97.460938 115.117188 C 97.460938 114.296875 98.128906 113.632812 98.945312 113.632812 C 99.765625 113.632812 100.4375 114.296875 100.4375 115.117188 C 100.4375 115.933594 99.765625 116.597656 98.945312 116.597656 Z M 98.945312 116.597656 " fill-opacity="1" fill-rule="nonzero"/><path fill="#000000" d="M 98.945312 120.089844 C 97.144531 120.089844 95.675781 121.558594 95.675781 123.367188 C 95.675781 125.167969 97.144531 126.632812 98.945312 126.632812 C 100.75 126.632812 102.222656 125.167969 102.222656 123.367188 C 102.222656 121.558594 100.75 120.089844 98.945312 120.089844 Z M 98.945312 124.847656 C 98.128906 124.847656 97.460938 124.183594 97.460938 123.367188 C 97.460938 122.542969 98.128906 121.875 98.945312 121.875 C 99.765625 121.875 100.4375 122.542969 100.4375 123.367188 C 100.4375 124.183594 99.765625 124.847656 98.945312 124.847656 Z M 98.945312 124.847656 " fill-opacity="1" fill-rule="nonzero"/><path fill="#000000" d="M 98.945312 128.339844 C 97.144531 128.339844 95.675781 129.804688 95.675781 131.609375 C 95.675781 133.410156 97.144531 134.875 98.945312 134.875 C 100.75 134.875 102.222656 133.410156 102.222656 131.609375 C 102.222656 129.804688 100.75 128.339844 98.945312 128.339844 Z M 98.945312 133.089844 C 98.128906 133.089844 97.460938 132.425781 97.460938 131.609375 C 97.460938 130.789062 98.128906 130.125 98.945312 130.125 C 99.765625 130.125 100.4375 130.789062 100.4375 131.609375 C 100.4375 132.425781 99.765625 133.089844 98.945312 133.089844 Z M 98.945312 133.089844 " fill-opacity="1" fill-rule="nonzero"/><path fill="#000000" d="M 90.625 103.609375 C 88.820312 103.609375 87.355469 105.074219 87.355469 106.875 C 87.355469 108.675781 88.820312 110.144531 90.625 110.144531 C 92.425781 110.144531 93.890625 108.675781 93.890625 106.875 C 93.890625 105.074219 92.425781 103.609375 90.625 103.609375 Z M 90.625 108.355469 C 89.804688 108.355469 89.140625 107.691406 89.140625 106.875 C 89.140625 106.054688 89.804688 105.390625 90.625 105.390625 C 91.441406 105.390625 92.105469 106.058594 92.105469 106.875 C 92.105469 107.691406 91.441406 108.355469 90.625 108.355469 Z M 90.625 108.355469 " fill-opacity="1" fill-rule="nonzero"/><path fill="#000000" d="M 90.625 111.847656 C 88.820312 111.847656 87.355469 113.316406 87.355469 115.117188 C 87.355469 116.917969 88.820312 118.382812 90.625 118.382812 C 92.425781 118.382812 93.890625 116.917969 93.890625 115.117188 C 93.890625 113.316406 92.425781 111.847656 90.625 111.847656 Z M 90.625 116.597656 C 89.804688 116.597656 89.140625 115.933594 89.140625 115.117188 C 89.140625 114.296875 89.804688 113.632812 90.625 113.632812 C 91.441406 113.632812 92.105469 114.296875 92.105469 115.117188 C 92.105469 115.933594 91.441406 116.597656 90.625 116.597656 Z M 90.625 116.597656 " fill-opacity="1" fill-rule="nonzero"/><path fill="#000000" d="M 90.625 120.089844 C 88.820312 120.089844 87.355469 121.558594 87.355469 123.367188 C 87.355469 125.167969 88.820312 126.632812 90.625 126.632812 C 92.425781 126.632812 93.890625 125.167969 93.890625 123.367188 C 93.890625 121.558594 92.425781 120.089844 90.625 120.089844 Z M 90.625 124.847656 C 89.804688 124.847656 89.140625 124.183594 89.140625 123.367188 C 89.140625 122.542969 89.804688 121.875 90.625 121.875 C 91.441406 121.875 92.105469 122.542969 92.105469 123.367188 C 92.105469 124.183594 91.441406 124.847656 90.625 124.847656 Z M 90.625 124.847656 " fill-opacity="1" fill-rule="nonzero"/><path fill="#000000" d="M 90.625 128.339844 C 88.820312 128.339844 87.355469 129.804688 87.355469 131.609375 C 87.355469 133.410156 88.820312 134.875 90.625 134.875 C 92.425781 134.875 93.890625 133.410156 93.890625 131.609375 C 93.890625 129.804688 92.425781 128.339844 90.625 128.339844 Z M 90.625 133.089844 C 89.804688 133.089844 89.140625 132.425781 89.140625 131.609375 C 89.140625 130.789062 89.804688 130.125 90.625 130.125 C 91.441406 130.125 92.105469 130.789062 92.105469 131.609375 C 92.105469 132.425781 91.441406 133.089844 90.625 133.089844 Z M 90.625 133.089844 " fill-opacity="1" fill-rule="nonzero"/><path fill="#000000" d="M 107.273438 103.609375 C 105.472656 103.609375 104.007812 105.074219 104.007812 106.875 C 104.007812 108.675781 105.472656 110.144531 107.273438 110.144531 C 109.078125 110.144531 110.542969 108.675781 110.542969 106.875 C 110.542969 105.074219 109.078125 103.609375 107.273438 103.609375 Z M 107.273438 108.355469 C 106.457031 108.355469 105.792969 107.691406 105.792969 106.875 C 105.792969 106.054688 106.457031 105.390625 107.273438 105.390625 C 108.09375 105.390625 108.757812 106.058594 108.757812 106.875 C 108.757812 107.691406 108.09375 108.355469 107.273438 108.355469 Z M 107.273438 108.355469 " fill-opacity="1" fill-rule="nonzero"/><path fill="#000000" d="M 107.273438 111.847656 C 105.472656 111.847656 104.007812 113.316406 104.007812 115.117188 C 104.007812 116.917969 105.472656 118.382812 107.273438 118.382812 C 109.078125 118.382812 110.542969 116.917969 110.542969 115.117188 C 110.542969 113.316406 109.078125 111.847656 107.273438 111.847656 Z M 107.273438 116.597656 C 106.457031 116.597656 105.792969 115.933594 105.792969 115.117188 C 105.792969 114.296875 106.457031 113.632812 107.273438 113.632812 C 108.09375 113.632812 108.757812 114.296875 108.757812 115.117188 C 108.757812 115.933594 108.09375 116.597656 107.273438 116.597656 Z M 107.273438 116.597656 " fill-opacity="1" fill-rule="nonzero"/><path fill="#000000" d="M 107.273438 120.089844 C 105.472656 120.089844 104.007812 121.558594 104.007812 123.367188 C 104.007812 125.167969 105.472656 126.632812 107.273438 126.632812 C 109.078125 126.632812 110.542969 125.167969 110.542969 123.367188 C 110.542969 121.558594 109.078125 120.089844 107.273438 120.089844 Z M 107.273438 124.847656 C 106.457031 124.847656 105.792969 124.183594 105.792969 123.367188 C 105.792969 122.542969 106.457031 121.875 107.273438 121.875 C 108.09375 121.875 108.757812 122.542969 108.757812 123.367188 C 108.757812 124.183594 108.09375 124.847656 107.273438 124.847656 Z M 107.273438 124.847656 " fill-opacity="1" fill-rule="nonzero"/><path fill="#000000" d="M 107.273438 128.339844 C 105.472656 128.339844 104.007812 129.804688 104.007812 131.609375 C 104.007812 133.410156 105.472656 134.875 107.273438 134.875 C 109.078125 134.875 110.542969 133.410156 110.542969 131.609375 C 110.542969 129.804688 109.078125 128.339844 107.273438 128.339844 Z M 107.273438 133.089844 C 106.457031 133.089844 105.792969 132.425781 105.792969 131.609375 C 105.792969 130.789062 106.457031 130.125 107.273438 130.125 C 108.09375 130.125 108.757812 130.789062 108.757812 131.609375 C 108.757812 132.425781 108.09375 133.089844 107.273438 133.089844 Z M 107.273438 133.089844 " fill-opacity="1" fill-rule="nonzero"/><g clip-path="url(#8d773df836)"><path fill="#000000" d="M 130.167969 117.785156 C 129.675781 117.785156 129.273438 118.183594 129.273438 118.679688 L 129.273438 131.089844 C 129.273438 131.910156 128.671875 132.59375 127.882812 132.730469 L 127.882812 91.457031 C 127.882812 91.402344 127.859375 91.355469 127.851562 91.304688 C 127.84375 91.25 127.84375 91.195312 127.824219 91.140625 L 126.21875 86.855469 C 125.925781 86.082031 125.324219 85.511719 124.578125 85.253906 L 124.578125 82.320312 C 124.578125 81.828125 124.179688 81.429688 123.6875 81.429688 C 123.195312 81.429688 122.792969 81.828125 122.792969 82.320312 L 122.792969 85.253906 C 122.050781 85.511719 121.445312 86.082031 121.15625 86.855469 L 119.539062 91.140625 C 119.519531 91.191406 119.523438 91.242188 119.511719 91.296875 C 119.503906 91.351562 119.480469 91.398438 119.480469 91.457031 L 119.480469 133.652344 C 119.480469 134.144531 119.878906 134.546875 120.375 134.546875 L 120.910156 134.546875 L 120.910156 136.910156 C 120.910156 137.664062 121.203125 138.363281 121.714844 138.863281 C 122.234375 139.394531 122.933594 139.6875 123.6875 139.6875 C 125.21875 139.6875 126.464844 138.441406 126.464844 136.910156 L 126.464844 134.546875 L 127.597656 134.546875 C 129.507812 134.546875 131.0625 132.996094 131.0625 131.089844 L 131.0625 118.679688 C 131.0625 118.183594 130.660156 117.785156 130.167969 117.785156 Z M 126.097656 95.910156 L 126.097656 110.195312 L 121.265625 110.195312 L 121.265625 95.910156 Z M 126.097656 111.980469 L 126.097656 129.417969 L 121.265625 129.417969 L 121.265625 111.980469 Z M 122.824219 87.484375 C 123.03125 86.925781 123.535156 86.882812 123.6875 86.882812 C 123.835938 86.882812 124.335938 86.925781 124.546875 87.484375 L 125.699219 90.5625 L 121.664062 90.5625 Z M 124.675781 136.910156 C 124.675781 137.457031 124.230469 137.902344 123.6875 137.902344 C 123.417969 137.902344 123.171875 137.800781 122.980469 137.601562 C 122.796875 137.421875 122.695312 137.175781 122.695312 136.910156 L 122.695312 134.542969 L 124.675781 134.542969 Z M 124.675781 136.910156 " fill-opacity="1" fill-rule="nonzero"/></g><path fill="#000000" d="M 85.570312 55.867188 C 85.078125 55.867188 84.675781 56.265625 84.675781 56.757812 L 84.675781 79.542969 C 84.675781 80.035156 85.078125 80.4375 85.570312 80.4375 L 91.640625 80.4375 C 92.132812 80.4375 92.535156 80.035156 92.535156 79.542969 L 92.535156 56.757812 C 92.535156 56.265625 92.132812 55.867188 91.640625 55.867188 Z M 90.75 78.652344 L 86.460938 78.652344 L 86.460938 57.652344 L 90.75 57.652344 Z M 90.75 78.652344 " fill-opacity="1" fill-rule="nonzero"/><path fill="#000000" d="M 96.097656 47.207031 C 95.605469 47.207031 95.203125 47.605469 95.203125 48.097656 L 95.203125 79.546875 C 95.203125 80.039062 95.605469 80.4375 96.097656 80.4375 L 102.167969 80.4375 C 102.660156 80.4375 103.0625 80.039062 103.0625 79.546875 L 103.0625 48.097656 C 103.0625 47.605469 102.660156 47.207031 102.167969 47.207031 Z M 101.273438 78.652344 L 96.988281 78.652344 L 96.988281 48.992188 L 101.273438 48.992188 Z M 101.273438 78.652344 " fill-opacity="1" fill-rule="nonzero"/><path fill="#000000" d="M 106.632812 61.367188 C 106.140625 61.367188 105.738281 61.765625 105.738281 62.257812 L 105.738281 79.542969 C 105.738281 80.035156 106.140625 80.4375 106.632812 80.4375 L 112.695312 80.4375 C 113.1875 80.4375 113.585938 80.035156 113.585938 79.542969 L 113.585938 62.257812 C 113.585938 61.765625 113.1875 61.367188 112.695312 61.367188 Z M 111.800781 78.652344 L 107.523438 78.652344 L 107.523438 63.152344 L 111.800781 63.152344 Z M 111.800781 78.652344 " fill-opacity="1" fill-rule="nonzero"/><path fill="#000000" d="M 124.125 79.542969 L 124.125 41.457031 C 124.125 40.960938 123.722656 40.5625 123.230469 40.5625 L 117.160156 40.5625 C 116.667969 40.5625 116.265625 40.960938 116.265625 41.457031 L 116.265625 79.546875 C 116.265625 80.039062 116.667969 80.4375 117.160156 80.4375 L 123.230469 80.4375 C 123.722656 80.4375 124.125 80.039062 124.125 79.542969 Z M 122.335938 78.652344 L 118.050781 78.652344 L 118.050781 42.347656 L 122.335938 42.347656 Z M 122.335938 78.652344 " fill-opacity="1" fill-rule="nonzero"/><g clip-path="url(#566b1cdb8e)"><path fill="#000000" d="M 133.757812 35.070312 L 127.6875 35.070312 C 127.191406 35.070312 126.792969 35.472656 126.792969 35.964844 L 126.792969 79.542969 C 126.792969 80.035156 127.191406 80.4375 127.6875 80.4375 L 133.757812 80.4375 C 134.25 80.4375 134.648438 80.035156 134.648438 79.542969 L 134.648438 35.964844 C 134.648438 35.472656 134.25 35.070312 133.757812 35.070312 Z M 132.863281 78.652344 L 128.578125 78.652344 L 128.578125 36.855469 L 132.863281 36.855469 Z M 132.863281 78.652344 " fill-opacity="1" fill-rule="nonzero"/></g><g clip-path="url(#2a2bd5f05f)"><path fill="#000000" d="M 103.613281 37.386719 C 104.082031 37.527344 104.464844 37.84375 104.683594 38.273438 C 105.28125 39.476562 106.496094 40.222656 107.847656 40.222656 C 108.429688 40.222656 108.980469 40.089844 109.480469 39.828125 L 123.140625 32.730469 L 124.441406 35.070312 C 124.59375 35.339844 124.875 35.515625 125.183594 35.527344 C 125.199219 35.527344 125.210938 35.527344 125.222656 35.527344 C 125.519531 35.527344 125.796875 35.378906 125.964844 35.132812 L 130.347656 28.625 C 130.535156 28.347656 130.550781 27.984375 130.386719 27.691406 C 130.222656 27.398438 129.90625 27.226562 129.574219 27.234375 L 121.734375 27.539062 C 121.421875 27.550781 121.140625 27.722656 120.988281 27.992188 C 120.835938 28.265625 120.835938 28.59375 120.988281 28.867188 L 122.269531 31.171875 L 108.65625 38.246094 C 108.414062 38.375 108.140625 38.441406 107.847656 38.441406 C 107.179688 38.441406 106.578125 38.070312 106.277344 37.472656 C 105.832031 36.597656 105.070312 35.960938 104.132812 35.679688 C 103.199219 35.398438 102.21875 35.507812 101.375 35.984375 L 79.734375 48.132812 C 79.304688 48.375 79.148438 48.921875 79.390625 49.351562 C 79.554688 49.640625 79.859375 49.804688 80.171875 49.804688 C 80.320312 49.804688 80.46875 49.769531 80.609375 49.691406 L 102.25 37.535156 C 102.667969 37.300781 103.152344 37.246094 103.613281 37.386719 Z M 103.613281 37.386719 " fill-opacity="1" fill-rule="nonzero"/></g></svg>