<svg xmlns="http://www.w3.org/2000/svg" xmlns:xlink="http://www.w3.org/1999/xlink" width="500" zoomAndPan="magnify" viewBox="0 0 375 374.999991" height="500" preserveAspectRatio="xMidYMid meet" version="1.0"><defs><clipPath id="0f019a822b"><path d="M 10 17.679688 L 123 17.679688 L 123 130.929688 L 10 130.929688 Z M 10 17.679688 " clip-rule="nonzero"/></clipPath></defs><g clip-path="url(#0f019a822b)"><path fill="#000000" d="M 120.683594 61.171875 C 120.699219 61.097656 120.710938 61.019531 120.71875 60.9375 L 122.941406 45.21875 C 122.964844 45.09375 122.980469 44.964844 122.980469 44.832031 C 122.980469 43.824219 122.160156 43.003906 121.148438 43.003906 L 106.730469 43.003906 C 106.726562 43.003906 106.726562 43.003906 106.722656 43.003906 C 106.71875 43.003906 106.714844 43.003906 106.714844 43.003906 L 92.3125 43.003906 C 92.304688 43.003906 92.300781 43.003906 92.292969 43.003906 C 92.289062 43.003906 92.28125 43.003906 92.277344 43.003906 L 77.890625 43.003906 C 77.882812 43.003906 77.875 43.003906 77.867188 43.003906 C 77.855469 43.003906 77.847656 43.003906 77.839844 43.003906 L 63.472656 43.003906 C 63.460938 43.003906 63.449219 43 63.4375 43 C 63.425781 43 63.414062 43.003906 63.402344 43.003906 L 49.046875 43.003906 C 49.035156 43.003906 49.019531 43 49.007812 43 C 48.996094 43 48.980469 43.003906 48.96875 43.003906 L 36.519531 43.003906 L 28.894531 22.96875 C 28.675781 22.390625 28.195312 21.988281 27.636719 21.84375 L 12.320312 17.933594 C 11.34375 17.683594 10.347656 18.277344 10.097656 19.253906 C 9.847656 20.230469 10.441406 21.226562 11.421875 21.472656 L 25.816406 25.148438 L 36.175781 52.367188 L 45.660156 77.277344 C 45.683594 77.355469 45.714844 77.433594 45.746094 77.507812 L 47.253906 81.464844 C 47.277344 81.546875 47.308594 81.628906 47.34375 81.707031 L 51.535156 92.714844 L 47.257812 96.800781 C 43.546875 100.347656 41.148438 103.734375 40.066406 106.617188 C 39.371094 108.480469 39.203125 110.1875 39.5625 111.664062 C 39.953125 113.292969 40.945312 114.589844 42.527344 115.460938 C 43.054688 115.75 43.644531 115.988281 44.300781 116.171875 C 42.925781 117.738281 42.09375 119.785156 42.09375 122.027344 C 42.09375 124.421875 43.046875 126.601562 44.597656 128.203125 L 44.703125 128.320312 C 46.316406 129.933594 48.542969 130.925781 51.003906 130.925781 C 53.464844 130.925781 55.695312 129.929688 57.308594 128.320312 L 57.308594 128.3125 C 58.917969 126.703125 59.917969 124.476562 59.917969 122.027344 C 59.917969 119.996094 59.234375 118.125 58.082031 116.628906 L 96.167969 116.628906 C 95.089844 118.101562 94.449219 119.914062 94.449219 121.875 C 94.449219 124.269531 95.40625 126.449219 96.957031 128.050781 L 97.0625 128.167969 C 98.675781 129.777344 100.902344 130.773438 103.363281 130.773438 C 105.824219 130.773438 108.054688 129.777344 109.667969 128.167969 L 109.667969 128.160156 C 111.277344 126.546875 112.277344 124.324219 112.277344 121.875 C 112.277344 119.914062 111.636719 118.101562 110.558594 116.628906 L 113.957031 116.628906 C 114.964844 116.628906 115.789062 115.808594 115.789062 114.800781 C 115.789062 113.789062 114.964844 112.972656 113.957031 112.972656 C 113.957031 112.972656 47.949219 112.972656 47.949219 112.972656 C 46.339844 112.972656 45.121094 112.71875 44.292969 112.261719 C 43.652344 111.910156 43.257812 111.410156 43.113281 110.804688 C 42.925781 110.039062 43.050781 109.050781 43.488281 107.882812 C 44.378906 105.5 46.480469 102.589844 49.792969 99.425781 L 54.480469 94.941406 L 63.496094 94.042969 C 63.578125 94.039062 63.660156 94.03125 63.742188 94.019531 L 77.929688 92.605469 C 78.011719 92.601562 78.089844 92.59375 78.167969 92.582031 L 92.355469 91.167969 C 92.4375 91.167969 92.515625 91.15625 92.59375 91.144531 L 106.785156 89.734375 C 106.863281 89.730469 106.941406 89.722656 107.019531 89.710938 L 115.285156 88.886719 C 116.132812 88.835938 116.859375 88.191406 116.980469 87.320312 L 118.421875 77.132812 C 118.4375 77.058594 118.449219 76.976562 118.453125 76.894531 Z M 54.726562 125.738281 C 53.777344 126.683594 52.460938 127.273438 51.011719 127.273438 C 49.5625 127.273438 48.246094 126.683594 47.296875 125.738281 L 47.210938 125.660156 C 46.3125 124.71875 45.757812 123.4375 45.757812 122.027344 C 45.757812 120.574219 46.34375 119.261719 47.296875 118.320312 C 48.246094 117.371094 49.5625 116.785156 51.011719 116.785156 C 52.460938 116.785156 53.773438 117.371094 54.726562 118.320312 L 54.808594 118.398438 C 55.710938 119.339844 56.261719 120.617188 56.261719 122.027344 C 56.261719 123.480469 55.675781 124.792969 54.726562 125.738281 Z M 107.078125 118.164062 L 107.164062 118.246094 C 108.0625 119.1875 108.617188 120.464844 108.617188 121.875 C 108.617188 123.328125 108.03125 124.636719 107.078125 125.582031 C 106.128906 126.527344 104.8125 127.117188 103.363281 127.117188 C 101.914062 127.117188 100.601562 126.527344 99.648438 125.582031 L 99.5625 125.503906 C 98.664062 124.5625 98.113281 123.28125 98.113281 121.871094 C 98.113281 120.417969 98.699219 119.105469 99.648438 118.164062 C 100.597656 117.214844 101.914062 116.628906 103.363281 116.628906 C 104.8125 116.632812 106.128906 117.21875 107.078125 118.164062 Z M 54.882812 91.25 L 50.839844 80.625 L 50.839844 78.582031 L 61.609375 78.582031 L 61.609375 90.578125 Z M 90.460938 58.964844 L 79.695312 58.964844 L 79.695312 46.65625 L 90.460938 46.65625 C 90.460938 49.078125 90.460938 53.664062 90.460938 58.964844 Z M 94.125 46.65625 L 104.890625 46.65625 L 104.890625 58.964844 L 94.121094 58.964844 L 94.121094 46.65625 Z M 79.699219 62.621094 L 90.464844 62.621094 C 90.464844 66.707031 90.464844 71.003906 90.464844 74.929688 L 79.699219 74.929688 Z M 76.035156 74.925781 L 65.273438 74.925781 L 65.273438 62.617188 L 76.035156 62.617188 Z M 76.035156 58.964844 L 65.273438 58.964844 L 65.273438 46.65625 L 76.035156 46.65625 Z M 61.609375 58.964844 L 50.839844 58.964844 L 50.839844 46.65625 L 61.609375 46.65625 Z M 61.609375 62.621094 L 61.609375 74.929688 L 50.839844 74.929688 L 50.839844 62.621094 Z M 47.179688 71.007812 L 43.984375 62.617188 L 47.179688 62.617188 Z M 65.269531 78.582031 L 76.035156 78.582031 L 76.035156 89.140625 L 65.269531 90.210938 Z M 79.699219 78.582031 L 90.464844 78.582031 C 90.464844 82.546875 90.464844 85.839844 90.464844 87.699219 L 79.699219 88.773438 Z M 94.125 78.582031 L 104.890625 78.582031 L 104.890625 86.265625 L 94.121094 87.339844 L 94.121094 78.582031 Z M 94.125 74.925781 L 94.125 62.617188 L 104.890625 62.617188 L 104.890625 74.925781 Z M 108.554688 62.621094 L 116.789062 62.621094 L 115.046875 74.929688 L 108.554688 74.929688 Z M 117.304688 58.964844 L 108.550781 58.964844 L 108.550781 46.65625 L 119.046875 46.65625 Z M 47.179688 46.65625 L 47.179688 58.964844 L 42.597656 58.964844 L 39.59375 51.085938 L 37.910156 46.660156 L 47.179688 46.660156 Z M 108.554688 85.902344 L 108.554688 78.582031 L 114.535156 78.582031 L 113.566406 85.402344 Z M 108.554688 85.902344 " fill-opacity="1" fill-rule="nonzero"/></g></svg>