<svg xmlns="http://www.w3.org/2000/svg" xmlns:xlink="http://www.w3.org/1999/xlink" width="500" zoomAndPan="magnify" viewBox="0 0 375 374.999991" height="500" preserveAspectRatio="xMidYMid meet" version="1.0"><defs><clipPath id="54e94e2f30"><path d="M 22 35 L 119 35 L 119 127.890625 L 22 127.890625 Z M 22 35 " clip-rule="nonzero"/></clipPath><clipPath id="45703830d2"><path d="M 14.839844 8 L 127.339844 8 L 127.339844 83 L 14.839844 83 Z M 14.839844 8 " clip-rule="nonzero"/></clipPath><clipPath id="18c38bbc97"><path d="M 57 69 L 85 69 L 85 127.890625 L 57 127.890625 Z M 57 69 " clip-rule="nonzero"/></clipPath></defs><g clip-path="url(#54e94e2f30)"><path fill="#000000" d="M 116.148438 36.488281 L 92.308594 59.21875 C 91.4375 60.09375 91 60.824219 91 62.574219 L 91 126.109375 C 91 126.839844 91.582031 127.421875 92.308594 127.421875 L 116.875 127.421875 C 117.601562 127.421875 118.179688 126.839844 118.179688 126.109375 L 118.179688 37.070312 C 118.328125 36.195312 117.746094 34.882812 116.148438 36.488281 M 47.6875 65.925781 L 23.851562 88.660156 C 22.976562 89.53125 22.542969 90.261719 22.542969 92.011719 L 22.542969 125.964844 C 22.542969 126.695312 23.125 127.277344 23.851562 127.277344 L 48.414062 127.277344 C 49.140625 127.277344 49.722656 126.695312 49.722656 125.964844 L 49.722656 66.507812 C 49.867188 65.777344 49.285156 64.46875 47.6875 65.925781 " fill-opacity="1" fill-rule="nonzero"/></g><g clip-path="url(#45703830d2)"><path fill="#000000" d="M 127.046875 8.941406 C 127.046875 8.796875 127.046875 8.507812 126.902344 8.359375 C 126.757812 8.214844 126.613281 8.214844 126.464844 8.214844 L 126.175781 8.214844 L 108.007812 12.292969 L 107.714844 12.292969 C 107.570312 12.292969 107.425781 12.441406 107.425781 12.441406 C 107.136719 12.730469 107.136719 13.167969 107.425781 13.460938 L 107.570312 13.605469 L 111.785156 17.832031 L 70.507812 59.21875 L 51.464844 40.128906 C 51.320312 39.984375 50.886719 39.984375 50.738281 40.128906 L 45.507812 45.375 L 14.984375 75.980469 C 14.839844 76.125 14.839844 76.5625 14.984375 76.707031 L 20.214844 81.953125 C 20.363281 82.101562 20.796875 82.101562 20.941406 81.953125 L 51.175781 51.789062 L 64.984375 65.632812 L 70.214844 70.878906 C 70.363281 71.023438 70.796875 71.023438 70.941406 70.878906 L 117.746094 23.953125 L 122.105469 28.324219 C 122.398438 28.617188 122.832031 28.617188 123.125 28.324219 C 123.269531 28.179688 123.269531 28.035156 123.269531 27.886719 L 127.339844 9.234375 Z M 127.046875 8.941406 " fill-opacity="1" fill-rule="nonzero"/></g><g clip-path="url(#18c38bbc97)"><path fill="#000000" d="M 82.136719 70.003906 L 70.652344 81.664062 C 70.363281 81.808594 70.070312 81.808594 69.925781 81.664062 L 59.460938 71.023438 C 57.570312 69.128906 57.136719 70.734375 57.136719 71.460938 L 57.136719 126.257812 C 57.136719 126.984375 57.714844 127.570312 58.441406 127.570312 L 83.007812 127.570312 C 83.734375 127.570312 84.316406 126.984375 84.316406 126.257812 L 84.316406 70.585938 C 84.316406 69.566406 83.734375 68.253906 82.136719 70.003906 " fill-opacity="1" fill-rule="nonzero"/></g></svg>