<svg xmlns="http://www.w3.org/2000/svg" xmlns:xlink="http://www.w3.org/1999/xlink" width="500" zoomAndPan="magnify" viewBox="0 0 375 374.999991" height="500" preserveAspectRatio="xMidYMid meet" version="1.0"><defs><clipPath id="c109cc405f"><path d="M 37.5 14.375 L 149 14.375 L 149 122.375 L 37.5 122.375 Z M 37.5 14.375 " clip-rule="nonzero"/></clipPath></defs><g clip-path="url(#c109cc405f)"><path fill="#000000" d="M 144.570312 93.234375 C 141.132812 89.464844 135.785156 85.539062 129.34375 82.34375 L 129.261719 82.300781 C 128.632812 81.992188 128.007812 81.699219 127.386719 81.414062 L 127.386719 25.976562 C 127.386719 22.460938 124.125 19.4375 118.851562 17.386719 C 114.082031 15.527344 107.535156 14.375 100.339844 14.375 C 93.144531 14.375 86.597656 15.527344 81.824219 17.382812 C 76.554688 19.433594 73.292969 22.460938 73.292969 25.972656 L 73.292969 49.5625 C 70.5625 49.183594 67.628906 48.972656 64.578125 48.972656 C 57.382812 48.972656 50.835938 50.125 46.0625 51.980469 C 40.792969 54.035156 37.535156 57.0625 37.535156 60.574219 L 37.535156 110.785156 C 37.535156 114.296875 40.792969 117.324219 46.066406 119.375 C 50.839844 121.234375 57.386719 122.382812 64.582031 122.382812 C 71.777344 122.382812 78.324219 121.230469 83.097656 119.375 C 87.609375 117.621094 90.644531 115.148438 91.425781 112.269531 C 92.53125 112.425781 93.667969 112.558594 94.832031 112.65625 C 96.617188 112.808594 98.460938 112.886719 100.339844 112.886719 C 102.027344 112.886719 103.691406 112.820312 105.320312 112.695312 C 106.730469 112.589844 108.128906 112.429688 109.5 112.226562 C 110.75 112.957031 112.050781 113.664062 113.40625 114.335938 L 113.488281 114.375 C 119.921875 117.558594 126.289062 119.429688 131.378906 119.878906 C 137.003906 120.378906 141.265625 119.113281 142.820312 115.964844 L 148.390625 104.714844 C 149.957031 101.566406 148.378906 97.410156 144.570312 93.234375 Z M 127.769531 85.460938 C 133.824219 88.460938 138.816406 92.109375 141.988281 95.585938 C 144.804688 98.671875 146.117188 101.441406 145.265625 103.164062 L 145.261719 103.167969 C 144.40625 104.890625 141.40625 105.519531 137.25 105.152344 C 132.566406 104.734375 126.636719 102.972656 120.5625 99.964844 C 114.503906 96.964844 109.511719 93.3125 106.335938 89.832031 C 103.523438 86.746094 102.210938 83.976562 103.0625 82.253906 C 103.914062 80.53125 106.914062 79.898438 111.074219 80.269531 C 115.019531 80.621094 119.851562 81.925781 124.90625 84.128906 C 124.9375 84.140625 124.964844 84.152344 124.992188 84.164062 C 125.910156 84.566406 126.832031 84.992188 127.757812 85.449219 Z M 94.355469 91.960938 C 93.683594 93.316406 93.59375 94.859375 94.011719 96.507812 C 93.808594 96.484375 93.605469 96.46875 93.40625 96.445312 C 92.804688 96.375 92.214844 96.296875 91.625 96.210938 L 91.625 87.191406 C 92.480469 87.308594 93.367188 87.414062 94.289062 87.5 C 95.007812 87.566406 95.742188 87.617188 96.484375 87.664062 Z M 123.886719 76.179688 C 123.886719 76.703125 123.691406 77.234375 123.324219 77.761719 C 122.980469 78.253906 122.496094 78.734375 121.894531 79.203125 C 118.09375 77.886719 114.492188 77.074219 111.371094 76.796875 C 105.746094 76.296875 101.484375 77.5625 99.925781 80.710938 L 98.175781 84.246094 C 96.960938 84.203125 95.765625 84.128906 94.605469 84.023438 C 93.609375 83.929688 92.613281 83.804688 91.625 83.660156 L 91.625 74.640625 C 92.667969 74.785156 93.734375 74.90625 94.832031 75 C 96.617188 75.148438 98.460938 75.226562 100.339844 75.226562 C 107.535156 75.226562 114.082031 74.078125 118.855469 72.222656 C 120.839844 71.449219 122.535156 70.539062 123.886719 69.519531 Z M 123.886719 63.628906 C 123.886719 65.554688 121.484375 67.453125 117.597656 68.964844 C 113.214844 70.671875 107.117188 71.726562 100.339844 71.726562 C 98.539062 71.726562 96.796875 71.652344 95.121094 71.511719 C 93.921875 71.414062 92.753906 71.277344 91.625 71.109375 L 91.625 62.09375 C 92.664062 62.234375 93.726562 62.359375 94.8125 62.449219 C 96.601562 62.601562 98.449219 62.679688 100.335938 62.679688 C 107.53125 62.679688 114.078125 61.53125 118.851562 59.675781 C 120.835938 58.902344 122.535156 57.992188 123.882812 56.972656 L 123.882812 63.628906 Z M 123.886719 38.527344 C 123.886719 40.449219 121.484375 42.347656 117.597656 43.863281 C 113.214844 45.566406 107.117188 46.621094 100.339844 46.621094 C 93.5625 46.621094 87.464844 45.566406 83.082031 43.863281 C 79.199219 42.347656 76.792969 40.449219 76.792969 38.527344 L 76.792969 31.863281 C 78.144531 32.886719 79.839844 33.792969 81.824219 34.566406 C 86.597656 36.425781 93.144531 37.574219 100.339844 37.574219 C 107.535156 37.574219 114.082031 36.421875 118.855469 34.566406 C 120.839844 33.792969 122.535156 32.882812 123.886719 31.863281 Z M 76.726562 50.152344 C 76.636719 48.382812 76.648438 46.351562 76.691406 44.332031 C 78.058594 45.386719 79.789062 46.324219 81.824219 47.117188 C 86.597656 48.976562 93.144531 50.125 100.339844 50.125 C 107.535156 50.125 114.082031 48.972656 118.855469 47.117188 C 120.839844 46.347656 122.535156 45.4375 123.886719 44.414062 L 123.886719 51.082031 C 123.886719 53.007812 121.484375 54.902344 117.597656 56.417969 C 113.214844 58.121094 107.117188 59.179688 100.339844 59.179688 C 98.535156 59.179688 96.78125 59.101562 95.105469 58.960938 C 93.769531 58.847656 92.476562 58.695312 91.234375 58.5 C 90.21875 55.875 87.296875 53.621094 83.097656 51.984375 C 81.226562 51.253906 79.078125 50.636719 76.726562 50.152344 Z M 88.125 73.125 C 88.125 75.050781 85.722656 76.949219 81.835938 78.460938 C 77.453125 80.167969 71.355469 81.222656 64.578125 81.222656 C 57.800781 81.222656 51.703125 80.167969 47.324219 78.460938 C 43.4375 76.949219 41.035156 75.050781 41.035156 73.125 L 41.035156 66.460938 C 42.382812 67.484375 44.078125 68.394531 46.0625 69.164062 C 50.835938 71.023438 57.382812 72.171875 64.578125 72.171875 C 71.773438 72.171875 78.320312 71.019531 83.09375 69.164062 C 85.078125 68.394531 86.777344 67.480469 88.125 66.460938 Z M 46.066406 81.71875 C 50.839844 83.574219 57.386719 84.722656 64.582031 84.722656 C 71.777344 84.722656 78.324219 83.574219 83.097656 81.71875 C 85.082031 80.945312 86.777344 80.035156 88.128906 79.015625 L 88.128906 85.679688 C 88.128906 87.605469 85.726562 89.503906 81.839844 91.015625 C 77.457031 92.71875 71.359375 93.777344 64.582031 93.777344 C 57.804688 93.777344 51.707031 92.71875 47.324219 91.015625 C 43.441406 89.503906 41.035156 87.605469 41.035156 85.679688 L 41.035156 79.015625 C 42.382812 80.035156 44.082031 80.945312 46.066406 81.71875 Z M 41.035156 98.230469 L 41.035156 91.5625 C 42.386719 92.585938 44.082031 93.496094 46.066406 94.265625 C 50.839844 96.125 57.386719 97.273438 64.582031 97.273438 C 71.777344 97.273438 78.324219 96.121094 83.097656 94.265625 C 85.082031 93.496094 86.777344 92.585938 88.128906 91.5625 L 88.128906 98.230469 C 88.128906 100.15625 85.726562 102.050781 81.839844 103.566406 C 77.457031 105.269531 71.359375 106.328125 64.582031 106.328125 C 57.804688 106.328125 51.707031 105.269531 47.324219 103.566406 C 43.4375 102.050781 41.035156 100.15625 41.035156 98.230469 Z M 83.082031 20.640625 C 87.460938 18.933594 93.558594 17.878906 100.335938 17.878906 C 107.113281 17.878906 113.214844 18.933594 117.59375 20.640625 C 121.476562 22.152344 123.882812 24.050781 123.882812 25.976562 C 123.882812 27.902344 121.480469 29.796875 117.59375 31.3125 C 113.214844 33.015625 107.113281 34.074219 100.335938 34.074219 C 93.558594 34.074219 87.460938 33.015625 83.082031 31.3125 C 79.195312 29.796875 76.792969 27.902344 76.792969 25.976562 C 76.792969 24.050781 79.195312 22.148438 83.082031 20.640625 Z M 47.324219 55.238281 C 51.703125 53.53125 57.800781 52.476562 64.578125 52.476562 C 68.191406 52.476562 71.609375 52.78125 74.679688 53.320312 C 74.695312 53.320312 74.710938 53.324219 74.726562 53.328125 C 77.394531 53.796875 79.804688 54.445312 81.839844 55.238281 C 85.722656 56.75 88.128906 58.648438 88.128906 60.574219 C 88.128906 62.5 85.726562 64.398438 81.839844 65.910156 C 77.457031 67.617188 71.359375 68.671875 64.582031 68.671875 C 57.804688 68.671875 51.707031 67.617188 47.324219 65.910156 C 43.441406 64.398438 41.035156 62.5 41.035156 60.574219 C 41.035156 58.648438 43.4375 56.75 47.324219 55.238281 Z M 81.839844 116.117188 C 77.457031 117.824219 71.359375 118.878906 64.582031 118.878906 C 57.804688 118.878906 51.707031 117.824219 47.324219 116.117188 C 43.441406 114.605469 41.035156 112.707031 41.035156 110.78125 L 41.035156 104.117188 C 42.386719 105.140625 44.082031 106.046875 46.066406 106.820312 C 50.839844 108.679688 57.386719 109.828125 64.582031 109.828125 C 71.777344 109.828125 78.324219 108.675781 83.097656 106.820312 C 85.082031 106.046875 86.777344 105.136719 88.128906 104.117188 L 88.128906 110.78125 C 88.125 112.703125 85.722656 114.605469 81.839844 116.117188 Z M 100.339844 109.378906 C 98.539062 109.378906 96.796875 109.304688 95.121094 109.164062 C 93.921875 109.066406 92.753906 108.929688 91.625 108.761719 L 91.625 99.746094 C 92.082031 99.804688 92.539062 99.867188 93.007812 99.921875 C 93.863281 100.019531 94.742188 100.097656 95.652344 100.164062 C 96.332031 101.242188 97.175781 102.339844 98.175781 103.441406 C 99.9375 105.363281 102.191406 107.332031 104.835938 109.222656 C 103.394531 109.324219 101.890625 109.378906 100.339844 109.378906 Z M 139.691406 114.414062 C 138.839844 116.136719 135.839844 116.773438 131.683594 116.402344 C 126.996094 115.988281 121.066406 114.226562 114.996094 111.222656 L 114.984375 111.214844 C 108.925781 108.214844 103.9375 104.566406 100.761719 101.089844 C 99.726562 99.953125 98.898438 98.863281 98.304688 97.847656 C 98.246094 97.695312 98.164062 97.550781 98.066406 97.425781 C 97.234375 95.859375 96.992188 94.507812 97.488281 93.507812 L 100.445312 87.535156 C 101.199219 89.046875 102.316406 90.617188 103.746094 92.1875 C 107.195312 95.964844 112.554688 99.902344 119.015625 103.101562 C 125.46875 106.296875 131.847656 108.175781 136.949219 108.628906 C 139.070312 108.816406 140.992188 108.753906 142.65625 108.4375 Z M 139.691406 114.414062 " fill-opacity="1" fill-rule="nonzero"/></g></svg>